<svg viewBox="0 0 1112.2000732421875 400" xmlns="http://www.w3.org/2000/svg"><g><g><g><g><g><line x1="50" y1="378" x2="45" y2="378" style="visibility: inherit;" fill="rgb(0, 0, 0)" stroke="rgb(204, 204, 204)" stroke-width="1px"></line><line x1="50" y1="336" x2="45" y2="336" style="visibility: inherit;" fill="rgb(0, 0, 0)" stroke="rgb(204, 204, 204)" stroke-width="1px"></line><line x1="50" y1="293.99999999999994" x2="45" y2="293.99999999999994" style="visibility: inherit;" fill="rgb(0, 0, 0)" stroke="rgb(204, 204, 204)" stroke-width="1px"></line><line x1="50" y1="251.99999999999994" x2="45" y2="251.99999999999994" style="visibility: inherit;" fill="rgb(0, 0, 0)" stroke="rgb(204, 204, 204)" stroke-width="1px"></line><line x1="50" y1="210.00000000000014" x2="45" y2="210.00000000000014" style="visibility: inherit;" fill="rgb(0, 0, 0)" stroke="rgb(204, 204, 204)" stroke-width="1px"></line><line x1="50" y1="168.0000000000001" x2="45" y2="168.0000000000001" style="visibility: inherit;" fill="rgb(0, 0, 0)" stroke="rgb(204, 204, 204)" stroke-width="1px"></line><line x1="50" y1="126.00000000000009" x2="45" y2="126.00000000000009" style="visibility: inherit;" fill="rgb(0, 0, 0)" stroke="rgb(204, 204, 204)" stroke-width="1px"></line><line x1="50" y1="84.00000000000006" x2="45" y2="84.00000000000006" style="visibility: inherit;" fill="rgb(0, 0, 0)" stroke="rgb(204, 204, 204)" stroke-width="1px"></line><line x1="50" y1="42" x2="45" y2="42" style="visibility: inherit;" fill="rgb(0, 0, 0)" stroke="rgb(204, 204, 204)" stroke-width="1px"></line><line x1="50" y1="0" x2="45" y2="0" style="visibility: inherit;" fill="rgb(0, 0, 0)" stroke="rgb(204, 204, 204)" stroke-width="1px"></line></g><g transform="translate(40, 0)"><text x="0" y="378" dx="0em" dy="0.3em" style="text-anchor: end; visibility: hidden; font-family: &quot;Helvetica Neue&quot;, sans-serif; font-size: 12px; font-weight: 200;" fill="rgb(50, 49, 63)" stroke="none" stroke-width="1px">0.86</text><text x="0" y="336" dx="0em" dy="0.3em" style="text-anchor: end; visibility: inherit; font-family: &quot;Helvetica Neue&quot;, sans-serif; font-size: 12px; font-weight: 200;" fill="rgb(50, 49, 63)" stroke="none" stroke-width="1px">0.88</text><text x="0" y="293.99999999999994" dx="0em" dy="0.3em" style="text-anchor: end; visibility: inherit; font-family: &quot;Helvetica Neue&quot;, sans-serif; font-size: 12px; font-weight: 200;" fill="rgb(50, 49, 63)" stroke="none" stroke-width="1px">0.9</text><text x="0" y="251.99999999999994" dx="0em" dy="0.3em" style="text-anchor: end; visibility: inherit; font-family: &quot;Helvetica Neue&quot;, sans-serif; font-size: 12px; font-weight: 200;" fill="rgb(50, 49, 63)" stroke="none" stroke-width="1px">0.92</text><text x="0" y="210.00000000000014" dx="0em" dy="0.3em" style="text-anchor: end; visibility: inherit; font-family: &quot;Helvetica Neue&quot;, sans-serif; font-size: 12px; font-weight: 200;" fill="rgb(50, 49, 63)" stroke="none" stroke-width="1px">0.94</text><text x="0" y="168.0000000000001" dx="0em" dy="0.3em" style="text-anchor: end; visibility: inherit; font-family: &quot;Helvetica Neue&quot;, sans-serif; font-size: 12px; font-weight: 200;" fill="rgb(50, 49, 63)" stroke="none" stroke-width="1px">0.96</text><text x="0" y="126.00000000000009" dx="0em" dy="0.3em" style="text-anchor: end; visibility: inherit; font-family: &quot;Helvetica Neue&quot;, sans-serif; font-size: 12px; font-weight: 200;" fill="rgb(50, 49, 63)" stroke="none" stroke-width="1px">0.98</text><text x="0" y="84.00000000000006" dx="0em" dy="0.3em" style="text-anchor: end; visibility: inherit; font-family: &quot;Helvetica Neue&quot;, sans-serif; font-size: 12px; font-weight: 200;" fill="rgb(50, 49, 63)" stroke="none" stroke-width="1px">1</text><text x="0" y="42" dx="0em" dy="0.3em" style="text-anchor: end; visibility: inherit; font-family: &quot;Helvetica Neue&quot;, sans-serif; font-size: 12px; font-weight: 200;" fill="rgb(50, 49, 63)" stroke="none" stroke-width="1px">1.02</text><text x="0" y="0" dx="0em" dy="0.3em" style="text-anchor: end; visibility: hidden; font-family: &quot;Helvetica Neue&quot;, sans-serif; font-size: 12px; font-weight: 200;" fill="rgb(50, 49, 63)" stroke="none" stroke-width="1px">1.04</text></g><line x1="50" y1="0" x2="50" y2="378" fill="rgb(0, 0, 0)" stroke="rgb(204, 204, 204)" stroke-width="1px"></line></g></g><g transform="translate(50, 0)" clip-path="url(#clip_0)"><clipPath id="clip_0"><rect width="1062" height="378"></rect></clipPath><g><g><g><line x1="0" y1="0" x2="0" y2="378" fill="rgb(0, 0, 0)" stroke="rgb(60, 60, 60)" stroke-width="1px" opacity="0.25"></line><line x1="118.02222222222223" y1="0" x2="118.02222222222223" y2="378" fill="rgb(0, 0, 0)" stroke="rgb(60, 60, 60)" stroke-width="1px" opacity="0.25"></line><line x1="236.04444444444445" y1="0" x2="236.04444444444445" y2="378" fill="rgb(0, 0, 0)" stroke="rgb(60, 60, 60)" stroke-width="1px" opacity="0.25"></line><line x1="354.06666666666666" y1="0" x2="354.06666666666666" y2="378" fill="rgb(0, 0, 0)" stroke="rgb(60, 60, 60)" stroke-width="1px" opacity="0.25"></line><line x1="472.0888888888889" y1="0" x2="472.0888888888889" y2="378" fill="rgb(0, 0, 0)" stroke="rgb(60, 60, 60)" stroke-width="1px" opacity="0.25"></line><line x1="590.1111111111112" y1="0" x2="590.1111111111112" y2="378" fill="rgb(0, 0, 0)" stroke="rgb(60, 60, 60)" stroke-width="1px" opacity="0.25"></line><line x1="708.1333333333333" y1="0" x2="708.1333333333333" y2="378" fill="rgb(0, 0, 0)" stroke="rgb(60, 60, 60)" stroke-width="1px" opacity="0.25"></line><line x1="826.1555555555556" y1="0" x2="826.1555555555556" y2="378" fill="rgb(0, 0, 0)" stroke="rgb(60, 60, 60)" stroke-width="1px" opacity="0.25"></line><line x1="944.1777777777778" y1="0" x2="944.1777777777778" y2="378" fill="rgb(0, 0, 0)" stroke="rgb(60, 60, 60)" stroke-width="1px" opacity="0.25"></line><line x1="1062.2" y1="0" x2="1062.2" y2="378" fill="rgb(0, 0, 0)" stroke="rgb(60, 60, 60)" stroke-width="1px" opacity="0.25"></line></g><g><line x1="0" y1="378" x2="1062.2" y2="378" fill="rgb(0, 0, 0)" stroke="rgb(60, 60, 60)" stroke-width="1px" opacity="0.25"></line><line x1="0" y1="336" x2="1062.2" y2="336" fill="rgb(0, 0, 0)" stroke="rgb(60, 60, 60)" stroke-width="1px" opacity="0.25"></line><line x1="0" y1="293.99999999999994" x2="1062.2" y2="293.99999999999994" fill="rgb(0, 0, 0)" stroke="rgb(60, 60, 60)" stroke-width="1px" opacity="0.25"></line><line x1="0" y1="251.99999999999994" x2="1062.2" y2="251.99999999999994" fill="rgb(0, 0, 0)" stroke="rgb(60, 60, 60)" stroke-width="1px" opacity="0.25"></line><line x1="0" y1="210.00000000000014" x2="1062.2" y2="210.00000000000014" fill="rgb(0, 0, 0)" stroke="rgb(60, 60, 60)" stroke-width="1px" opacity="0.25"></line><line x1="0" y1="168.0000000000001" x2="1062.2" y2="168.0000000000001" fill="rgb(0, 0, 0)" stroke="rgb(60, 60, 60)" stroke-width="1px" opacity="0.25"></line><line x1="0" y1="126.00000000000009" x2="1062.2" y2="126.00000000000009" fill="rgb(0, 0, 0)" stroke="rgb(60, 60, 60)" stroke-width="1px" opacity="0.25"></line><line x1="0" y1="84.00000000000006" x2="1062.2" y2="84.00000000000006" fill="rgb(0, 0, 0)" stroke="rgb(60, 60, 60)" stroke-width="1px" opacity="0.25"></line><line x1="0" y1="42" x2="1062.2" y2="42" fill="rgb(0, 0, 0)" stroke="rgb(60, 60, 60)" stroke-width="1px" opacity="0.25"></line><line x1="0" y1="0" x2="1062.2" y2="0" fill="rgb(0, 0, 0)" stroke="rgb(60, 60, 60)" stroke-width="1px" opacity="0.25"></line></g></g></g><g><g><line x1="0" y1="2183.9999999999995" x2="1062.2" y2="2183.9999999999995" fill="rgb(0, 0, 0)" stroke="rgb(153, 153, 153)" stroke-width="1.5px"></line></g></g><g><g><line x1="118.02222222222223" y1="0" x2="118.02222222222223" y2="378" fill="rgb(0, 0, 0)" stroke="rgb(153, 153, 153)" stroke-width="1.5px"></line></g></g><g><g><g><g><g><path stroke="rgb(0, 119, 187)" stroke-width="2px" d="M139.37834333333336,389.73878524106703L140.11008111111113,371.95090658460884L140.11598222222224,387.8553805373077L140.1631911111111,346.36237546755876L140.25760888888888,360.30999670606474L140.7237966666667,390.494013028947L141.62076555555555,351.60337568193165L141.7446888888889,332.53664184099705L145.4033777777778,330.2075173186459L147.84053666666665,349.5023308027758L150.21278333333333,345.0330603010771L151.04484,314.23909504442736L152.08933666666667,311.01546709360656L154.63861666666668,274.1038467190858L155.3939588888889,277.21399366550264L156.53877444444444,265.3926526534803L158.5923611111111,257.48417597082016L159.38311,231.34042451108655L160.40990333333335,220.8012487500983L160.68135444444445,217.22603702123513L161.3894877777778,228.7362072737941L163.5728988888889,222.53452428473113L164.16891111111113,221.86109508642758L166.51755333333332,245.73908925195758L167.34370888888887,240.86044572870512L167.53254444444445,248.0231232862256L167.57385222222223,225.01098105998145L168.09315,254.79735628927023L170.60112222222224,260.82241313005295L172.10590555555555,237.04920266429312L173.3982488888889,224.6204215520737L173.42185333333336,219.78106367504267L174.21850333333336,195.69051170982777L174.33062444444445,193.4759606200012L174.86762555555558,202.42091599783342L174.95024111111113,197.97860108868875L176.05965,226.2862040157282L176.07735333333335,217.41997545817563L176.7441788888889,208.01297186769418L177.45821333333333,201.7196864656969L178.29617111111114,200.98497521729158L178.9629966666667,183.11592853336174L179.0397111111111,192.0145578460785L179.26985444444443,194.49224417077147L180.34975777777777,182.24782957996177L180.53269222222224,191.43379964624583L181.0578911111111,208.00570367710512L181.79553,208.66581741723098L181.99026666666668,191.72995008184836L182.06698111111112,225.5813531772348L182.54497111111112,203.04644350529202L182.83412555555554,219.250059104308L182.94624666666667,209.23729782701938L183.04656555555556,209.4897539035235L183.35342333333335,195.75666027668478L184.20908444444447,196.9957106968447L184.3507111111111,194.34913874242676L184.40972222222223,203.00507216143632L185.42471333333336,215.74688498976272L187.18914555555557,231.22215114292356L189.37845777777778,227.67311745736856L189.4315677777778,207.9213304942075L190.4996688888889,198.18288170135756L190.50557,184.71686608793115L190.63539444444447,182.65909501355875L191.25501111111112,195.18443290682356L191.78020999999998,196.61289058640753L191.85692444444445,218.42150888707872L192.3585188888889,184.3544795019707L192.44113444444446,178.9411617020464L194.71896333333333,175.319652093897L195.37398666666667,176.3723588515499L195.78706444444444,166.6500881847162L196.55420888888892,180.9989106528228L196.61321999999998,204.50025962600563L198.6254988888889,202.84517866154025L199.2038077777778,205.21342618181788L200.11848000000003,192.89579703086417L201.52884555555556,188.1307998143808L202.17206666666667,188.41851336205858L202.59694666666667,178.18450366894007L203.51752,188.71543461176842L203.5588277777778,167.95661249729295L203.6178388888889,164.49549199041192L203.85978444444444,158.70446425461506L204.38498333333337,161.7813015015654L205.18163333333334,160.3642089342702L205.5297988888889,173.31816074876926L206.11991,171.55786445615462L206.14351444444446,166.90472955089044L206.71002111111113,170.74277567027846L207.15260444444448,173.31042852414893L207.49486888888887,164.60165679568507L207.53617666666668,158.7754885093428L207.6128911111111,158.35332004247329L208.01416666666668,151.11985453593914L208.33282666666668,156.70719759977135L208.35053,167.39612348048493L209.4599388888889,160.64498672147388L209.50124666666667,173.5060010884087L210.29199555555556,161.25699815566995L210.43952333333334,153.0624151936677L211.43681111111113,164.95776405080142L211.7377677777778,186.8177391782435L213.01240777777778,184.06457911097772L213.72054111111112,192.64920508249165L215.66790777777777,187.9658298009197L216.2049088888889,177.88165836653815L217.13728444444445,167.65980956024345L217.51495555555556,167.77242751103054L220.9257977777778,171.32326560561225L221.07332555555556,201.50274977492683L221.62803000000002,176.5113263414459L221.66343666666668,177.16958892316006L221.71064555555557,156.75694504610885L222.4128777777778,170.9049012075897L222.93217555555557,176.8943871941152L224.3307388888889,166.99932514589236L224.67890444444444,153.42853526462162L226.11287444444446,172.1536917492795L227.75338333333335,167.30333800999088L232.37395333333333,160.5829132417133L232.8283388888889,159.56248718842917L233.13519666666667,151.92878735658377L233.1469988888889,160.72387034228734L234.4688477777778,170.08327754522801L234.7402988888889,155.49169941977715L235.02355222222224,152.68092702486032L235.38352,147.3250236071561L235.44843222222224,157.6439523939201L236.20377444444446,157.59632238125545L237.96820666666667,143.66242972957468L239.53790222222221,158.66917377532334L240.0099911111111,158.2821954854143L240.67681666666667,164.97430038047494L242.19930333333335,159.02478706756727L243.66868,158.52010077792553L245.82848666666666,140.80494079144196L248.30695333333335,128.9534987604845L250.21891333333335,134.92687078379348L250.3015288888889,135.44755998188248L250.36054000000001,128.8449076843942L251.05687111111115,127.90322998287922L251.10998111111113,130.7487442860708L251.97744444444444,136.127890040411L252.18988444444446,136.2510418645595L252.40232444444447,143.28446523711338L253.4232166666667,137.56329398564836L257.0287955555556,119.83384367639871L257.7133244444444,121.8748281615305L259.4718555555556,119.76475009657878L260.74649555555555,142.681626100849L261.21268333333336,144.11098797449762L262.80598333333336,152.01826587016657L263.03022555555555,146.8817032946661L263.10694,143.44534293165628L264.58221777777777,134.19542447779276L265.34346111111114,124.53173234665323L268.62447888888886,125.01771568193081L269.87551444444443,128.81833521873628L271.81698,134.83644637436387L273.5224011111111,142.33810085417238L274.14201777777777,143.8811695844709L276.8860344444445,141.43798587953566L277.57646444444447,136.32799929542927L277.71219,129.4339215851569L278.32000444444446,135.24827365349958L281.12893333333335,125.23608844520109L281.6069233333333,122.01343322635432L285.27741444444445,116.38198019944082L286.6405711111111,119.56553149544573L288.10404666666665,111.2688372559582L288.9243011111111,112.66934218075079L290.54120555555556,113.60627997543719L291.4617788888889,114.23309136008226L291.9397688888889,114.65242817640979L292.3646488888889,118.40846119203803L294.1408833333333,120.92124727949334L295.0319511111111,112.17581111548617L295.09096222222223,123.70259774928977L296.0705466666667,120.98752795078963L296.4718222222222,126.12213962660289L296.68426222222223,122.6062014667121L296.89670222222225,116.77854215224016L297.7051544444444,109.40434138535358L297.7582644444444,114.89749112882112L298.72604666666666,115.096911621696L300.1305111111111,111.75482724592445L301.8536355555555,109.5189727985333L302.1604933333333,194.91068617322844L302.27261444444446,168.62573910640455L302.7742088888889,147.5656128331944L302.89223111111113,130.00089167091178L304.91041111111116,135.6275766408696L306.19685333333337,128.96533882925658L306.70434888888894,138.41032990649563L308.74023222222223,134.30249744946514L308.98807888888894,135.0298542212168L311.01806111111114,132.040959216014L313.0185377777778,130.04138845753303L313.35490111111113,125.22817893460447L313.50833000000006,111.58165170725044L313.7443744444444,102.45212499215063L314.6472444444445,117.19745173277806L314.77116777777775,127.06207532225812L315.4674988888889,119.75952176160058L316.5060944444445,114.87411342952055L318.1407022222222,111.60577525535905L318.7957255555556,126.79678187555822L320.09397,119.58204044575825L320.61326777777776,114.75537842922199L320.73129,121.95283159667423L321.7167755555556,116.3414377091849L322.89109666666667,116.06291188395943L325.52299222222223,105.45008805036883L325.78264111111116,115.72759233322125L326.2901366666666,108.70125595643003L326.39045555555555,110.9516302913666L326.64420333333334,102.03064066492425L326.73272,99.53799529033915L327.0100722222222,101.34591222024682L328.2788111111111,95.6044152753451L328.4204377777778,102.18984387572073L328.50895444444444,110.07099229487665L330.0314411111111,104.91699053077758L331.3591911111111,104.94446003609988L331.40049888888893,111.91383050617077L332.5689188888889,120.0518360361529L332.5984244444445,115.06967167919618L332.81086444444446,111.73660372439218L333.69013,112.98227794813306L334.8762533333333,106.8646406328059L335.1654077777778,127.10045949857479L335.98566222222223,112.83420740454665L336.4282455555556,117.19207149566125L337.4196322222222,116.63198588711208L337.64977555555555,105.83079855847797L340.9721011111111,102.0803009211267L341.3261677777778,99.57121800173866L342.69522555555557,97.89264152866826L343.00208333333336,96.76967386818393L344.14689888888887,109.92039524533953L345.5808688888889,104.8162411046369L345.74019888888887,104.87705867001199L347.20957555555555,101.44224893574284L349.8768777777778,102.61985790902185L350.0775155555556,110.35867168315542L350.36667,108.58494472704086L350.85646222222226,114.34931476441017L350.9626822222222,121.68117500491496L351.38166111111116,123.11069282030786L351.85965111111113,113.64055018229101L352.83333444444446,114.25601812846759L352.8510377777778,104.24127612794473L353.4057422222223,97.54141372959509L353.41164333333336,96.53470247060426L355.1347677777778,154.9446977231114L355.96682444444446,134.9374994622666L356.01993444444446,128.50367719677115L357.86698222222225,120.72395341564982L358.86427,112.0438215205748L359.04130333333336,109.71230996827427L359.95007444444445,115.10352211079498L359.97958,108.28375297762682L360.2274266666667,110.6723207985471L361.7912211111111,112.27027267074288L362.33412333333337,109.86380578773674L363.0363555555556,111.72937612851075L363.53795,109.50194600098354L366.16394444444444,101.06080187465807L367.79855222222227,98.88917313965112L368.6188066666667,93.96085683042674L369.00828,108.04129664708L369.68100666666663,107.03462082790628L371.7936044444445,106.3611547048792L372.4899355555555,112.86159923958411L372.77909,106.78390657678659L372.9207166666667,99.24243349987034L374.60843444444447,101.14818138242299L374.66744555555556,105.89862340135574L374.9802044444445,105.60117242651671L375.2811611111111,98.45118435333961L375.42278777777784,93.66784233238411L375.49950222222225,100.89427657687975L376.4672844444445,105.72876108644749L376.5203944444445,105.48753453784309L376.5735044444445,101.85065729132208L377.16951666666665,102.89308309890424L377.5353855555556,100.11496927867165L377.78323222222224,105.20740450394624L377.8835511111111,115.56523704066467L378.4559588888889,115.54363363671939L378.7215088888889,112.05368427397497L379.97844555555554,116.66990152130876L380.05516,112.80715748876531L381.0524477777778,106.74748504548893L381.75468,102.69356418093719L382.2621755555556,96.50599443704692L383.7315522222222,99.31750364939427L385.21863222222225,97.72290662694957L385.5018855555556,110.5581079609538L386.09789777777775,101.76737422587809L386.39885444444445,102.83736672812216L387.53776888888893,100.07769502661876L387.54367,101.70697134381771L391.8042722222222,95.84596382901395L392.32357,102.35143985812516L393.1969344444445,96.2771132650858L395.10299333333336,95.68888545984731L396.10028111111114,102.24635442915263L396.21240222222224,99.68230779860812L396.78481,94.4914639172689L399.06854,91.01878936065299L403.76582444444443,88.69557008227696L404.91064,94.09232975605306L405.1584866666667,101.17825866331424L405.29421222222226,102.44324841676712L405.3945311111112,106.76502324733195L406.0967633333334,99.22980055246501L407.60154666666665,104.61522662611395L407.92610777777776,104.74257998388009L408.1149433333333,101.35228269472077L408.84668111111114,99.0841738082733L409.28336333333334,97.56680896324002L409.82626555555555,100.0271885674174L410.18623333333335,101.67318252261191L410.4989922222222,99.29885579313236L411.5906977777778,101.18592789661545L411.9624677777778,105.92387581935049L412.45225999999997,98.6670729231455L412.7827222222223,93.81227178558436L413.2548111111111,94.03990651006069L413.6324822222222,101.1431875117454L413.8921311111111,95.46879244535779L413.89803222222224,95.14811883144944L414.02195555555556,94.93358818374452L414.1812855555556,98.26556386593495L416.3646966666667,97.01915891181557L417.0079177777778,96.18531399750941L417.29707222222225,99.10296843534354L417.60983111111113,104.53037593975961L419.2975488888889,101.21031818920397L419.36246111111114,98.98919955408252L420.7256177777778,97.50327118718599L420.95576111111114,99.98468179523712L421.10328888888887,94.69375212101363L422.67888555555555,94.62961685446328L423.2158866666667,98.0622070466456L424.35480111111116,100.35860988521569L427.6830277777778,94.9439100132094L427.9485777777778,94.79697248434218L429.97856,94.69867127752985L430.85782555555556,101.58390114118231L431.1941888888889,99.23912654895565L432.55734555555557,97.67047234675636L432.95272000000006,107.04753274199953L433.30088555555557,102.89429608990235L433.9027988888889,107.06677414065945L434.62273444444446,99.4316719001011L434.9118888888889,94.32378850116754L435.45479111111115,97.85760787829082L435.49019777777784,93.27073967057669L435.55511000000007,100.62861489613067L436.59960666666666,95.12454336551144L436.93597,101.86880956804197L437.6559055555556,99.42973028652506L438.5705777777778,97.79798624719035L439.33182111111114,93.23085279937038L441.4031111111111,90.17544052277873L442.1112444444445,91.60686639524397L442.21156333333334,92.56449030392321L442.77807,107.10712744084913L445.48668000000004,102.9341649434329L446.0236811111111,100.14245303266159L447.1802988888889,101.75029444986052L448.90932444444445,95.87494698695679L449.1984788888889,95.4198362197788L449.4994355555556,91.63987043103214L450.39050333333336,89.11107331836058L452.46179333333333,94.37030142099314L452.53260666666665,90.93773165064448L452.57981555555557,92.11683915978625L453.2053333333334,89.43016539789716L453.6597188888889,87.63278065119329L454.4209622222222,86.43033025564841L455.2707222222222,89.10138762653355L455.87853666666666,90.88832500765574L456.72829666666667,99.03477948663641L457.5013422222222,97.53376416206464L458.60485000000006,100.00508159543102L458.7995866666667,98.18289627284815L459.1182466666667,96.96385429204014L459.89129222222226,117.00133675109788L460.42829333333333,106.07789428648448L460.69384333333335,98.77011127765815L461.39607555555557,100.83219781576304L461.8799666666667,95.2607403387455L461.89176888888886,95.00893197212554L463.7801244444445,91.36497548935199L464.8659288888889,92.40266528788123L465.50915,96.57237644860243L465.6271722222222,92.41091984411514L466.51824,89.62690537571297L466.5831522222222,91.23989638185708L469.06752,99.2699807359773L469.3212677777778,97.69111379787381L469.76385111111114,93.1593551307775L471.1447111111111,97.07860195349997L471.5282833333334,96.22508139239642L472.85603333333336,95.65407613701802L473.74710111111114,91.79657693566503L474.27230000000003,92.69140665546468L475.1515655555556,89.81455105250603L475.34040111111113,87.88993465412659L478.20834111111117,86.60236628361076L478.3971766666667,92.6919764147454L479.85475111111117,89.81493222146463L482.8348122222223,91.36568634166463L483.0059444444445,88.92764416257364L483.30690111111113,94.24758731577163L483.55474777777783,97.80662928526112L483.7612866666667,93.23663499183965L485.37819111111116,90.17930880954077L485.50801555555563,91.60945427908746L485.6968511111112,89.0907249127095L486.57021555555554,94.35668833761241L486.72364444444446,97.87961786887246L487.28425,96.76096103978051L488.1694166666667,92.53708293561328L488.35825222222223,89.71130848392522L489.42045222222225,87.82086537574588L490.09908,90.031655621879L490.31152000000003,88.03517761103706L491.09046666666666,86.69953382178386L491.66287444444447,85.80598812677334L491.95202888888895,85.20820605681149L492.88440444444444,88.28378653751162L495.03831,86.86585319359529L495.4454866666667,85.91725578651534L495.7641466666667,92.2336374921884L495.9647844444445,92.98380016777901L498.34883333333335,96.96115568325393L499.61167111111115,103.09750320861161L499.9834411111111,96.77622964656115L501.16956444444446,92.54729763354953L501.21087222222224,93.19363880234954L502.33208333333334,90.15054435877187L502.4442044444445,91.59021086152313L502.45600666666667,92.55334775186373L503.56541555555555,93.19768633150176L505.3475511111111,93.62874884127962L505.55409000000003,93.91712966032094L507.5309622222223,97.58555311376443L507.79061111111116,93.08873503310849L509.1950755555556,100.50685379366439L510.19236333333333,98.51858187346653L510.64084777777776,93.71293127334917L510.87689222222224,90.4979510218705L511.0598266666667,95.29812260464126L512.0689166666666,91.558444022505L512.4347855555555,89.05659905105585L513.0662044444445,87.38286476515646L513.8805577777778,89.73863321339468L514.6949111111112,94.7901389907708L515.0725822222223,91.21860298482562L516.8606188888889,92.30474208235313L517.9936322222222,93.03136913859936L519.2682722222223,96.99297932473286L519.2859755555556,92.69230316824644L520.2596588888889,89.81515081955678L521.8706622222222,87.89033589828347L521.9532777777778,90.07813140145663L522.1598166666666,88.06626990757456L522.4371688888889,93.67132793917716L524.0540733333333,93.9456150768143L525.1044711111111,94.12911317189361L525.2638011111111,97.72737008300663L525.2697022222222,93.18361058553154L525.8185055555556,93.61933216722537L528.9637977777778,93.91082990537882L529.1644355555555,90.6303452066984L529.4122822222223,91.91119762878611L530.6279111111111,99.71908127017264L531.1295055555555,94.5160653697456L532.1976066666667,97.98624110336965L532.4454533333334,93.3567952981544L535.3015911111112,93.73519273997027L535.6792622222223,90.51284394304008L537.0896277777778,91.83258928339853L537.266661111111,92.71549891609851L538.0869155555556,89.83066877486999L538.3642677777777,87.90071741038798L538.9425766666667,86.6095799475496L540.6834044444445,85.74580898491081L540.8132288888888,88.64344289641042L541.5862744444444,87.10646329769855L541.9049344444445,96.5047140026752L542.1291766666667,95.8411503532945L542.7074855555555,91.92172958635416L542.7192877777778,89.29963709327092L543.9349166666667,87.54545721539819L544.2594777777778,86.37191087710153L544.3302911111111,85.58680837678082L545.3511833333333,85.06157480406648L545.8704811111111,88.18569022942523L547.6408144444445,93.75122013449533L549.7829177777778,93.99906295548215L549.788818888889,94.16486980272254L549.8183244444444,90.80029789802126L553.4180022222222,92.02489597928093L554.1379377777778,89.36865541013896L554.7457522222222,87.59163046938306L555.099818888889,86.40280078401724L555.8374577777778,89.08297041001242L555.9849855555557,87.40050720429832L558.6640900000001,86.27493931967552L559.5551577777778,88.99743109036785L560.0862577777779,87.34328139945603L560.8770066666667,89.7121519417409L562.32868,91.2969263345297L562.4349,88.88164371780033L565.8752477777778,87.26581964720833L567.5629655555555,86.18483334398235L567.5806688888889,88.93715019262896L567.6219766666667,90.77845016437368L568.5484511111111,88.53478315996603L569.1739688888889,87.03376993401736L569.7994866666667,89.50508877136252L570.5843344444445,87.68290438804155L570.8380822222222,86.46386303559996L572.1422277777777,85.64832437081628L573.0864055555556,85.10272900407614L573.8181433333334,84.73772570372694L574.6206944444444,84.4935384957933L574.8272333333334,87.80567393919051L576.6860833333334,90.02149255082338L577.8899100000001,88.02837851650088L578.9108022222223,86.69498522753906L579.2117588888889,85.80294511722371L580.2031455555556,85.20617028342264L580.4096844444445,88.28242460511444L581.1886311111111,86.86494206082153L582.5458866666667,85.91664623868968L582.8586455555557,85.28223633368333L583.3838444444444,88.3333127927392L584.0388677777778,86.8989862583424L584.150988888889,89.4149184923358L585.053858888889,87.62258047137271L585.5672555555556,86.42350633534835L586.6176533333334,85.62132573834816L589.0548122222222,85.0846669189549L589.7511433333334,88.2011388542856L590.1229133333334,86.81056189351722L590.95497,89.35576259226804L591.863741111111,91.0585018597323L592.3594344444444,92.19763442966587L594.6490655555556,96.43521080445623L594.7493844444444,92.31915602818111L594.9913300000001,89.56551538285322L595.4103088888888,87.72332979112872L596.2777722222222,86.49090763026516L598.1425233333334,85.66641720464736L598.7267333333333,85.11483310990911L599.0158877777778,88.22132003603423L599.8066366666667,86.82406310410687L601.0340677777778,89.36479490215225L601.3645300000001,87.5890477895399L604.6927566666667,86.40107297120221L604.8048777777778,92.55731118874417L605.6251322222223,89.72484118526995L606.03821,87.82991875294556L606.99419,86.56221564572047L607.0177944444446,89.1896189524918L607.8144444444445,87.47185507921716L609.8798333333334,86.32267104799627L610.9892422222223,92.50486030211925L611.2370888888889,89.68975154211779L611.2842977777779,87.80644378167682L611.3197044444445,86.54651088994177L611.5321444444445,85.70361578537114L611.5557488888888,85.13971896041323L612.0160355555556,88.23796867002125L612.4350144444445,86.83520104024416L612.5058277777779,85.89674949592325L612.6297511111112,88.74442209827748L614.051918888889,87.1740183837477L614.0637211111111,86.12341829872719L619.9707333333333,85.42056684184848L620.2952944444445,84.95035921719659L625.8187344444444,84.63579031630445L626.1314933333334,87.90084040711253L626.32623,86.60966223235823L626.6271866666667,85.74586403344762L627.7661011111112,85.1679830383764L627.8782222222222,88.25687733817887L629.2236755555556,86.84785093924177L629.4007088888889,85.90521227835285L630.1324466666666,85.27458701421801L630.1796555555557,88.32819539801693L630.5691288888889,93.84655609228315L632.0857144444444,90.58734602573742L632.4692866666667,88.40693449121824L632.6463200000001,90.42373586013008L635.0834788888889,88.29747929042696L635.2546111111111,86.87501364529567L636.7239877777778,85.92338412870288L636.8774166666667,85.28674398210234L636.8892188888889,84.86083172402635L637.0544500000001,88.05139310887847L640.2292477777778,86.71038198983973L642.1353066666667,89.28874223670772L642.7549233333333,91.01366524186221L643.8938377777778,88.69214204680588L644.4131355555555,87.13904302931309L645.5343466666667,86.10001978661057L645.6877755555555,85.40491323724251L646.0064355555556,84.93988695571534L646.0890511111111,84.6287843733736L646.1008533333334,84.42065674578697L648.0010111111112,87.75691604843638L649.32286,86.513376836404L651.7718211111111,85.6814491035542L651.9665577777779,85.12488945027769L652.9579444444444,88.22804772774066L653.2352966666667,86.82856392985855L654.9112122222223,85.89230926907533L657.8676688888889,88.7414515865164L658.4754833333334,90.6475277968845L658.876758888889,88.44719609611576L659.5789911111112,86.97517418830137L659.6852111111111,85.99039153197373L660.90084,85.33157193489046L661.06017,84.89082162444174L662.5059422222222,84.59595966675153L662.7242833333333,84.39869701705669L662.8068988888889,84.26672830441095L664.4120011111111,84.17844123565101L665.3738822222223,84.11937718665064L666.2177411111112,84.07986333786926L667.6045022222223,84.05342857303447L668.3657455555557,87.511240400865L668.4483611111111,86.34901982817871L669.7820122222223,85.57149426505168L669.8351222222223,85.05132966331956L669.9413422222223,88.17883623026563L670.1242766666667,90.27113812355276L670.2186944444445,88.1953914046569L670.6376733333333,86.80671684971549L670.8678166666667,85.87769357245952L672.313588888889,85.25617699997548L672.4375122222223,84.84038241298367L672.5378311111111,84.56221583428623L672.8859966666666,84.37612239313756L673.4938111111112,84.25162588100909L673.9481966666666,84.1683377143952L674.9749899999999,84.11261793093047L675.5296944444445,84.07534139579252L676.5210811111111,84.05040339378519L677.7131055555556,87.50921655594743L678.3268211111111,86.34766587592884L678.7635033333333,85.57058847099631L679.5129444444444,85.0507236870967L683.1067211111111,84.70293414666759L684.3400533333333,84.47026294412058L685.2724288888888,84.31460590961666L685.4789677777778,84.21047135353348L685.8979466666667,84.1408053355139L686.9601466666668,87.56969545496361L688.1757755555556,86.38812625937067L688.7068755555556,89.07315315302372L690.00512,87.39393945937286L690.0228233333333,86.27054549832053L691.1499355555557,85.51899493837635L691.9937944444445,85.01620761377387L692.8789611111112,88.15533957911936L692.973378888889,86.77992217843081L693.0500933333333,85.85976793737012L693.0855,85.2441847501006L693.7051166666668,84.83235959781729L693.8762488888889,84.55684857093974L694.0827877777779,84.3725316939587L695.3810322222223,84.24922370325828L698.0719388888889,84.16673065747983L698.5676322222223,87.5870394953588L700.1019211111111,86.39972942239518L703.9435444444445,85.60541898358235L703.9966544444444,85.07402530001661L705.0824588888889,88.19401961121594L706.2449777777778,86.80579911990355L706.7760777777778,89.35257629672043L707.1655511111111,87.58087354250597L707.2186611111111,86.39560439993653L707.6199366666667,85.6026593435576L712.1991988888889,85.07217910084L713.8338066666668,84.71728781846207L713.90462,87.95536223605592L716.088031111111,86.64613733592142L716.1588444444444,85.77026587773145L716.3181744444445,85.18430787220228L716.6486366666667,84.79230196650349L717.1738355555556,84.53005001559092L717.99409,84.35460346043027L719.0916966666667,84.23722971502781L719.156608888889,84.15870667935371L719.3985544444446,84.10617476848773L720.7676122222222,84.0710309201184L721.1688877777777,84.04751968555928L721.6999877777779,84.03179066963907L721.9065266666667,84.02126795798858L722.7208800000001,84.0142282638945L723.3759033333334,84.0095187085455L723.8243877777778,84.00636801601689L723.8420911111111,84.00426020271522L724.20796,84.0028500756165L724.3377844444444,84.00190670058731L725.4648966666667,84.00127558269293L725.7717544444445,84.00085336482164L727.3886588888889,84.00057090106566L728.2915288888888,84.00038193281296L728.503968888889,84.00025551305202L728.5865844444445,84.0001709382318L729.4009377777778,84.00011435767709L729.7727077777778,84.00007650528613L730.0441588888889,84.00005118203649L731.3719088888889,84.00003424078238L733.0891322222222,84.00002290708346L733.4136933333334,87.47551201034378L734.3224644444444,86.32511753492008L735.1663233333334,85.55550363086155L736.3937544444444,85.04063192904641L736.9307555555556,84.69618276053211L737.0428766666666,84.46574626679592L737.5208666666667,84.31158425248657L742.6017233333334,84.20844986491346L746.2545111111112,84.13945295962708L747.4465355555556,84.09329402999049L748.3789111111112,84.0624137060637L748.5677466666667,84.0417547693566L750.2613655555556,84.0279339406996L750.9872022222223,87.49418449183298L752.3385566666667,86.3376094250363L752.8047444444445,85.56386070534927L753.7076144444445,85.04622281187869L754.1442966666667,84.69992306114688L755.01176,84.46824852790718L755.1238811111111,84.31325826517002L755.7907066666667,84.2095697793988L758.3753933333334,84.14020218241774L758.5288222222223,84.0937952600375L759.10123,84.06274902896502L760.1752322222222,84.0419791003776L760.6827277777778,84.02808401815253L761.9573677777778,84.01878820814414L762.8484355555556,84.01256931124851L762.972358888889,84.00840886922532L763.0254688888889,87.48112221901675L764.04046,86.32887076452215L766.7372677777778,85.5580145414653L768.2184466666666,85.04231172824035L768.8793711111111,84.69730654619286L769.3219544444445,84.46649807940304L772.4731477777779,84.31208721512064L772.7268955555556,87.6842830324207L773.2048855555555,86.46478534868953L775.0047244444444,85.64894139827334L775.2761755555556,85.1031417954448L777.5008944444445,84.73800186115267L777.7664444444445,84.49372324511125L778.2444344444444,84.33030085097954L778.6516111111112,84.22097126930532L779.1591066666667,84.1478297791653L781.1005722222222,84.09889812226152L781.4782433333334,84.06616284379288L782.3516077777778,84.04426294249754L782.7174766666667,84.02961190853102L783.9154022222222,87.495307052312L785.2018444444445,86.33836041799685L785.3493722222223,85.56436311964L788.4415544444445,85.04655892703926L789.2500066666666,84.70014792218922L790.3063055555556,84.46839895994475L790.4066244444444,84.31335890420308L790.7429877777778,84.20963710691188L791.12656,84.14024722452416L792.1415511111111,84.09382539320677L794.6731277777778,84.06276918805531L795.00359,84.04199258680899L795.7235255555555,84.0280930405753L796.1484055555557,87.49429092964976L796.8801433333333,86.33768063193583L797.5882766666667,85.5639083427651L798.93373,85.04625468130985L799.4648300000001,84.69994438179634L800.3558977777778,84.46826279142186L800.9401077777778,84.31326780746127L801.4121966666667,84.20957616319163L802.4212866666667,84.1402064531751L803.1884311111112,84.09379811717412L803.7490366666667,84.06275094038949L803.8080477777778,84.04198037912062L803.9437733333334,84.02808487363171L804.7699288888889,84.01878878045972L805.460358888889,84.01256969412765L806.1979977777779,84.00840912537137L807.4667366666666,84.00562570487352L808.2928922222222,84.0037635965603L809.0659377777778,84.00251784609895L809.1839600000001,84.00168443904028L811.3850744444444,84.00112688971808L811.5030966666667,84.00075388922136L811.62702,84.00050435188899L811.7096355555556,84.00033741141368L812.63611,84.00022572823582L814.7192022222222,84.00015101218969L815.7341933333333,84.00010102715498L815.8109077777779,84.00006758716671L816.7963933333334,84.00004521581462L819.0801233333334,84.00003024937996L819.2335522222222,84.00002023683527L819.5817177777778,84.00001353844277L820.5258955555556,84.00000905721811L821.2163255555556,84.00000605927903L821.2340288888889,84.00000405365762L821.5998977777779,84.00000271189691L821.8654477777778,84.00000181425895L823.4646488888889,84.00000121373915L824.2435955555555,84.00000081199153L825.0874544444445,84.00000054322237L825.5772466666667,84.00000036341584L825.6244555555555,84.0000002431251L825.9962255555556,84.00000016265074L827.2177555555556,84.00000010881342L830.4515644444444,84.00000007279618L831.22461,84.00000004870071L831.6730944444445,84.00000003258066L832.9241300000001,84.0000000217965L832.9654377777779,84.00000001458176L833.2250866666667,84.00000000975513L834.0276377777778,84.0000000065263L834.6472544444445,84.0000000043662L836.6772366666667,84.0000000029209L836.8070611111111,84.00000000195405L837.0195011111111,84.00000000130728L837.3145566666667,84.00000000087459L839.8874411111111,84.00000000058503L840.1529911111111,84.00000000039148L840.194298888889,84.00000000026188L840.3005188888889,84.00000000017519L840.4362444444446,84.0000000001171L840.9024322222223,84.00000000007839L841.2151911111112,84.00000000005252L843.8234822222222,84.00000000003524L844.0654277777778,84.00000000002359L844.13034,84.00000000001592L844.4017911111112,84.00000000001052L844.5965277777777,84.00000000000705L844.6260333333333,84.00000000000472L845.3046611111112,84.00000000000313L845.6292222222222,84.00000000000216L846.5793011111111,84.00000000000148L847.6651055555556,84.00000000000102L848.3909422222223,84.00000000000074L849.1108777777779,84.00000000000051L850.0845611111112,84.00000000000028L850.1081655555556,84.00000000000028L850.8458044444444,84.00000000000028L851.2588822222223,84.00000000000028L851.6011466666666,84.00000000000028L852.2856755555556,84.00000000000028L852.9584022222223,84.00000000000028L853.0233144444444,84.00000000000028L856.6643,84.00000000000028L856.9357511111111,84.00000000000028L857.93894,84.00000000000028L859.7859877777779,84.00000000000028L862.5182022222223,84.00000000000028L862.7365433333334,84.00000000000028L863.0670055555555,84.00000000000028L864.6721077777778,84.00000000000028L864.8609433333334,84.00000000000028L865.0261744444446,84.00000000000028L866.0824733333334,84.00000000000028L867.6934766666667,84.00000000000028L868.40161,84.00000000000028L868.5314344444445,84.00000000000028L868.6317533333333,84.00000000000028L870.4551966666667,84.00000000000028L871.004,84.00000000000028L872.6563111111112,84.00000000000028L873.4352577777778,84.00000000000028L874.0076655555556,84.00000000000028L875.19969,84.00000000000028L877.9260033333334,87.47549668550528L878.4689055555556,86.32510728260297L879.0000055555556,85.55549677206147L880.4811844444445,88.51612402601421L881.0181855555555,87.0212869734035L881.6023955555556,86.02124098520693L881.9269566666668,85.3522102191036L882.3636388888889,84.90462863658036L882.4049466666667,84.60519655787232L883.80351,84.40487649721666L885.6269533333334,84.27086237663792L886.028228888889,84.18120692997076L886.931098888889,84.12122743615032L887.1317366666667,84.08110115478468L887.2969677777778,87.52975335805593L887.6923422222222,86.36140499653953L889.3505544444445,85.57977994268498L889.9052588888889,85.0568727816563L890.4127544444444,84.7070478909281L891.4218444444444,84.47301503903083L891.6814933333334,84.3164470611116L891.7818122222222,84.2117030838836L893.3987166666667,84.14162936311823L894.0360366666667,84.09475004392613L896.0129088888889,84.06338777938646L896.2961622222222,84.04240642440965L896.7387455555556,84.02836989792996L896.8154600000001,84.0189794617151L897.0515044444444,84.01269725988737L898.3143422222222,84.00849446686465L899.5063666666667,84.00568279833243L899.7129055555556,84.00380179208446L900.4977533333333,84.00254339890444L901.9199211111112,84.00170153386705L903.3302866666668,84.00113832615716L904.4101900000001,84.00076154019911L905.4251811111111,84.00050947039318L906.69392,84.00034083569301L907.2191188888889,84.00022801907858L908.5940777777778,84.00015254476364L909.0189577777778,84.00010205244683L910.25229,84.00006827308704L910.8483022222223,84.00004567469517L912.636338888889,84.00003055637114L914.5955077777778,84.00002044221225L915.5514877777779,84.00001367583991L915.7108177777778,84.00000914913699L915.9232577777778,84.0000061207727L915.93506,84.00000409479685L916.8733366666667,84.00000273941919L917.4811511111112,84.0000018326715L918.0299544444445,84.00000122605724L918.1774822222222,84.00000082023229L918.6377688888889,84.00000054873539L918.6731755555555,84.00000036710395L918.7026811111112,84.0000002455925L919.4639244444444,84.00000016430141L922.1253255555556,84.00000010991761L923.3763611111111,84.0000000735348L923.4943833333333,84.00000004919474L926.7813022222223,84.00000003291126L928.3155911111112,84.00000002201773L928.3864044444446,84.00000001472978L929.5666266666667,84.0000000098542L929.9620011111111,84.00000000659253L930.00921,84.00000000441048L930.6701344444446,84.00000000295051L931.9034666666666,84.00000000197389L932.0982033333333,84.00000000132059L934.3465266666667,84.0000000008834L935.4559355555556,84.00000000059111L935.6742766666667,84.00000000039546L935.9988377777778,84.00000000026466L937.2439722222223,84.00000000017701L937.9403033333334,84.00000000011852L938.8844811111112,84.0000000000793L940.3951655555556,84.00000000005298L940.7787377777778,84.00000000003553L940.8672544444445,84.00000000002382L940.8908588888889,84.00000000001592L941.7229155555556,84.00000000001052L943.7410955555556,84.00000000000705L944.1718766666668,84.00000000000472" style="fill: none;" fill="none"></path></g><g><path stroke="rgb(255, 112, 67)" stroke-width="2px" d="M165.23111111111112,386.7789628988716L174.6728888888889,333.73064939525887L184.1146666666667,293.1789443378847L193.55644444444445,261.9983303078367L202.99822222222224,240.1302845921384L212.44000000000003,228.98717770150228L221.8817777777778,217.21420492868043L231.32355555555554,206.30766021024934L240.76533333333333,196.2902180771949L250.20711111111112,189.93203189744273L259.6488888888889,184.5553460020139L269.0906666666667,183.87125184426634L278.5324444444445,183.25250934955696L287.97422222222224,174.60404464305398L297.41600000000005,170.596341892855L306.85777777777776,170.49870040880464L316.2995555555555,165.91383782261096L325.74133333333333,161.23290542974777L335.1831111111111,157.9401850356757L344.6248888888889,154.93052390211687L354.06666666666666,153.078511605829L363.5084444444444,151.35537072603827L372.95022222222224,151.6551212948427L382.392,148.30509297807032L391.83377777777775,147.3550262310958L401.27555555555557,148.1719348540107L410.71733333333333,146.45903067961106L420.15911111111114,144.1833526303594L429.6008888888889,144.27483858775986L439.04266666666666,144.8202078801727L448.4844444444445,142.7642340971374L457.92622222222224,140.09766764770865L467.368,137.99094473946468L476.8097777777778,136.42017287967786L486.25155555555557,136.98319589711684L495.6933333333334,136.06877947496963L505.13511111111114,134.65007962610048L514.5768888888889,133.37817906338373L524.0186666666667,135.1095179222496L533.4604444444445,133.52416882148768L542.9022222222222,131.8180309299473L552.344,131.32216404263903L561.7857777777778,131.1518035769447L571.2275555555556,132.49032703919852L580.6693333333333,131.44913975062386L590.1111111111112,130.10704610551764L599.5528888888889,130.50030558877057L608.9946666666667,129.31090157271728L618.4364444444444,128.67656476593743L627.8782222222222,130.3502274015317L637.32,129.0490833551808L646.7617777777779,128.34003389903145L656.2035555555556,127.38151494308954L665.6453333333334,127.22443063141387L675.0871111111111,126.95792531618096L684.528888888889,126.45688430122314L693.9706666666667,125.96027195149989L703.4124444444445,125.305289330471L712.8542222222222,125.35127082679483L722.296,124.89786757804774L731.7377777777778,125.56287054421068L741.1795555555557,125.20080226853261L750.6213333333334,124.15162333206493L760.0631111111111,123.93388749335466L769.5048888888889,122.81989247768635L778.9466666666666,122.23604572292547L788.3884444444445,123.13653094262591L797.8302222222222,124.22312042439086L807.272,123.82034456858852L816.7137777777778,124.35784278109497L826.1555555555556,123.58768343497061L835.5973333333334,124.68635735249018L845.0391111111112,123.48471072416942L854.4808888888889,122.51939321910223L863.9226666666667,121.87359580821231L873.3644444444444,121.28018286079464L882.8062222222222,120.88318959897208L892.248,121.42455636685139L901.6897777777779,121.62531482384134L911.1315555555556,121.75962223156785L920.5733333333334,121.84947388733684L930.0151111111111,121.74821016551425L939.456888888889,121.51909025608256" style="fill: none;" fill="none"></path></g></g></g></g><g opacity="0.2"><g><g><g><path stroke="rgb(0, 119, 187)" stroke-width="2px" d="M131.66559111111113,482.9999949932098L133.32970444444445,377.99996995925903L134.18536555555556,420.0000550746917L136.7405466666667,388.49995994567865L137.34246000000002,377.99996995925903L137.6021088888889,325.50002002716064L137.60801,388.49995994567865L139.37834333333336,377.99996995925903L140.11008111111113,336.0000100135803L140.11598222222224,420.0000550746917L140.1631911111111,262.49995493888855L140.25760888888888,388.49995994567865L140.7237966666667,451.50002503395075L141.62076555555555,272.9999449253082L141.7446888888889,294.0000500679016L145.4033777777778,325.50002002716064L147.84053666666665,388.49995994567865L150.21278333333333,336.0000100135803L151.04484,251.99996495246887L152.08933666666667,304.5000400543213L154.63861666666668,199.50001502037048L155.3939588888889,283.50006008148193L156.53877444444444,241.4999749660492L158.5923611111111,241.4999749660492L159.38311,178.50003504753118L160.40990333333335,199.50001502037048L160.68135444444445,210.0000050067902L161.3894877777778,251.99996495246887L163.5728988888889,210.0000050067902L164.16891111111113,220.49999499320987L166.51755333333332,294.0000500679016L167.34370888888887,230.99998497962952L167.53254444444445,262.49995493888855L167.57385222222223,178.50003504753118L168.09315,315.00003004074097L170.60112222222224,272.9999449253082L172.10590555555555,189.00002503395083L173.3982488888889,199.50001502037048L173.42185333333336,210.0000050067902L174.21850333333336,146.9999399185181L174.33062444444445,189.00002503395083L174.86762555555558,220.49999499320987L174.95024111111113,189.00002503395083L176.05965,283.50006008148193L176.07735333333335,199.50001502037048L176.7441788888889,189.00002503395083L177.45821333333333,189.00002503395083L178.29617111111114,199.50001502037048L178.9629966666667,146.9999399185181L179.0397111111111,210.0000050067902L179.26985444444443,199.50001502037048L180.34975777777777,157.5000550746918L180.53269222222224,210.0000050067902L181.0578911111111,241.4999749660492L181.79553,210.0000050067902L181.99026666666668,157.5000550746918L182.06698111111112,294.0000500679016L182.54497111111112,157.5000550746918L182.83412555555554,251.99996495246887L182.94624666666667,189.00002503395083L183.04656555555556,210.0000050067902L183.35342333333335,168.00004506111148L184.20908444444447,199.50001502037048L184.3507111111111,189.00002503395083L184.40972222222223,220.49999499320987L185.42471333333336,241.4999749660492L187.18914555555557,262.49995493888855L189.37845777777778,220.49999499320987L189.4315677777778,168.00004506111148L190.4996688888889,178.50003504753118L190.50557,157.5000550746918L190.63539444444447,178.50003504753118L191.25501111111112,220.49999499320987L191.78020999999998,199.50001502037048L191.85692444444445,262.49995493888855L192.3585188888889,115.49996995925909L192.44113444444446,168.00004506111148L194.71896333333333,168.00004506111148L195.37398666666667,178.50003504753118L195.78706444444444,146.9999399185181L196.55420888888892,210.0000050067902L196.61321999999998,251.99996495246887L198.6254988888889,199.50001502037048L199.2038077777778,210.0000050067902L200.11848000000003,168.00004506111148L201.52884555555556,178.50003504753118L202.17206666666667,189.00002503395083L202.59694666666667,157.5000550746918L203.51752,210.0000050067902L203.5588277777778,125.99995994567877L203.6178388888889,157.5000550746918L203.85978444444444,146.9999399185181L204.38498333333337,168.00004506111148L205.18163333333334,157.5000550746918L205.5297988888889,199.50001502037048L206.11991,168.00004506111148L206.14351444444446,157.5000550746918L206.71002111111113,178.50003504753118L207.15260444444448,178.50003504753118L207.49486888888887,146.9999399185181L207.53617666666668,146.9999399185181L207.6128911111111,157.5000550746918L208.01416666666668,136.49994993209842L208.33282666666668,168.00004506111148L208.35053,189.00002503395083L209.4599388888889,146.9999399185181L209.50124666666667,199.50001502037048L210.29199555555556,136.49994993209842L210.43952333333334,136.49994993209842L211.43681111111113,189.00002503395083L211.7377677777778,230.99998497962952L213.01240777777778,178.50003504753118L213.72054111111112,210.0000050067902L215.66790777777777,178.50003504753118L216.2049088888889,157.5000550746918L217.13728444444445,146.9999399185181L217.51495555555556,168.00004506111148L220.9257977777778,178.50003504753118L221.07332555555556,262.49995493888855L221.62803000000002,125.99995994567877L221.66343666666668,178.50003504753118L221.71064555555557,115.49996995925909L222.4128777777778,199.50001502037048L222.93217555555557,189.00002503395083L224.3307388888889,146.9999399185181L224.67890444444444,125.99995994567877L226.11287444444446,210.0000050067902L227.75338333333335,157.5000550746918L232.37395333333333,146.9999399185181L232.8283388888889,157.5000550746918L233.13519666666667,136.49994993209842L233.1469988888889,178.50003504753118L234.4688477777778,189.00002503395083L234.7402988888889,125.99995994567877L235.02355222222224,146.9999399185181L235.38352,136.49994993209842L235.44843222222224,178.50003504753118L236.20377444444446,157.5000550746918L237.96820666666667,115.49996995925909L239.53790222222221,189.00002503395083L240.0099911111111,157.5000550746918L240.67681666666667,178.50003504753118L242.19930333333335,146.9999399185181L243.66868,157.5000550746918L245.82848666666666,104.99997997283941L248.30695333333335,104.99997997283941L250.21891333333335,146.9999399185181L250.3015288888889,136.49994993209842L250.36054000000001,115.49996995925909L251.05687111111115,125.99995994567877L251.10998111111113,136.49994993209842L251.97744444444444,146.9999399185181L252.18988444444446,136.49994993209842L252.40232444444447,157.5000550746918L253.4232166666667,125.99995994567877L257.0287955555556,84.00000000000006L257.7133244444444,125.99995994567877L259.4718555555556,115.49996995925909L260.74649555555555,189.00002503395083L261.21268333333336,146.9999399185181L262.80598333333336,168.00004506111148L263.03022555555555,136.49994993209842L263.10694,136.49994993209842L264.58221777777777,115.49996995925909L265.34346111111114,104.99997997283941L268.62447888888886,125.99995994567877L269.87551444444443,136.49994993209842L271.81698,146.9999399185181L273.5224011111111,157.5000550746918L274.14201777777777,146.9999399185181L276.8860344444445,136.49994993209842L277.57646444444447,125.99995994567877L277.71219,115.49996995925909L278.32000444444446,146.9999399185181L281.12893333333335,104.99997997283941L281.6069233333333,115.49996995925909L285.27741444444445,104.99997997283941L286.6405711111111,125.99995994567877L288.10404666666665,94.49998998641973L288.9243011111111,115.49996995925909L290.54120555555556,115.49996995925909L291.4617788888889,115.49996995925909L291.9397688888889,115.49996995925909L292.3646488888889,125.99995994567877L294.1408833333333,125.99995994567877L295.0319511111111,94.49998998641973L295.09096222222223,146.9999399185181L296.0705466666667,115.49996995925909L296.4718222222222,136.49994993209842L296.68426222222223,115.49996995925909L296.89670222222225,104.99997997283941L297.7051544444444,94.49998998641973L297.7582644444444,125.99995994567877L298.72604666666666,115.49996995925909L300.1305111111111,104.99997997283941L301.8536355555555,104.99997997283941L302.1604933333333,367.49997997283936L302.27261444444446,115.49996995925909L302.7742088888889,104.99997997283941L302.89223111111113,94.49998998641973L304.91041111111116,146.9999399185181L306.19685333333337,115.49996995925909L306.70434888888894,157.5000550746918L308.74023222222223,125.99995994567877L308.98807888888894,136.49994993209842L311.01806111111114,125.99995994567877L313.0185377777778,125.99995994567877L313.35490111111113,115.49996995925909L313.50833000000006,84.00000000000006L313.7443744444444,84.00000000000006L314.6472444444445,146.9999399185181L314.77116777777775,146.9999399185181L315.4674988888889,104.99997997283941L316.5060944444445,104.99997997283941L318.1407022222222,104.99997997283941L318.7957255555556,157.5000550746918L320.09397,104.99997997283941L320.61326777777776,104.99997997283941L320.73129,136.49994993209842L321.7167755555556,104.99997997283941L322.89109666666667,115.49996995925909L325.52299222222223,84.00000000000006L325.78264111111116,136.49994993209842L326.2901366666666,94.49998998641973L326.39045555555555,115.49996995925909L326.64420333333334,84.00000000000006L326.73272,94.49998998641973L327.0100722222222,104.99997997283941L328.2788111111111,84.00000000000006L328.4204377777778,115.49996995925909L328.50895444444444,125.99995994567877L330.0314411111111,94.49998998641973L331.3591911111111,104.99997997283941L331.40049888888893,125.99995994567877L332.5689188888889,136.49994993209842L332.5984244444445,104.99997997283941L332.81086444444446,104.99997997283941L333.69013,115.49996995925909L334.8762533333333,94.49998998641973L335.1654077777778,168.00004506111148L335.98566222222223,84.00000000000006L336.4282455555556,125.99995994567877L337.4196322222222,115.49996995925909L337.64977555555555,84.00000000000006L340.9721011111111,94.49998998641973L341.3261677777778,94.49998998641973L342.69522555555557,94.49998998641973L343.00208333333336,94.49998998641973L344.14689888888887,136.49994993209842L345.5808688888889,94.49998998641973L345.74019888888887,104.99997997283941L347.20957555555555,94.49998998641973L349.8768777777778,104.99997997283941L350.0775155555556,125.99995994567877L350.36667,104.99997997283941L350.85646222222226,125.99995994567877L350.9626822222222,136.49994993209842L351.38166111111116,125.99995994567877L351.85965111111113,94.49998998641973L352.83333444444446,115.49996995925909L352.8510377777778,84.00000000000006L353.4057422222223,84.00000000000006L353.41164333333336,94.49998998641973L355.1347677777778,272.9999449253082L355.96682444444446,94.49998998641973L356.01993444444446,115.49996995925909L357.86698222222225,104.99997997283941L358.86427,94.49998998641973L359.04130333333336,104.99997997283941L359.95007444444445,125.99995994567877L359.97958,94.49998998641973L360.2274266666667,115.49996995925909L361.7912211111111,115.49996995925909L362.33412333333337,104.99997997283941L363.0363555555556,115.49996995925909L363.53795,104.99997997283941L366.16394444444444,84.00000000000006L367.79855222222227,94.49998998641973L368.6188066666667,84.00000000000006L369.00828,136.49994993209842L369.68100666666663,104.99997997283941L371.7936044444445,104.99997997283941L372.4899355555555,125.99995994567877L372.77909,94.49998998641973L372.9207166666667,84.00000000000006L374.60843444444447,104.99997997283941L374.66744555555556,115.49996995925909L374.9802044444445,104.99997997283941L375.2811611111111,84.00000000000006L375.42278777777784,84.00000000000006L375.49950222222225,115.49996995925909L376.4672844444445,115.49996995925909L376.5203944444445,104.99997997283941L376.5735044444445,94.49998998641973L377.16951666666665,104.99997997283941L377.5353855555556,94.49998998641973L377.78323222222224,115.49996995925909L377.8835511111111,136.49994993209842L378.4559588888889,115.49996995925909L378.7215088888889,104.99997997283941L379.97844555555554,125.99995994567877L380.05516,104.99997997283941L381.0524477777778,94.49998998641973L381.75468,94.49998998641973L382.2621755555556,84.00000000000006L383.7315522222222,104.99997997283941L385.21863222222225,94.49998998641973L385.5018855555556,136.49994993209842L386.09789777777775,84.00000000000006L386.39885444444445,104.99997997283941L387.53776888888893,94.49998998641973L387.54367,104.99997997283941L391.8042722222222,84.00000000000006L392.32357,115.49996995925909L393.1969344444445,84.00000000000006L395.10299333333336,94.49998998641973L396.10028111111114,115.49996995925909L396.21240222222224,94.49998998641973L396.78481,84.00000000000006L399.06854,84.00000000000006L403.76582444444443,84.00000000000006L404.91064,104.99997997283941L405.1584866666667,115.49996995925909L405.29421222222226,104.99997997283941L405.3945311111112,115.49996995925909L406.0967633333334,84.00000000000006L407.60154666666665,115.49996995925909L407.92610777777776,104.99997997283941L408.1149433333333,94.49998998641973L408.84668111111114,94.49998998641973L409.28336333333334,94.49998998641973L409.82626555555555,104.99997997283941L410.18623333333335,104.99997997283941L410.4989922222222,94.49998998641973L411.5906977777778,104.99997997283941L411.9624677777778,115.49996995925909L412.45225999999997,84.00000000000006L412.7827222222223,84.00000000000006L413.2548111111111,94.49998998641973L413.6324822222222,115.49996995925909L413.8921311111111,84.00000000000006L413.89803222222224,94.49998998641973L414.02195555555556,94.49998998641973L414.1812855555556,104.99997997283941L416.3646966666667,94.49998998641973L417.0079177777778,94.49998998641973L417.29707222222225,104.99997997283941L417.60983111111113,115.49996995925909L419.2975488888889,94.49998998641973L419.36246111111114,94.49998998641973L420.7256177777778,94.49998998641973L420.95576111111114,104.99997997283941L421.10328888888887,84.00000000000006L422.67888555555555,94.49998998641973L423.2158866666667,104.99997997283941L424.35480111111116,104.99997997283941L427.6830277777778,84.00000000000006L427.9485777777778,94.49998998641973L429.97856,94.49998998641973L430.85782555555556,115.49996995925909L431.1941888888889,94.49998998641973L432.55734555555557,94.49998998641973L432.95272000000006,125.99995994567877L433.30088555555557,94.49998998641973L433.9027988888889,115.49996995925909L434.62273444444446,84.00000000000006L434.9118888888889,84.00000000000006L435.45479111111115,104.99997997283941L435.49019777777784,84.00000000000006L435.55511000000007,115.49996995925909L436.59960666666666,84.00000000000006L436.93597,115.49996995925909L437.6559055555556,94.49998998641973L438.5705777777778,94.49998998641973L439.33182111111114,84.00000000000006L441.4031111111111,84.00000000000006L442.1112444444445,94.49998998641973L442.21156333333334,94.49998998641973L442.77807,136.49994993209842L445.48668000000004,94.49998998641973L446.0236811111111,94.49998998641973L447.1802988888889,104.99997997283941L448.90932444444445,84.00000000000006L449.1984788888889,94.49998998641973L449.4994355555556,84.00000000000006L450.39050333333336,84.00000000000006L452.46179333333333,104.99997997283941L452.53260666666665,84.00000000000006L452.57981555555557,94.49998998641973L453.2053333333334,84.00000000000006L453.6597188888889,84.00000000000006L454.4209622222222,84.00000000000006L455.2707222222222,94.49998998641973L455.87853666666666,94.49998998641973L456.72829666666667,115.49996995925909L457.5013422222222,94.49998998641973L458.60485000000006,104.99997997283941L458.7995866666667,94.49998998641973L459.1182466666667,94.49998998641973L459.89129222222226,157.5000550746918L460.42829333333333,84.00000000000006L460.69384333333335,84.00000000000006L461.39607555555557,104.99997997283941L461.8799666666667,84.00000000000006L461.89176888888886,94.49998998641973L463.7801244444445,84.00000000000006L464.8659288888889,94.49998998641973L465.50915,104.99997997283941L465.6271722222222,84.00000000000006L466.51824,84.00000000000006L466.5831522222222,94.49998998641973L469.06752,115.49996995925909L469.3212677777778,94.49998998641973L469.76385111111114,84.00000000000006L471.1447111111111,104.99997997283941L471.5282833333334,94.49998998641973L472.85603333333336,94.49998998641973L473.74710111111114,84.00000000000006L474.27230000000003,94.49998998641973L475.1515655555556,84.00000000000006L475.34040111111113,84.00000000000006L478.20834111111117,84.00000000000006L478.3971766666667,104.99997997283941L479.85475111111117,84.00000000000006L482.8348122222223,94.49998998641973L483.0059444444445,84.00000000000006L483.30690111111113,104.99997997283941L483.55474777777783,104.99997997283941L483.7612866666667,84.00000000000006L485.37819111111116,84.00000000000006L485.50801555555563,94.49998998641973L485.6968511111112,84.00000000000006L486.57021555555554,104.99997997283941L486.72364444444446,104.99997997283941L487.28425,94.49998998641973L488.1694166666667,84.00000000000006L488.35825222222223,84.00000000000006L489.42045222222225,84.00000000000006L490.09908,94.49998998641973L490.31152000000003,84.00000000000006L491.09046666666666,84.00000000000006L491.66287444444447,84.00000000000006L491.95202888888895,84.00000000000006L492.88440444444444,94.49998998641973L495.03831,84.00000000000006L495.4454866666667,84.00000000000006L495.7641466666667,104.99997997283941L495.9647844444445,94.49998998641973L498.34883333333335,104.99997997283941L499.61167111111115,115.49996995925909L499.9834411111111,84.00000000000006L501.16956444444446,84.00000000000006L501.21087222222224,94.49998998641973L502.33208333333334,84.00000000000006L502.4442044444445,94.49998998641973L502.45600666666667,94.49998998641973L503.56541555555555,94.49998998641973L505.3475511111111,94.49998998641973L505.55409000000003,94.49998998641973L507.5309622222223,104.99997997283941L507.79061111111116,84.00000000000006L509.1950755555556,115.49996995925909L510.19236333333333,94.49998998641973L510.64084777777776,84.00000000000006L510.87689222222224,84.00000000000006L511.0598266666667,104.99997997283941L512.0689166666666,84.00000000000006L512.4347855555555,84.00000000000006L513.0662044444445,84.00000000000006L513.8805577777778,94.49998998641973L514.6949111111112,104.99997997283941L515.0725822222223,84.00000000000006L516.8606188888889,94.49998998641973L517.9936322222222,94.49998998641973L519.2682722222223,104.99997997283941L519.2859755555556,84.00000000000006L520.2596588888889,84.00000000000006L521.8706622222222,84.00000000000006L521.9532777777778,94.49998998641973L522.1598166666666,84.00000000000006L522.4371688888889,104.99997997283941L524.0540733333333,94.49998998641973L525.1044711111111,94.49998998641973L525.2638011111111,104.99997997283941L525.2697022222222,84.00000000000006L525.8185055555556,94.49998998641973L528.9637977777778,94.49998998641973L529.1644355555555,84.00000000000006L529.4122822222223,94.49998998641973L530.6279111111111,115.49996995925909L531.1295055555555,84.00000000000006L532.1976066666667,104.99997997283941L532.4454533333334,84.00000000000006L535.3015911111112,94.49998998641973L535.6792622222223,84.00000000000006L537.0896277777778,94.49998998641973L537.266661111111,94.49998998641973L538.0869155555556,84.00000000000006L538.3642677777777,84.00000000000006L538.9425766666667,84.00000000000006L540.6834044444445,84.00000000000006L540.8132288888888,94.49998998641973L541.5862744444444,84.00000000000006L541.9049344444445,115.49996995925909L542.1291766666667,94.49998998641973L542.7074855555555,84.00000000000006L542.7192877777778,84.00000000000006L543.9349166666667,84.00000000000006L544.2594777777778,84.00000000000006L544.3302911111111,84.00000000000006L545.3511833333333,84.00000000000006L545.8704811111111,94.49998998641973L547.6408144444445,104.99997997283941L549.7829177777778,94.49998998641973L549.788818888889,94.49998998641973L549.8183244444444,84.00000000000006L553.4180022222222,94.49998998641973L554.1379377777778,84.00000000000006L554.7457522222222,84.00000000000006L555.099818888889,84.00000000000006L555.8374577777778,94.49998998641973L555.9849855555557,84.00000000000006L558.6640900000001,84.00000000000006L559.5551577777778,94.49998998641973L560.0862577777779,84.00000000000006L560.8770066666667,94.49998998641973L562.32868,94.49998998641973L562.4349,84.00000000000006L565.8752477777778,84.00000000000006L567.5629655555555,84.00000000000006L567.5806688888889,94.49998998641973L567.6219766666667,94.49998998641973L568.5484511111111,84.00000000000006L569.1739688888889,84.00000000000006L569.7994866666667,94.49998998641973L570.5843344444445,84.00000000000006L570.8380822222222,84.00000000000006L572.1422277777777,84.00000000000006L573.0864055555556,84.00000000000006L573.8181433333334,84.00000000000006L574.6206944444444,84.00000000000006L574.8272333333334,94.49998998641973L576.6860833333334,94.49998998641973L577.8899100000001,84.00000000000006L578.9108022222223,84.00000000000006L579.2117588888889,84.00000000000006L580.2031455555556,84.00000000000006L580.4096844444445,94.49998998641973L581.1886311111111,84.00000000000006L582.5458866666667,84.00000000000006L582.8586455555557,84.00000000000006L583.3838444444444,94.49998998641973L584.0388677777778,84.00000000000006L584.150988888889,94.49998998641973L585.053858888889,84.00000000000006L585.5672555555556,84.00000000000006L586.6176533333334,84.00000000000006L589.0548122222222,84.00000000000006L589.7511433333334,94.49998998641973L590.1229133333334,84.00000000000006L590.95497,94.49998998641973L591.863741111111,94.49998998641973L592.3594344444444,94.49998998641973L594.6490655555556,104.99997997283941L594.7493844444444,84.00000000000006L594.9913300000001,84.00000000000006L595.4103088888888,84.00000000000006L596.2777722222222,84.00000000000006L598.1425233333334,84.00000000000006L598.7267333333333,84.00000000000006L599.0158877777778,94.49998998641973L599.8066366666667,84.00000000000006L601.0340677777778,94.49998998641973L601.3645300000001,84.00000000000006L604.6927566666667,84.00000000000006L604.8048777777778,104.99997997283941L605.6251322222223,84.00000000000006L606.03821,84.00000000000006L606.99419,84.00000000000006L607.0177944444446,94.49998998641973L607.8144444444445,84.00000000000006L609.8798333333334,84.00000000000006L610.9892422222223,104.99997997283941L611.2370888888889,84.00000000000006L611.2842977777779,84.00000000000006L611.3197044444445,84.00000000000006L611.5321444444445,84.00000000000006L611.5557488888888,84.00000000000006L612.0160355555556,94.49998998641973L612.4350144444445,84.00000000000006L612.5058277777779,84.00000000000006L612.6297511111112,94.49998998641973L614.051918888889,84.00000000000006L614.0637211111111,84.00000000000006L619.9707333333333,84.00000000000006L620.2952944444445,84.00000000000006L625.8187344444444,84.00000000000006L626.1314933333334,94.49998998641973L626.32623,84.00000000000006L626.6271866666667,84.00000000000006L627.7661011111112,84.00000000000006L627.8782222222222,94.49998998641973L629.2236755555556,84.00000000000006L629.4007088888889,84.00000000000006L630.1324466666666,84.00000000000006L630.1796555555557,94.49998998641973L630.5691288888889,104.99997997283941L632.0857144444444,84.00000000000006L632.4692866666667,84.00000000000006L632.6463200000001,94.49998998641973L635.0834788888889,84.00000000000006L635.2546111111111,84.00000000000006L636.7239877777778,84.00000000000006L636.8774166666667,84.00000000000006L636.8892188888889,84.00000000000006L637.0544500000001,94.49998998641973L640.2292477777778,84.00000000000006L642.1353066666667,94.49998998641973L642.7549233333333,94.49998998641973L643.8938377777778,84.00000000000006L644.4131355555555,84.00000000000006L645.5343466666667,84.00000000000006L645.6877755555555,84.00000000000006L646.0064355555556,84.00000000000006L646.0890511111111,84.00000000000006L646.1008533333334,84.00000000000006L648.0010111111112,94.49998998641973L649.32286,84.00000000000006L651.7718211111111,84.00000000000006L651.9665577777779,84.00000000000006L652.9579444444444,94.49998998641973L653.2352966666667,84.00000000000006L654.9112122222223,84.00000000000006L657.8676688888889,94.49998998641973L658.4754833333334,94.49998998641973L658.876758888889,84.00000000000006L659.5789911111112,84.00000000000006L659.6852111111111,84.00000000000006L660.90084,84.00000000000006L661.06017,84.00000000000006L662.5059422222222,84.00000000000006L662.7242833333333,84.00000000000006L662.8068988888889,84.00000000000006L664.4120011111111,84.00000000000006L665.3738822222223,84.00000000000006L666.2177411111112,84.00000000000006L667.6045022222223,84.00000000000006L668.3657455555557,94.49998998641973L668.4483611111111,84.00000000000006L669.7820122222223,84.00000000000006L669.8351222222223,84.00000000000006L669.9413422222223,94.49998998641973L670.1242766666667,94.49998998641973L670.2186944444445,84.00000000000006L670.6376733333333,84.00000000000006L670.8678166666667,84.00000000000006L672.313588888889,84.00000000000006L672.4375122222223,84.00000000000006L672.5378311111111,84.00000000000006L672.8859966666666,84.00000000000006L673.4938111111112,84.00000000000006L673.9481966666666,84.00000000000006L674.9749899999999,84.00000000000006L675.5296944444445,84.00000000000006L676.5210811111111,84.00000000000006L677.7131055555556,94.49998998641973L678.3268211111111,84.00000000000006L678.7635033333333,84.00000000000006L679.5129444444444,84.00000000000006L683.1067211111111,84.00000000000006L684.3400533333333,84.00000000000006L685.2724288888888,84.00000000000006L685.4789677777778,84.00000000000006L685.8979466666667,84.00000000000006L686.9601466666668,94.49998998641973L688.1757755555556,84.00000000000006L688.7068755555556,94.49998998641973L690.00512,84.00000000000006L690.0228233333333,84.00000000000006L691.1499355555557,84.00000000000006L691.9937944444445,84.00000000000006L692.8789611111112,94.49998998641973L692.973378888889,84.00000000000006L693.0500933333333,84.00000000000006L693.0855,84.00000000000006L693.7051166666668,84.00000000000006L693.8762488888889,84.00000000000006L694.0827877777779,84.00000000000006L695.3810322222223,84.00000000000006L698.0719388888889,84.00000000000006L698.5676322222223,94.49998998641973L700.1019211111111,84.00000000000006L703.9435444444445,84.00000000000006L703.9966544444444,84.00000000000006L705.0824588888889,94.49998998641973L706.2449777777778,84.00000000000006L706.7760777777778,94.49998998641973L707.1655511111111,84.00000000000006L707.2186611111111,84.00000000000006L707.6199366666667,84.00000000000006L712.1991988888889,84.00000000000006L713.8338066666668,84.00000000000006L713.90462,94.49998998641973L716.088031111111,84.00000000000006L716.1588444444444,84.00000000000006L716.3181744444445,84.00000000000006L716.6486366666667,84.00000000000006L717.1738355555556,84.00000000000006L717.99409,84.00000000000006L719.0916966666667,84.00000000000006L719.156608888889,84.00000000000006L719.3985544444446,84.00000000000006L720.7676122222222,84.00000000000006L721.1688877777777,84.00000000000006L721.6999877777779,84.00000000000006L721.9065266666667,84.00000000000006L722.7208800000001,84.00000000000006L723.3759033333334,84.00000000000006L723.8243877777778,84.00000000000006L723.8420911111111,84.00000000000006L724.20796,84.00000000000006L724.3377844444444,84.00000000000006L725.4648966666667,84.00000000000006L725.7717544444445,84.00000000000006L727.3886588888889,84.00000000000006L728.2915288888888,84.00000000000006L728.503968888889,84.00000000000006L728.5865844444445,84.00000000000006L729.4009377777778,84.00000000000006L729.7727077777778,84.00000000000006L730.0441588888889,84.00000000000006L731.3719088888889,84.00000000000006L733.0891322222222,84.00000000000006L733.4136933333334,94.49998998641973L734.3224644444444,84.00000000000006L735.1663233333334,84.00000000000006L736.3937544444444,84.00000000000006L736.9307555555556,84.00000000000006L737.0428766666666,84.00000000000006L737.5208666666667,84.00000000000006L742.6017233333334,84.00000000000006L746.2545111111112,84.00000000000006L747.4465355555556,84.00000000000006L748.3789111111112,84.00000000000006L748.5677466666667,84.00000000000006L750.2613655555556,84.00000000000006L750.9872022222223,94.49998998641973L752.3385566666667,84.00000000000006L752.8047444444445,84.00000000000006L753.7076144444445,84.00000000000006L754.1442966666667,84.00000000000006L755.01176,84.00000000000006L755.1238811111111,84.00000000000006L755.7907066666667,84.00000000000006L758.3753933333334,84.00000000000006L758.5288222222223,84.00000000000006L759.10123,84.00000000000006L760.1752322222222,84.00000000000006L760.6827277777778,84.00000000000006L761.9573677777778,84.00000000000006L762.8484355555556,84.00000000000006L762.972358888889,84.00000000000006L763.0254688888889,94.49998998641973L764.04046,84.00000000000006L766.7372677777778,84.00000000000006L768.2184466666666,84.00000000000006L768.8793711111111,84.00000000000006L769.3219544444445,84.00000000000006L772.4731477777779,84.00000000000006L772.7268955555556,94.49998998641973L773.2048855555555,84.00000000000006L775.0047244444444,84.00000000000006L775.2761755555556,84.00000000000006L777.5008944444445,84.00000000000006L777.7664444444445,84.00000000000006L778.2444344444444,84.00000000000006L778.6516111111112,84.00000000000006L779.1591066666667,84.00000000000006L781.1005722222222,84.00000000000006L781.4782433333334,84.00000000000006L782.3516077777778,84.00000000000006L782.7174766666667,84.00000000000006L783.9154022222222,94.49998998641973L785.2018444444445,84.00000000000006L785.3493722222223,84.00000000000006L788.4415544444445,84.00000000000006L789.2500066666666,84.00000000000006L790.3063055555556,84.00000000000006L790.4066244444444,84.00000000000006L790.7429877777778,84.00000000000006L791.12656,84.00000000000006L792.1415511111111,84.00000000000006L794.6731277777778,84.00000000000006L795.00359,84.00000000000006L795.7235255555555,84.00000000000006L796.1484055555557,94.49998998641973L796.8801433333333,84.00000000000006L797.5882766666667,84.00000000000006L798.93373,84.00000000000006L799.4648300000001,84.00000000000006L800.3558977777778,84.00000000000006L800.9401077777778,84.00000000000006L801.4121966666667,84.00000000000006L802.4212866666667,84.00000000000006L803.1884311111112,84.00000000000006L803.7490366666667,84.00000000000006L803.8080477777778,84.00000000000006L803.9437733333334,84.00000000000006L804.7699288888889,84.00000000000006L805.460358888889,84.00000000000006L806.1979977777779,84.00000000000006L807.4667366666666,84.00000000000006L808.2928922222222,84.00000000000006L809.0659377777778,84.00000000000006L809.1839600000001,84.00000000000006L811.3850744444444,84.00000000000006L811.5030966666667,84.00000000000006L811.62702,84.00000000000006L811.7096355555556,84.00000000000006L812.63611,84.00000000000006L814.7192022222222,84.00000000000006L815.7341933333333,84.00000000000006L815.8109077777779,84.00000000000006L816.7963933333334,84.00000000000006L819.0801233333334,84.00000000000006L819.2335522222222,84.00000000000006L819.5817177777778,84.00000000000006L820.5258955555556,84.00000000000006L821.2163255555556,84.00000000000006L821.2340288888889,84.00000000000006L821.5998977777779,84.00000000000006L821.8654477777778,84.00000000000006L823.4646488888889,84.00000000000006L824.2435955555555,84.00000000000006L825.0874544444445,84.00000000000006L825.5772466666667,84.00000000000006L825.6244555555555,84.00000000000006L825.9962255555556,84.00000000000006L827.2177555555556,84.00000000000006L830.4515644444444,84.00000000000006L831.22461,84.00000000000006L831.6730944444445,84.00000000000006L832.9241300000001,84.00000000000006L832.9654377777779,84.00000000000006L833.2250866666667,84.00000000000006L834.0276377777778,84.00000000000006L834.6472544444445,84.00000000000006L836.6772366666667,84.00000000000006L836.8070611111111,84.00000000000006L837.0195011111111,84.00000000000006L837.3145566666667,84.00000000000006L839.8874411111111,84.00000000000006L840.1529911111111,84.00000000000006L840.194298888889,84.00000000000006L840.3005188888889,84.00000000000006L840.4362444444446,84.00000000000006L840.9024322222223,84.00000000000006L841.2151911111112,84.00000000000006L843.8234822222222,84.00000000000006L844.0654277777778,84.00000000000006L844.13034,84.00000000000006L844.4017911111112,84.00000000000006L844.5965277777777,84.00000000000006L844.6260333333333,84.00000000000006L845.3046611111112,84.00000000000006L845.6292222222222,84.00000000000006L846.5793011111111,84.00000000000006L847.6651055555556,84.00000000000006L848.3909422222223,84.00000000000006L849.1108777777779,84.00000000000006L850.0845611111112,84.00000000000006L850.1081655555556,84.00000000000006L850.8458044444444,84.00000000000006L851.2588822222223,84.00000000000006L851.6011466666666,84.00000000000006L852.2856755555556,84.00000000000006L852.9584022222223,84.00000000000006L853.0233144444444,84.00000000000006L856.6643,84.00000000000006L856.9357511111111,84.00000000000006L857.93894,84.00000000000006L859.7859877777779,84.00000000000006L862.5182022222223,84.00000000000006L862.7365433333334,84.00000000000006L863.0670055555555,84.00000000000006L864.6721077777778,84.00000000000006L864.8609433333334,84.00000000000006L865.0261744444446,84.00000000000006L866.0824733333334,84.00000000000006L867.6934766666667,84.00000000000006L868.40161,84.00000000000006L868.5314344444445,84.00000000000006L868.6317533333333,84.00000000000006L870.4551966666667,84.00000000000006L871.004,84.00000000000006L872.6563111111112,84.00000000000006L873.4352577777778,84.00000000000006L874.0076655555556,84.00000000000006L875.19969,84.00000000000006L877.9260033333334,94.49998998641973L878.4689055555556,84.00000000000006L879.0000055555556,84.00000000000006L880.4811844444445,94.49998998641973L881.0181855555555,84.00000000000006L881.6023955555556,84.00000000000006L881.9269566666668,84.00000000000006L882.3636388888889,84.00000000000006L882.4049466666667,84.00000000000006L883.80351,84.00000000000006L885.6269533333334,84.00000000000006L886.028228888889,84.00000000000006L886.931098888889,84.00000000000006L887.1317366666667,84.00000000000006L887.2969677777778,94.49998998641973L887.6923422222222,84.00000000000006L889.3505544444445,84.00000000000006L889.9052588888889,84.00000000000006L890.4127544444444,84.00000000000006L891.4218444444444,84.00000000000006L891.6814933333334,84.00000000000006L891.7818122222222,84.00000000000006L893.3987166666667,84.00000000000006L894.0360366666667,84.00000000000006L896.0129088888889,84.00000000000006L896.2961622222222,84.00000000000006L896.7387455555556,84.00000000000006L896.8154600000001,84.00000000000006L897.0515044444444,84.00000000000006L898.3143422222222,84.00000000000006L899.5063666666667,84.00000000000006L899.7129055555556,84.00000000000006L900.4977533333333,84.00000000000006L901.9199211111112,84.00000000000006L903.3302866666668,84.00000000000006L904.4101900000001,84.00000000000006L905.4251811111111,84.00000000000006L906.69392,84.00000000000006L907.2191188888889,84.00000000000006L908.5940777777778,84.00000000000006L909.0189577777778,84.00000000000006L910.25229,84.00000000000006L910.8483022222223,84.00000000000006L912.636338888889,84.00000000000006L914.5955077777778,84.00000000000006L915.5514877777779,84.00000000000006L915.7108177777778,84.00000000000006L915.9232577777778,84.00000000000006L915.93506,84.00000000000006L916.8733366666667,84.00000000000006L917.4811511111112,84.00000000000006L918.0299544444445,84.00000000000006L918.1774822222222,84.00000000000006L918.6377688888889,84.00000000000006L918.6731755555555,84.00000000000006L918.7026811111112,84.00000000000006L919.4639244444444,84.00000000000006L922.1253255555556,84.00000000000006L923.3763611111111,84.00000000000006L923.4943833333333,84.00000000000006L926.7813022222223,84.00000000000006L928.3155911111112,84.00000000000006L928.3864044444446,84.00000000000006L929.5666266666667,84.00000000000006L929.9620011111111,84.00000000000006L930.00921,84.00000000000006L930.6701344444446,84.00000000000006L931.9034666666666,84.00000000000006L932.0982033333333,84.00000000000006L934.3465266666667,84.00000000000006L935.4559355555556,84.00000000000006L935.6742766666667,84.00000000000006L935.9988377777778,84.00000000000006L937.2439722222223,84.00000000000006L937.9403033333334,84.00000000000006L938.8844811111112,84.00000000000006L940.3951655555556,84.00000000000006L940.7787377777778,84.00000000000006L940.8672544444445,84.00000000000006L940.8908588888889,84.00000000000006L941.7229155555556,84.00000000000006L943.7410955555556,84.00000000000006L944.1718766666668,84.00000000000006" style="fill: none;" fill="none"></path></g><g><path stroke="rgb(255, 112, 67)" stroke-width="2px" d="M127.464,500.3919568061828L136.90577777777779,356.068727016449L146.34755555555557,299.0221109390259L155.78933333333333,290.2457084655762L165.23111111111112,253.67723965644836L174.6728888888889,236.12443470954895L184.1146666666667,216.13369846343994L193.55644444444445,201.50636100769043L202.99822222222224,197.1181597709656L212.44000000000003,206.86975979804993L221.8817777777778,193.70515608787537L231.32355555555554,184.44109225273135L240.76533333333333,176.152351140976L250.20711111111112,177.12742352485657L259.6488888888889,173.7144198417664L269.0906666666667,182.49082231521606L278.5324444444445,182.00328612327579L287.97422222222224,157.13681244850162L297.41600000000005,162.50008606910706L306.85777777777776,170.30141615867618L316.2995555555555,156.64915108680728L325.74133333333333,151.77341365814212L335.1831111111111,151.28575229644778L344.6248888888889,148.84794616699222L354.06666666666666,149.3354823589325L363.5084444444444,147.87274861335757L372.95022222222224,152.26094985008245L382.392,141.5342774391175L391.83377777777775,145.434817314148L401.27555555555557,149.82301855087283L410.71733333333333,142.99701118469244L420.15911111111114,139.58388233184817L429.6008888888889,144.4597449302674L439.04266666666666,145.9224786758423L448.4844444444445,138.60880994796756L457.92622222222224,134.708144903183L467.368,133.7329473495484L476.8097777777778,133.24541115760806L486.25155555555557,138.12114858627322L495.6933333333334,134.2206087112427L505.13511111111114,131.7826774120331L514.5768888888889,130.8074798583985L524.0186666666667,138.60880994796756L533.4604444444445,130.31994366645816L542.9022222222222,128.36967372894293L552.344,130.31994366645816L561.7857777777778,130.8074798583985L571.2275555555556,135.19568109512332L580.6693333333333,129.34474611282351L590.1111111111112,127.39447617530826L599.5528888888889,131.29514122009283L608.9946666666667,126.90693998336798L618.4364444444444,127.39447617530826L627.8782222222222,133.7329473495484L637.32,126.41927862167361L646.7617777777779,126.90693998336798L656.2035555555556,125.444206237793L665.6453333333334,126.90693998336798L675.0871111111111,126.41927862167361L684.528888888889,125.444206237793L693.9706666666667,124.95654487609866L703.4124444444445,123.98147249221805L712.8542222222222,125.444206237793L722.296,123.98147249221805L731.7377777777778,126.90693998336798L741.1795555555557,124.46900868415838L750.6213333333334,122.03107738494876L760.0631111111111,123.49381113052371L769.5048888888889,120.56834363937384L778.9466666666666,121.05600500106817L788.3884444444445,124.95654487609866L797.8302222222222,126.41927862167361L807.272,123.00627493858343L816.7137777777778,125.444206237793L826.1555555555556,122.03107738494876L835.5973333333334,126.90693998336798L845.0391111111112,121.05600500106817L854.4808888888889,120.56834363937384L863.9226666666667,120.56834363937384L873.3644444444444,120.08080744743347L882.8062222222222,120.08080744743347L892.248,122.5187387466431L901.6897777777779,122.03107738494876L911.1315555555556,122.03107738494876L920.5733333333334,122.03107738494876L930.0151111111111,121.54354119300848L939.456888888889,121.05600500106817" style="fill: none;" fill="none"></path></g></g></g></g></g></g><g transform="translate(50, 378)" clip-path="url(#clip_1)"><clipPath id="clip_1"><rect width="1062" height="22"></rect></clipPath><g><g><line x1="0" y1="0" x2="0" y2="5" style="visibility: inherit;" fill="rgb(0, 0, 0)" stroke="rgb(204, 204, 204)" stroke-width="1px"></line><line x1="118.02222222222223" y1="0" x2="118.02222222222223" y2="5" style="visibility: inherit;" fill="rgb(0, 0, 0)" stroke="rgb(204, 204, 204)" stroke-width="1px"></line><line x1="236.04444444444445" y1="0" x2="236.04444444444445" y2="5" style="visibility: inherit;" fill="rgb(0, 0, 0)" stroke="rgb(204, 204, 204)" stroke-width="1px"></line><line x1="354.06666666666666" y1="0" x2="354.06666666666666" y2="5" style="visibility: inherit;" fill="rgb(0, 0, 0)" stroke="rgb(204, 204, 204)" stroke-width="1px"></line><line x1="472.0888888888889" y1="0" x2="472.0888888888889" y2="5" style="visibility: inherit;" fill="rgb(0, 0, 0)" stroke="rgb(204, 204, 204)" stroke-width="1px"></line><line x1="590.1111111111112" y1="0" x2="590.1111111111112" y2="5" style="visibility: inherit;" fill="rgb(0, 0, 0)" stroke="rgb(204, 204, 204)" stroke-width="1px"></line><line x1="708.1333333333333" y1="0" x2="708.1333333333333" y2="5" style="visibility: inherit;" fill="rgb(0, 0, 0)" stroke="rgb(204, 204, 204)" stroke-width="1px"></line><line x1="826.1555555555556" y1="0" x2="826.1555555555556" y2="5" style="visibility: inherit;" fill="rgb(0, 0, 0)" stroke="rgb(204, 204, 204)" stroke-width="1px"></line><line x1="944.1777777777778" y1="0" x2="944.1777777777778" y2="5" style="visibility: inherit;" fill="rgb(0, 0, 0)" stroke="rgb(204, 204, 204)" stroke-width="1px"></line><line x1="1062.2" y1="0" x2="1062.2" y2="5" style="visibility: inherit;" fill="rgb(0, 0, 0)" stroke="rgb(204, 204, 204)" stroke-width="1px"></line></g><g transform="translate(0, 8)"><text x="0" y="0" dx="0em" dy="0.95em" style="text-anchor: middle; visibility: hidden; font-family: &quot;Helvetica Neue&quot;, sans-serif; font-size: 12px; font-weight: 200;" fill="rgb(50, 49, 63)" stroke="none" stroke-width="1px">-20k</text><text x="118.02222222222223" y="0" dx="0em" dy="0.95em" style="text-anchor: middle; visibility: inherit; font-family: &quot;Helvetica Neue&quot;, sans-serif; font-size: 12px; font-weight: 200;" fill="rgb(50, 49, 63)" stroke="none" stroke-width="1px">0</text><text x="236.04444444444445" y="0" dx="0em" dy="0.95em" style="text-anchor: middle; visibility: inherit; font-family: &quot;Helvetica Neue&quot;, sans-serif; font-size: 12px; font-weight: 200;" fill="rgb(50, 49, 63)" stroke="none" stroke-width="1px">20k</text><text x="354.06666666666666" y="0" dx="0em" dy="0.95em" style="text-anchor: middle; visibility: inherit; font-family: &quot;Helvetica Neue&quot;, sans-serif; font-size: 12px; font-weight: 200;" fill="rgb(50, 49, 63)" stroke="none" stroke-width="1px">40k</text><text x="472.0888888888889" y="0" dx="0em" dy="0.95em" style="text-anchor: middle; visibility: inherit; font-family: &quot;Helvetica Neue&quot;, sans-serif; font-size: 12px; font-weight: 200;" fill="rgb(50, 49, 63)" stroke="none" stroke-width="1px">60k</text><text x="590.1111111111112" y="0" dx="0em" dy="0.95em" style="text-anchor: middle; visibility: inherit; font-family: &quot;Helvetica Neue&quot;, sans-serif; font-size: 12px; font-weight: 200;" fill="rgb(50, 49, 63)" stroke="none" stroke-width="1px">80k</text><text x="708.1333333333333" y="0" dx="0em" dy="0.95em" style="text-anchor: middle; visibility: inherit; font-family: &quot;Helvetica Neue&quot;, sans-serif; font-size: 12px; font-weight: 200;" fill="rgb(50, 49, 63)" stroke="none" stroke-width="1px">100k</text><text x="826.1555555555556" y="0" dx="0em" dy="0.95em" style="text-anchor: middle; visibility: inherit; font-family: &quot;Helvetica Neue&quot;, sans-serif; font-size: 12px; font-weight: 200;" fill="rgb(50, 49, 63)" stroke="none" stroke-width="1px">120k</text><text x="944.1777777777778" y="0" dx="0em" dy="0.95em" style="text-anchor: middle; visibility: inherit; font-family: &quot;Helvetica Neue&quot;, sans-serif; font-size: 12px; font-weight: 200;" fill="rgb(50, 49, 63)" stroke="none" stroke-width="1px">140k</text><text x="1062.2" y="0" dx="0em" dy="0.95em" style="text-anchor: middle; visibility: hidden; font-family: &quot;Helvetica Neue&quot;, sans-serif; font-size: 12px; font-weight: 200;" fill="rgb(50, 49, 63)" stroke="none" stroke-width="1px">160k</text></g><line x1="0" y1="0" x2="1062.2" y2="0" fill="rgb(0, 0, 0)" stroke="rgb(204, 204, 204)" stroke-width="1px"></line></g></g></g></g></svg>