<svg viewBox="0 0 1112.2000732421875 400" xmlns="http://www.w3.org/2000/svg"><g><g><g><g><g><line x1="60" y1="378" x2="55" y2="378" style="visibility: inherit;" fill="rgb(0, 0, 0)" stroke="rgb(204, 204, 204)" stroke-width="1px"></line><line x1="60" y1="336" x2="55" y2="336" style="visibility: inherit;" fill="rgb(0, 0, 0)" stroke="rgb(204, 204, 204)" stroke-width="1px"></line><line x1="60" y1="294" x2="55" y2="294" style="visibility: inherit;" fill="rgb(0, 0, 0)" stroke="rgb(204, 204, 204)" stroke-width="1px"></line><line x1="60" y1="252" x2="55" y2="252" style="visibility: inherit;" fill="rgb(0, 0, 0)" stroke="rgb(204, 204, 204)" stroke-width="1px"></line><line x1="60" y1="210" x2="55" y2="210" style="visibility: inherit;" fill="rgb(0, 0, 0)" stroke="rgb(204, 204, 204)" stroke-width="1px"></line><line x1="60" y1="168" x2="55" y2="168" style="visibility: inherit;" fill="rgb(0, 0, 0)" stroke="rgb(204, 204, 204)" stroke-width="1px"></line><line x1="60" y1="126" x2="55" y2="126" style="visibility: inherit;" fill="rgb(0, 0, 0)" stroke="rgb(204, 204, 204)" stroke-width="1px"></line><line x1="60" y1="84.00000000000006" x2="55" y2="84.00000000000006" style="visibility: inherit;" fill="rgb(0, 0, 0)" stroke="rgb(204, 204, 204)" stroke-width="1px"></line><line x1="60" y1="42" x2="55" y2="42" style="visibility: inherit;" fill="rgb(0, 0, 0)" stroke="rgb(204, 204, 204)" stroke-width="1px"></line><line x1="60" y1="0" x2="55" y2="0" style="visibility: inherit;" fill="rgb(0, 0, 0)" stroke="rgb(204, 204, 204)" stroke-width="1px"></line></g><g transform="translate(50, 0)"><text x="0" y="378" dx="0em" dy="0.3em" style="text-anchor: end; visibility: hidden; font-family: &quot;Helvetica Neue&quot;, sans-serif; font-size: 12px; font-weight: 200;" fill="rgb(50, 49, 63)" stroke="none" stroke-width="1px">-0.05</text><text x="0" y="336" dx="0em" dy="0.3em" style="text-anchor: end; visibility: inherit; font-family: &quot;Helvetica Neue&quot;, sans-serif; font-size: 12px; font-weight: 200;" fill="rgb(50, 49, 63)" stroke="none" stroke-width="1px">0</text><text x="0" y="294" dx="0em" dy="0.3em" style="text-anchor: end; visibility: inherit; font-family: &quot;Helvetica Neue&quot;, sans-serif; font-size: 12px; font-weight: 200;" fill="rgb(50, 49, 63)" stroke="none" stroke-width="1px">0.05</text><text x="0" y="252" dx="0em" dy="0.3em" style="text-anchor: end; visibility: inherit; font-family: &quot;Helvetica Neue&quot;, sans-serif; font-size: 12px; font-weight: 200;" fill="rgb(50, 49, 63)" stroke="none" stroke-width="1px">0.1</text><text x="0" y="210" dx="0em" dy="0.3em" style="text-anchor: end; visibility: inherit; font-family: &quot;Helvetica Neue&quot;, sans-serif; font-size: 12px; font-weight: 200;" fill="rgb(50, 49, 63)" stroke="none" stroke-width="1px">0.15</text><text x="0" y="168" dx="0em" dy="0.3em" style="text-anchor: end; visibility: inherit; font-family: &quot;Helvetica Neue&quot;, sans-serif; font-size: 12px; font-weight: 200;" fill="rgb(50, 49, 63)" stroke="none" stroke-width="1px">0.2</text><text x="0" y="126" dx="0em" dy="0.3em" style="text-anchor: end; visibility: inherit; font-family: &quot;Helvetica Neue&quot;, sans-serif; font-size: 12px; font-weight: 200;" fill="rgb(50, 49, 63)" stroke="none" stroke-width="1px">0.25</text><text x="0" y="84.00000000000006" dx="0em" dy="0.3em" style="text-anchor: end; visibility: inherit; font-family: &quot;Helvetica Neue&quot;, sans-serif; font-size: 12px; font-weight: 200;" fill="rgb(50, 49, 63)" stroke="none" stroke-width="1px">0.3</text><text x="0" y="42" dx="0em" dy="0.3em" style="text-anchor: end; visibility: inherit; font-family: &quot;Helvetica Neue&quot;, sans-serif; font-size: 12px; font-weight: 200;" fill="rgb(50, 49, 63)" stroke="none" stroke-width="1px">0.35</text><text x="0" y="0" dx="0em" dy="0.3em" style="text-anchor: end; visibility: hidden; font-family: &quot;Helvetica Neue&quot;, sans-serif; font-size: 12px; font-weight: 200;" fill="rgb(50, 49, 63)" stroke="none" stroke-width="1px">0.4</text></g><line x1="60" y1="0" x2="60" y2="378" fill="rgb(0, 0, 0)" stroke="rgb(204, 204, 204)" stroke-width="1px"></line></g></g><g transform="translate(60, 0)" clip-path="url(#clip_0)"><clipPath id="clip_0"><rect width="1052" height="378"></rect></clipPath><g><g><g><line x1="0" y1="0" x2="0" y2="378" fill="rgb(0, 0, 0)" stroke="rgb(60, 60, 60)" stroke-width="1px" opacity="0.25"></line><line x1="116.91111111111111" y1="0" x2="116.91111111111111" y2="378" fill="rgb(0, 0, 0)" stroke="rgb(60, 60, 60)" stroke-width="1px" opacity="0.25"></line><line x1="233.82222222222222" y1="0" x2="233.82222222222222" y2="378" fill="rgb(0, 0, 0)" stroke="rgb(60, 60, 60)" stroke-width="1px" opacity="0.25"></line><line x1="350.73333333333335" y1="0" x2="350.73333333333335" y2="378" fill="rgb(0, 0, 0)" stroke="rgb(60, 60, 60)" stroke-width="1px" opacity="0.25"></line><line x1="467.64444444444445" y1="0" x2="467.64444444444445" y2="378" fill="rgb(0, 0, 0)" stroke="rgb(60, 60, 60)" stroke-width="1px" opacity="0.25"></line><line x1="584.5555555555557" y1="0" x2="584.5555555555557" y2="378" fill="rgb(0, 0, 0)" stroke="rgb(60, 60, 60)" stroke-width="1px" opacity="0.25"></line><line x1="701.4666666666667" y1="0" x2="701.4666666666667" y2="378" fill="rgb(0, 0, 0)" stroke="rgb(60, 60, 60)" stroke-width="1px" opacity="0.25"></line><line x1="818.3777777777779" y1="0" x2="818.3777777777779" y2="378" fill="rgb(0, 0, 0)" stroke="rgb(60, 60, 60)" stroke-width="1px" opacity="0.25"></line><line x1="935.2888888888889" y1="0" x2="935.2888888888889" y2="378" fill="rgb(0, 0, 0)" stroke="rgb(60, 60, 60)" stroke-width="1px" opacity="0.25"></line><line x1="1052.2" y1="0" x2="1052.2" y2="378" fill="rgb(0, 0, 0)" stroke="rgb(60, 60, 60)" stroke-width="1px" opacity="0.25"></line></g><g><line x1="0" y1="378" x2="1052.2" y2="378" fill="rgb(0, 0, 0)" stroke="rgb(60, 60, 60)" stroke-width="1px" opacity="0.25"></line><line x1="0" y1="336" x2="1052.2" y2="336" fill="rgb(0, 0, 0)" stroke="rgb(60, 60, 60)" stroke-width="1px" opacity="0.25"></line><line x1="0" y1="294" x2="1052.2" y2="294" fill="rgb(0, 0, 0)" stroke="rgb(60, 60, 60)" stroke-width="1px" opacity="0.25"></line><line x1="0" y1="252" x2="1052.2" y2="252" fill="rgb(0, 0, 0)" stroke="rgb(60, 60, 60)" stroke-width="1px" opacity="0.25"></line><line x1="0" y1="210" x2="1052.2" y2="210" fill="rgb(0, 0, 0)" stroke="rgb(60, 60, 60)" stroke-width="1px" opacity="0.25"></line><line x1="0" y1="168" x2="1052.2" y2="168" fill="rgb(0, 0, 0)" stroke="rgb(60, 60, 60)" stroke-width="1px" opacity="0.25"></line><line x1="0" y1="126" x2="1052.2" y2="126" fill="rgb(0, 0, 0)" stroke="rgb(60, 60, 60)" stroke-width="1px" opacity="0.25"></line><line x1="0" y1="84.00000000000006" x2="1052.2" y2="84.00000000000006" fill="rgb(0, 0, 0)" stroke="rgb(60, 60, 60)" stroke-width="1px" opacity="0.25"></line><line x1="0" y1="42" x2="1052.2" y2="42" fill="rgb(0, 0, 0)" stroke="rgb(60, 60, 60)" stroke-width="1px" opacity="0.25"></line><line x1="0" y1="0" x2="1052.2" y2="0" fill="rgb(0, 0, 0)" stroke="rgb(60, 60, 60)" stroke-width="1px" opacity="0.25"></line></g></g></g><g><g><line x1="0" y1="336" x2="1052.2" y2="336" fill="rgb(0, 0, 0)" stroke="rgb(153, 153, 153)" stroke-width="1.5px"></line></g></g><g><g><line x1="116.91111111111111" y1="0" x2="116.91111111111111" y2="378" fill="rgb(0, 0, 0)" stroke="rgb(153, 153, 153)" stroke-width="1.5px"></line></g></g><g><g><g><g><g><path stroke="rgb(0, 119, 187)" stroke-width="2px" d="M138.79687111111113,-29.474220941967417L138.84363555555555,4.363874395118614L138.93716444444445,10.6015462764517L139.39896333333334,-11.580689836711656L140.28748777777778,20.231984150853407L140.41024444444446,17.885781349525416L144.0344888888889,24.646305218244436L146.44870333333333,15.178157564065998L148.79861666666667,50.11830580366865L149.62284,60.395235876930485L150.65750333333332,77.13940325153408L153.18278333333336,105.65124378796276L153.93101444444446,110.2074600521845L155.06505222222222,105.3229371108821L157.09930555555556,117.46761089380078L157.88261,129.92112391714687L158.89973666666666,147.18150870542422L159.16863222222224,162.41992243668105L159.87009888888892,153.9675397465273L162.03295444444444,144.67907806124668L162.62335555555558,156.98357909171563L164.94988666666669,152.26136507666462L165.76826444444444,137.2157284609117L165.95532222222224,129.81336124101287L165.99624111111112,150.7371548640709L166.51065,142.383531279911L168.99501111111113,147.223792170379L170.48562777777778,154.45492379572548L171.76580444444446,153.43379133223965L171.78918666666667,168.6432309153822L172.57833666666667,177.09061985719978L172.68940222222224,170.65223179667075L173.2213477777778,168.91690307996356L173.30318555555556,172.9214306070986L174.40215,156.07048912505604L174.41968666666668,171.95991910736564L175.08023444444447,179.48102595026475L175.78754666666669,182.5709364870981L176.61761555555557,180.2023020048471L177.27816333333337,194.7907187373561L177.35415555555554,183.3059019742871L177.5821322222222,181.00180693136178L178.65186888888888,187.55170446699162L178.8330811111111,199.68026526608247L179.35333555555556,184.80642189919288L180.08403,185.53730313651786L180.27693333333335,197.86677849156067L180.35292555555557,183.3038023947858L180.82641555555557,192.68521557013383L181.11284777777777,170.942798086658L181.22391333333334,180.44897397193347L181.32328777777778,180.31456099017763L181.62725666666668,184.02219244910302L182.47486222222224,174.56087398038156L182.61515555555556,178.9780216415466L182.67361111111111,188.31463582639174L183.6790466666667,188.1746438802872L185.4268677777778,185.96060732654794L187.5955688888889,173.8285479275706L187.64817888888888,168.77901134473564L188.70622444444444,172.21244464912692L188.71207,188.55159312771278L188.84067222222222,190.2396493162481L189.45445555555557,184.6103802613873L189.97471,176.70878773671933L190.0507022222222,164.3860694191631L190.54757444444445,201.22019895710235L190.62941222222224,207.44111726563824L192.88579666666666,205.47488665746474L193.53465333333335,202.03755519858603L193.94384222222223,217.27531783503198L194.70376444444446,213.32152090814662L194.76221999999999,186.8280751513055L196.75555444444444,198.50564020623992L197.3284188888889,197.47200787098117L198.23448000000002,205.06415610608133L199.63156777777778,209.7768775572943L200.26873333333333,190.11565807526605L200.68961333333334,197.04155076490525L201.60152,189.35803578636376L201.6424388888889,195.3510455407535L201.70089444444446,202.92378273411907L201.9405622222222,221.2541306552101L202.4608166666667,215.8104211899365L203.24996666666667,226.92363032950095L203.59485444444445,222.10581412301804L204.17941000000002,224.77653853023514L204.20279222222223,231.43882571372853L204.76396555555556,215.17516822353312L205.20238222222224,223.90399719434896L205.54142444444443,226.3355784965222L205.58234333333334,229.0954576816691L205.65833555555557,220.17918728080298L206.05583333333334,233.64253793126284L206.37149333333335,231.29792902250304L206.38903,224.92482202159064L207.48799444444447,228.79338306522945L207.52891333333335,230.1771617586332L208.3122177777778,233.83754216201498L208.45835666666667,237.8635432819882L209.44625555555558,211.6029072567165L209.74437888888892,190.33246204306124L211.0070188888889,202.3419209890969L211.70848555555557,196.80495774300985L213.63751888888888,202.81643834591262L214.16946444444446,212.56771872926709L215.09306222222224,224.20125130745876L215.46717777777778,230.09061092254768L218.84590888888889,236.06372657835922L218.99204777777777,211.8553391735184L219.54153000000002,226.77381220937235L219.57660333333334,228.0686383672995L219.6233677777778,237.31136848483763L220.31898888888892,223.9922782728614L220.83339777777778,210.06910956112975L222.21879444444446,214.69303045709373L222.56368222222224,231.61816748359192L223.98415222222224,216.07156834162416L225.60921666666667,224.4765576595081L230.18628666666666,229.99635878387244L230.63639444444445,237.1457015133453L230.94036333333335,243.13494507330992L230.95205444444446,238.23095477439193L232.2614588888889,230.52832979864604L232.53035444444444,241.26124261463286L232.8109411111111,247.17146541535098L233.16752,250.623635487217L233.23182111111112,245.36216758832396L233.98005222222224,241.7383071411654L235.72787333333335,255.6077009361887L237.28279111111112,246.36636553877133L237.75043555555555,249.74413406479954L238.41098333333335,254.52891399875813L239.91913666666667,259.5718484832246L241.37468,263.9512847543621L243.51415333333333,266.9831498500802L245.96928666666668,274.5616372676113L247.8632466666667,271.10219827004266L247.94508444444443,271.77521907567626L248.00354000000002,273.42132117788077L248.69331555555559,264.29462204122956L248.74592555555557,263.58968298181907L249.60522222222224,252.49610184590634L249.81566222222224,249.03074161977224L250.02610222222225,258.06272589867876L251.03738333333337,258.0890164944035L254.6090177777778,270.9730563743913L255.28710222222222,273.2244846532443L257.0290777777778,271.197738785524L258.29171777777776,261.83584449980344L258.75351666666666,254.485951571807L260.33181666666667,247.74541201728368L260.5539477777778,259.342533413408L260.62994000000003,259.3259499870414L262.0913288888889,267.2652977511276L262.84540555555554,270.61201715460794L266.0955344444444,274.0578422433757L267.33479222222223,269.5576163341752L269.25798000000003,260.8701901063513L270.94734555555556,252.0805492162757L271.5611288888889,252.63085360046978L274.27931222222225,252.3639126868199L274.9632422222222,255.91001999950606L275.09769,256.2285181956438L275.6997822222222,259.89565160583237L278.48226666666665,270.94879320453117L278.9557566666667,272.8804593863333L282.5916922222222,281.5508422340574L283.9420155555556,276.5634910125416L285.3917133333333,283.4326117593737L286.2042455555556,281.4503354973162L287.80592777777775,285.89548474308367L288.71783444444446,277.3501575826318L289.19132444444443,282.78570751480237L289.61220444444444,280.59984524284096L291.37171666666666,274.90174024377006L292.25439555555556,285.8780155863L292.3128511111111,277.94699129906184L293.2832133333333,271.72939302869605L293.6807111111111,271.07417329417456L293.8911511111111,279.5281927965133L294.10159111111113,278.9160704108467L294.9024322222222,283.95507256746384L294.95504222222223,282.4285572775275L295.91371333333336,285.9617496746777L297.3049555555556,290.6427566621643L299.0118577777778,290.1671646183756L299.3158266666667,182.18175237589006L299.42689222222225,214.8562780426288L299.92376444444443,234.05006226772508L300.04067555555554,255.53840700000526L302.03985555555556,260.84308751397816L303.31418666666667,262.83710363358523L303.8169044444445,253.60654506825233L305.8336211111111,258.5303335710362L306.0791344444445,265.05905291153516L308.09000555555554,272.15247950870145L310.0716488888889,268.27567820667605L310.4048455555556,272.8361416187591L310.55683000000005,284.7788834673332L310.7906522222222,295.43531382545325L311.68502222222224,281.58049366884177L311.8077788888889,280.45741740080246L312.49755444444446,281.1371996366499L313.5263722222223,286.7523610702945L315.1455911111111,290.10519235316815L315.7944477777778,282.78710723148015L317.08047000000005,288.9249485873416L317.5948788888889,291.18368664447706L317.71179,284.8538823194303L318.6879977777778,289.0690057008685L319.85126333333335,289.01119263908754L322.4583811111111,297.70516463450946L322.7155855555556,289.70585663378586L323.2183033333333,294.8704843381661L323.31767777777776,286.0875421730562L323.56903666666665,292.04650037885847L323.65672,296.06959608466786L323.9314611111111,288.10408571104745L325.18825555555554,292.87250442880816L325.3285488888889,292.2472001457211L325.4162322222222,292.0826862920556L326.9243855555556,289.36080646721695L328.23963555555554,287.47737820265957L328.2805544444445,288.2202322479479L329.4379744444445,283.6789246284948L329.4672022222223,289.49951438958317L329.67764222222223,289.68925169785723L330.54863,284.115016178686L331.7235866666667,285.0099792879131L332.0100188888889,280.3815830599938L332.8225511111111,292.78285766575436L333.2609677777778,291.89340890116137L334.24302111111115,294.536241995712L334.47099777777777,300.4253716946382L337.7620455555556,302.04331693574926L338.1127788888889,301.57196779623945L339.4689477777778,301.2617488663583L339.7729166666667,301.4665677002207L340.9069544444444,299.69308027982805L342.32742444444443,303.61608641845885L342.4852544444444,301.914506824319L343.9407977777778,305.8984448410287L346.5829888888889,301.8881110251781L346.78173777777783,296.1795639698465L347.06817,295.4959278335754L347.5533511111111,294.2277876134277L347.6585711111111,291.0705856397778L348.0736055555556,282.30956523425925L348.5470955555556,289.5068375006641L349.5116122222222,288.2726706018083L349.52914888888887,297.3559394163064L350.0786311111111,304.30375563720594L350.08447666666666,305.7354420844078L351.7913788888889,233.26638960945883L352.6156022222222,253.05303543323714L352.6682122222222,266.8818818944311L354.4978711111111,277.91232976520905L355.48577,289.7672035847361L355.6611366666667,297.4503106058534L356.56135222222224,293.9667087112486L356.59058,294.50181899111277L356.83609333333334,296.78804014372525L358.38516555555555,295.09050067660917L358.9229566666667,297.26112605508234L359.61857777777783,295.16348126884884L360.11545,295.87252398522253L362.71672222222224,300.74570157363166L364.33594111111114,303.9034612334733L365.14847333333336,306.4497491844157L365.53428,303.928363070091L366.2006733333333,305.04118235841304L368.29338222222225,304.434898136511L368.98315777777776,298.8049733713131L369.26959,302.884934099136L369.40988333333337,307.83110465424016L371.0817122222222,305.52403455001524L371.1401677777778,300.9163435848653L371.4499822222223,301.76436276072803L371.7481055555556,304.55062966780673L371.88839888888896,305.1997477174642L371.9643911111111,300.40915675272583L372.92306222222226,303.50211781470887L372.9756722222223,303.89422345085706L373.02828222222223,305.1331467051506L373.6186833333333,303.52433887922217L373.9811077777778,307.9139896131208L374.2266211111111,302.33047045861275L374.32599555555555,296.29535133661614L374.8930144444445,290.0726193553763L375.15606444444444,290.2741377542741L376.40116777777774,292.7989075334498L376.47716,299.1123962413708L377.4650588888889,302.7201388833675L378.16068,305.1626262869176L378.6633977777778,309.4220013249306L380.1189411111111,302.6357178832383L381.59202111111114,305.46699046745897L381.87260777777783,290.80936752394035L382.46300888888885,299.29231950751387L382.7611322222222,300.3518686300174L383.88932444444447,306.67836858556007L383.89517,301.3755110276565L388.1156611111111,306.8739751968056L388.63007000000005,303.80865431851123L389.4952122222223,308.19153773065784L391.3833266666667,311.17433843298653L392.37122555555555,307.6525846925768L392.4822911111111,311.0951800012584L393.04931,315.06669883344205L395.31154,316.3654891392213L399.9646022222222,314.52933340806027L401.09864,312.2875015809843L401.34415333333334,305.7315522330285L401.4786011111112,305.1579502248149L401.5779755555556,306.1694886192423L402.2735966666667,307.5831883770845L403.7642133333333,303.5457753591373L404.0857188888889,306.31142151583356L404.2727766666667,307.7191324671088L404.9976255555556,309.20742543881096L405.43019666666663,308.6827050209023L405.9679877777778,308.84294035779686L406.32456666666667,306.29744069500674L406.6343811111111,310.2200085266361L407.7158088888889,309.6028176873613L408.08407888888894,307.6282874769034L408.56926,311.8125725968217L408.89661111111116,311.585803011396L409.3642555555556,309.4437367518618L409.7383711111111,307.237696166358L409.99557555555555,310.56684798629976L410.00142111111114,311.1135083247248L410.1241777777778,312.3810153418369L410.2820077777778,311.35253259296115L412.4448633333334,311.0832081560594L413.0820288888889,310.82250911065023L413.3684611111111,311.04351812366195L413.67827555555556,308.60517621520967L415.35010444444447,310.32675062924295L415.4144055555556,313.50550533156263L416.7647288888889,316.1862965215L416.9927055555556,314.78080439741666L417.13884444444443,317.18818574063727L418.69960777777777,313.2544804043931L419.2315533333333,310.26482152655774L420.35974555555555,305.87680553741626L423.6566388888889,312.1270259174545L423.9196888888889,312.6982742675194L425.93056,309.85799614183753L426.8015477777778,306.1723222505498L427.13474444444444,305.6118486261168L428.48506777777783,310.1357574585477L428.87672000000003,302.3605102960223L429.2216077777778,307.2673590559547L429.81785444444444,301.5534840754476L430.5310122222222,306.9156638316491L430.81744444444445,309.4949842551726L431.35523555555557,305.5022278459195L431.3903088888889,308.8118574993864L431.45461000000006,305.34400845634445L432.4892733333333,312.23865507690766L432.82247,306.3574547735051L433.5356277777778,308.57278837404687L434.44168888888896,310.0970970431469L435.19576555555557,311.32899137144057L437.2475555555556,312.8355288369794L437.94902222222225,311.5046646306588L438.0483966666667,311.9445476484767L438.60957,301.47062420946395L441.29268,305.79712130106253L441.82462555555554,308.9027837345546L442.97035444444447,310.89521842792294L444.68310222222226,314.14165564672976L444.9695344444445,314.17410050160265L445.2676577777778,316.59834428546804L446.15033666666665,316.77443810584276L448.2021266666667,313.5185539385353L448.2722733333333,315.77139110052L448.3190377777778,315.4838141307056L448.93866666666673,317.6675172682926L449.38877444444444,318.5329542314411L450.1428511111111,321.84128568385677L450.9846111111111,319.4017224939514L451.58670333333333,316.067087153048L452.42846333333335,308.0721641451046L453.1942311111111,310.7809765043686L454.28735000000006,308.4187792995665L454.48025333333334,309.74974577113323L454.7959133333334,310.26180547601007L455.56168111111117,285.7545306860239L456.0936266666667,296.8978451488254L456.35667666666666,305.102760135492L457.05229777777777,307.2352803207855L457.5316333333334,312.5550358271837L457.54332444444447,314.08928232052966L459.41390222222225,314.3349400839796L460.4894844444445,313.3419473416193L461.12665,307.512307409879L461.2435611111111,309.7842254909257L462.12624,312.70481375527106L462.19054111111114,313.4317394244013L464.65152,311.0965670031477L464.9028788888889,314.4007259854447L465.3412955555556,317.4195072698745L466.7091555555556,316.3961507942492L467.0891166666667,316.22589403620833L468.40436666666665,317.2477117748743L469.28704555555555,320.2696564185801L469.80730000000005,318.3609249543442L470.67828777777777,318.1433956693228L470.86534555555556,319.10748747441096L473.7062855555556,318.9530257674754L473.8933433333334,315.17055472924477L475.3371955555556,315.9749012787878L478.28920111111114,318.3988467731526L478.45872222222226,319.08585352952616L478.75684555555557,317.2728650640082L479.0023588888889,317.1686153476241L479.2069533333334,317.8403854313645L480.80863555555555,320.02782270070855L480.93723777777785,319.64294157885905L481.1242955555556,320.59124508004896L481.98943777777777,320.4767100799929L482.1414222222222,317.0527040365678L482.69675,317.397419234632L483.5735833333334,317.33402296914346L483.76064111111117,320.4226266408355L484.81284111111114,319.07020046183743L485.48508,319.0595905990853L485.69552000000004,320.4442692855013L486.4671333333333,321.0061294809311L487.03415222222225,321.40249856708897L487.3205844444445,322.642347260225L488.24418222222226,320.18242472316774L490.37781000000007,320.7441726653435L490.78115333333335,322.3988719405579L491.09681333333333,315.4300966643906L491.29556222222226,315.54678307151687L493.6571666666667,313.8398063049234L494.9081155555556,312.99836152813145L495.2763855555556,315.9339373612032L496.4513422222222,318.541187563474L496.49226111111113,316.2521244285033L497.60291666666666,316.7495638314629L497.7139822222222,318.93605234333876L497.7256733333333,317.53609229660947L498.8246377777778,318.137769462503L500.58999555555556,319.64969286951316L500.79459,317.1964636963646L502.75285111111117,317.85092446554154L503.0100555555556,321.2900500756861L504.4012977777778,316.7794118585308L505.3891966666667,318.5837798291155L505.8334588888889,320.1198721124118L506.06728111111113,321.392150374487L506.2484933333334,319.5438443050337L507.24808333333334,321.4933520248452L507.6105077777778,322.2030892527178L508.2359822222223,322.5446149224281L509.0426688888889,321.1324207865075L509.8493555555556,320.13937744873203L510.22347111111117,322.8837055898136L511.99467444444446,321.2578369818696L513.1170211111112,320.4132982972988L514.3796611111112,320.46818241365895L514.3971977777778,321.6392387029396L515.3617144444445,323.05757932367663L516.9575511111111,324.35195501517836L517.0393888888889,324.22546234976835L517.2439833333333,324.85445006665896L517.5187244444444,320.06386377815727L519.1204066666667,321.4655014599834L520.1609155555556,318.52723972096464L520.3187455555556,317.5698928137438L520.3245911111111,320.3568238441525L520.8682277777779,317.95945009629014L523.9839088888889,317.3722010259014L524.1826577777778,320.8861143271126L524.4281711111112,318.40306269122345L525.6323555555556,315.2086136481607L526.1292277777777,317.58618131609023L527.1872733333333,317.98092238480956L527.4327866666666,321.16906933349816L530.2620355555556,321.4481482369848L530.6361511111112,323.5992460580861L532.0332388888888,321.29323796344687L532.2086055555556,320.14876911582274L533.0211377777778,320.51493407703356L533.2958788888889,321.74577454296417L533.8687433333333,321.98538776593176L535.5931822222223,323.0574255606773L535.7217844444444,322.3540715665779L536.4875522222222,322.96648359988L536.8032122222223,319.6629744591484L537.0253433333334,319.227892305566L537.5982077777778,321.21527721830677L537.609898888889,323.7052613577532L538.8140833333333,325.5823214849687L539.135588888889,325.8954079666036L539.2057355555555,326.22860535375935L540.2170166666666,326.43289108649833L540.7314255555556,324.71688055865275L542.4850922222222,322.835926930771L544.6070288888889,322.4073274220629L544.6128744444445,319.5073692588179L544.6421022222222,323.3226353272197L548.2078911111112,323.7644994304331L548.9210488888889,325.1984874612548L549.523141111111,324.93631464082455L549.8738744444445,324.3915275380604L550.6045688888889,324.96478845109556L550.7507077777778,325.9206102433024L553.4045900000001,326.79390689262436L554.2872688888889,325.5430343403264L554.8133688888889,326.04571520932234L555.5966733333333,323.63458023059195L557.03468,321.7670300140406L557.1399,323.58768118906823L560.5478588888889,324.73893046475956L562.2196877777777,323.4903774233533L562.2372244444445,321.3097739921444L562.2781433333333,319.9962593149348L563.1958955555556,322.38544598025334L563.8155244444445,323.3287834731237L564.4351533333333,322.70861111683297L565.2126122222223,323.04736181910755L565.463971111111,324.8157288663373L566.7558388888889,324.28112359822126L567.6911277777779,325.862835538048L568.4159766666667,326.80270779087346L569.2109722222223,325.06563638950246L569.4155666666667,322.2587531696255L571.2569166666667,323.21535197508496L572.4494100000001,325.810571537767L573.4606911111111,326.7814439508601L573.7588144444444,326.8343945718161L574.7408677777778,326.06055840838746L574.9454622222223,325.8112467810736L575.7170755555555,325.99806809489587L577.0615533333333,326.8864118814742L577.3713677777779,327.332370798697L577.8916222222222,327.3284213793886L578.5404788888889,327.4084170897849L578.6515444444445,325.72549354917726L579.5459144444445,327.8419105253639L580.0544777777778,326.7569630483749L581.0949866666667,327.5561994423827L583.5092011111111,326.967371859941L584.1989766666667,324.01471762927133L584.5672466666667,324.3624632925913L585.39147,324.02198233078L586.2916855555555,324.21045609379644L586.7827122222222,324.3880364992606L589.0507877777778,321.9977044167937L589.1501622222222,323.71758981347205L589.3898300000001,325.33496856695194L589.8048644444444,327.2748400125329L590.6641611111111,327.38348801460523L592.5113566666668,328.33641175650644L593.0900666666666,328.702295514848L593.3764988888889,327.3214746560546L594.1598033333333,326.8965888010514L595.375678888889,324.1890294259228L595.7030300000001,325.8346939456426L598.9999233333334,323.92130728509954L599.110988888889,320.07320049585894L599.9235211111112,321.32831786920383L600.33271,324.3086948138772L601.2796900000001,325.3600126284905L601.3030722222223,323.3989982467342L602.0922222222222,325.3821051607141L604.1381666666667,326.34913021605695L605.2371311111111,324.2322461408904L605.4826444444444,324.94635566501006L605.529408888889,326.91959058821527L605.5644822222223,326.9923230781455L605.7749222222222,328.25836965316716L605.7983044444444,328.8965364424979L606.2542577777779,326.7956458764156L606.6692922222223,328.43259698497855L606.7394388888889,328.4952136037876L606.8621955555556,325.90067730529995L608.2709744444445,326.92654548700176L608.2826655555556,326.96580048969423L614.1340666666667,327.21206661782685L614.4555722222223,327.415248415463L619.9270122222223,327.6330085554874L620.2368266666667,325.7837705905264L620.4297300000001,325.34923201092056L620.7278533333333,326.58551798965686L621.8560455555556,327.1802798309169L621.9671111111112,327.3921095884615L623.2998977777778,328.16080821724177L623.4752644444444,329.3908282823259L624.2001133333333,329.76298025159906L624.2468777777779,328.43014649855877L624.6326844444444,326.0792413698624L626.1349922222223,327.25927305467917L626.5149533333334,327.00896245150426L626.69032,326.75317621231466L629.1045344444444,326.8154016281318L629.2740555555556,325.31132781805655L630.7295988888889,326.37997843493105L630.8815833333334,326.06423988643155L630.8932744444445,326.8126860796508L631.05695,326.9552545131128L634.201858888889,325.7912108908255L636.0899733333334,326.1553833684371L636.7037566666667,325.9658889673899L637.8319488888889,328.2388022690846L638.3463577777778,329.051419424113L639.4570133333334,328.8000302315876L639.6089977777777,329.18978642282286L639.9246577777778,330.1780730135761L640.0064955555556,330.39462700558005L640.0181866666667,330.4694811049103L641.9004555555556,328.9836780536663L643.2098599999999,328.90373147174523L645.6357655555555,327.0719944410039L645.828668888889,327.968955534494L646.8107222222222,325.4576697158919L647.0854633333333,326.02760441760944L648.7456011111111,327.619734050828L651.6742244444445,326.4524196116567L652.2763166666667,325.90667531379825L652.6738144444445,327.4919872712268L653.3694355555556,324.5816158901905L653.4746555555556,326.0181416805997L654.67884,327.9703235884519L654.83667,328.46766316197665L656.2688311111111,329.3891816374376L656.4851166666667,330.41420325892415L656.5669544444444,330.2872295642269L658.1569455555556,328.53537525437923L659.1097711111112,329.8036656740663L659.9456855555557,328.6945236432638L661.3193911111111,329.69459743808306L662.0734677777779,328.7530088327486L662.1553055555556,330.3767481823378L663.4764011111112,330.86254227920733L663.5290111111111,331.1229482133188L663.6342311111111,329.24589814072L663.8154433333334,327.3699158733713L663.9089722222222,327.57198963716024L664.3240066666666,328.4956031818593L664.5519833333334,326.8841782394818L665.9841444444445,327.6775687940958L666.1069011111111,329.3536774554271L666.2062755555556,328.909881154222L666.5511633333333,329.3349406053753L667.1532555555556,328.49681432902645L667.6033633333333,329.35711708668595L668.62049,329.11118377570307L669.1699722222223,329.8720049688593L670.1520255555555,329.30992017977707L671.3328277777778,329.18026378713995L671.9407655555556,329.55237744031064L672.3733366666667,330.7156162045484L673.1157222222222,331.59021978378445L676.6756655555556,329.6461282315458L677.8973866666666,330.7839971852771L678.8209844444444,330.55348234325237L679.025578888889,330.54726296795184L679.4406133333334,331.1560187667752L680.4928133333334,330.1515641888968L681.6969977777778,329.96839053392745L682.2230977777779,328.693440401976L683.5091199999999,329.76602840139105L683.5266566666667,329.1661915233997L684.6431577777778,329.95479195878136L685.4790722222223,329.5981039352356L686.3559055555556,327.6960596338844L686.4494344444445,329.1204855609294L686.5254266666667,330.186936828209L686.5605,329.0225572484285L687.1742833333334,329.8289583437938L687.3438044444445,329.51726267216816L687.548398888889,328.95707318754916L688.8344211111112,327.7268383478087L691.4999944444445,329.2155973752525L691.9910211111112,327.6311180576568L693.5108655555555,329.40413421929014L697.3163222222222,329.2083563887462L697.3689322222223,330.1779872091658L698.4445144444445,327.9352138597031L699.5960888888889,329.8619323537754L700.1221888888889,328.2462950256227L700.5079955555556,326.8698946271262L700.5606055555555,328.66684120122403L700.9581033333334,329.5634685611512L705.4942544444444,330.2226794034809L707.1134733333334,330.22893884691587L707.18362,328.4398451308413L709.3464755555556,329.9509670419189L709.4166222222221,330.1623131089331L709.5744522222222,328.5624957807664L709.9018033333333,328.67713133767256L710.4220577777778,328.99915290637546L711.2345900000001,329.01632570488937L712.3218633333335,329.4574316508264L712.3861644444445,330.23171274434685L712.6258322222224,330.0864166422634L713.9820011111111,329.58408993651136L714.3794988888889,330.4470809697981L714.9055988888889,331.05051753466864L715.1101933333333,331.4574786553057L715.91688,331.4085192515075L716.5657366666668,331.24632609099444L717.009998888889,331.98658725900265L717.0275355555556,331.7695583492314L717.38996,332.0762936589604L717.5185622222223,331.99348601272305L718.6350633333334,331.33002635390295L718.9390322222222,331.3133048682381L720.5407144444445,331.44799766827526L721.4350844444444,331.5500131803744L721.6455244444445,331.9831771739501L721.7273622222223,331.9051325497743L722.534048888889,331.5997960727157L722.9023188888889,331.8351050541723L723.1712144444444,331.82953659635217L724.4864644444444,331.0136957834941L726.1875211111111,331.3366661541751L726.5090266666667,328.9474496927855L727.4092422222222,329.3654198757262L728.2451566666667,328.46471656490974L729.4610322222222,328.37665253282796L729.9929777777778,330.12090348965023L730.1040433333334,330.132109427153L730.5775333333333,330.738564851753L735.6105566666668,330.53257248802623L739.2289555555557,331.3189186261613L740.4097577777777,331.31516008141L741.3333555555556,331.34109809531367L741.5204133333334,331.8201827088145L743.1980877777778,331.7937882679626L743.9170911111112,330.74390054847515L745.2557233333334,331.3816085252672L745.7175222222223,331.5304439622433L746.6118922222223,331.9809813812004L747.0444633333333,331.6783752618244L747.90376,331.9212195524674L748.0148255555556,331.7475910274497L748.6753733333334,331.7592922637406L751.2357266666667,331.2404802664982L751.3877111111112,331.7300366533086L751.95473,331.42473689317546L753.0186211111111,331.4485572290239L753.5213388888889,331.5460337559574L754.7839788888889,330.6683803277159L755.6666577777778,331.1810937192205L755.7894144444444,331.5203056938773L755.8420244444445,330.09309843020395L756.8474600000001,329.43591460665607L759.5188788888889,330.57718202484654L760.9861133333333,330.30905449714214L761.6408155555556,330.06462892030737L762.0792322222222,330.70030845724773L765.2007588888889,330.0797806798944L765.4521177777779,329.76754868626L765.9256077777777,331.0811978977689L767.7085022222223,331.208455483163L767.9773977777778,331.03554169912616L770.1811722222222,331.61391764875424L770.4442222222223,332.05527529785104L770.9177122222222,331.6365516060018L771.3210555555556,332.0233172100796L771.8237733333334,331.2241459000473L773.7469611111112,331.08241530107045L774.1210766666667,331.39569305475914L774.9862188888889,331.6649673390385L775.3486433333334,331.57345776000494L776.5352911111111,330.893090039969L777.8096222222223,331.1979984812242L777.9557611111112,330.0703909483398L781.0188322222223,330.53627372006446L781.8196733333334,330.5939498254219L782.8660277777777,331.66636331603564L782.9654022222222,331.6244195698855L783.2985988888889,331.718909681674L783.6785600000001,332.3850208359721L784.6839955555555,331.84644076139364L787.191738888889,331.3192430154926L787.51909,330.45755754444525L788.2322477777777,331.17324665068764L788.6531277777779,329.2144107164087L789.3779766666667,329.38066398174306L790.0794433333334,330.861460285316L791.41223,330.7485024795545L791.9383300000001,330.3113844403272L792.8210088888889,330.8844213881762L793.399718888889,331.2527848865475L793.8673633333333,331.2869794814222L794.8669533333333,331.3993526000494L795.6268755555557,331.9499571190516L796.1822033333334,331.0937951554273L796.2406588888889,331.6465935477057L796.3751066666667,331.86724196554707L797.1934844444445,332.3273958123355L797.8774144444445,331.7996093385974L798.608108888889,332.32353850072997L799.8649033333334,332.3950997863286L800.6832811111111,332.4226287244054L801.4490488888889,332.85576990434765L801.56596,332.82214671548496L803.7463522222222,332.7342426010612L803.8632633333334,332.6276150001213L803.98602,332.64380542728213L804.0678577777778,332.081208586937L804.9856100000001,332.2749684762912L807.0490911111111,332.2107616517108L808.0545266666667,330.4980023378894L808.130518888889,331.28168018604185L809.1067266666668,331.08101436583564L811.3689566666667,330.97128532007207L811.5209411111111,330.86708881327496L811.8658288888889,331.74580074949847L812.8011177777779,331.4340243422283L813.4850477777778,332.3301758128068L813.5025844444444,332.25903973716373L813.865008888889,332.5390112825944L814.1280588888889,332.2217087240117L815.7122044444444,331.6898564286313L816.4838177777777,331.99020178074426L817.3197322222222,331.7720023587694L817.8049133333334,331.6676280019248L817.8516777777778,331.3679278577989L818.2199477777779,331.1641072337238L819.4299777777778,331.58460686742757L822.6333422222223,331.98536503802933L823.39911,331.78047140655775L823.8433722222222,332.1111538735951L825.08263,332.16875107207215L825.123548888889,332.52137330903145L825.3807533333334,332.31534987044563L826.175748888889,331.9137364869765L826.7895322222222,332.70583603879385L828.8004033333333,332.81350468051215L828.9290055555556,332.3423007801659L829.1394455555555,332.41457244290666L829.4317233333334,332.3982626008176L831.9803855555556,332.58128132346513L832.2434355555556,332.21012138539203L832.2843544444445,332.5405734864032L832.3895744444445,332.9620216061486L832.5240222222224,332.7972593876886L832.9858211111111,332.06734639906256L833.2956355555556,331.7896754334383L835.8793711111111,330.8512739382678L836.1190388888889,330.4087706048566L836.18334,328.9066356512931L836.4522355555556,330.1063459752895L836.6451388888888,330.7376452224103L836.6743666666667,331.85804045376665L837.3466055555556,332.44031239537196L837.6681111111111,332.9573390694437L838.6092455555555,333.19349578620563L839.6848277777779,332.61357917120006L840.4038311111112,332.8684955880241L841.116988888889,333.04385920331737L842.0815055555556,333.3115731296599L842.1048877777778,333.2705374768192L842.8355822222222,333.0762969018032L843.2447711111112,333.20007688650645L843.5838133333333,332.3066090663146L844.2618977777778,332.568388522638L844.9282911111112,331.13966937562674L844.9925922222222,331.72867354682205L848.5993000000001,331.97498200510114L848.8681955555556,332.3649327168752L849.86194,332.390335453266L851.691598888889,332.69201024849974L854.3980911111112,333.0033928752705L854.6143766666668,332.3173579670252L854.9417277777778,332.60700865424667L856.5317188888889,333.12144857481564L856.7187766666667,332.89046513540836L856.8824522222224,333.1107045197091L857.9288066666667,332.4678320747556L859.5246433333333,332.7198292830718L860.2261100000001,333.0300345979438L860.3547122222222,333.11059491092726L860.4540866666666,332.9105660975147L862.2603633333334,332.2344042765476L862.804,332.6501725952183L864.4407555555556,333.012482068503L865.2123688888889,332.7272592398749L865.7793877777779,332.5115531799494L866.96019,332.90641636001357L869.6608366666667,331.9476319348088L870.1986277777778,331.4097310778746L870.7247277777778,331.9821654479322L872.1919622222223,330.7864371527054L872.7239077777778,331.8043586905785L873.3026177777779,332.03243623463965L873.6241233333334,332.0834305782652L874.0566944444445,332.2796798886311L874.0976133333334,332.4594212155026L875.48301,332.20783891181196L877.2892866666667,332.56846550386655L877.6867844444445,331.9493976473071L878.5811544444446,332.27715504781105L878.7799033333334,332.0598408153929L878.9435788888889,331.52927390520495L879.335231111111,331.37583234895L880.9778322222222,331.21301603573147L881.5273144444444,331.68132380036093L882.0300322222222,331.84084750796643L883.0296222222222,332.23940077398214L883.2868266666667,332.35979330734017L883.3862011111112,332.56398392819966L884.9878833333333,333.1172210396187L885.6192033333334,333.36366605816994L887.5774644444444,333.3401055578282L887.8580511111111,333.1592675505486L888.2964677777778,333.5016763828936L888.37246,333.6893016843432L888.6062822222223,333.6897406990102L889.8572311111111,333.5930670981836L891.0380333333334,332.9993229135891L891.2426277777779,332.2535425445898L892.0200866666667,331.97162375729124L893.4288655555556,331.7965516442523L894.8259533333334,331.80988886932755L895.8956900000001,332.05406319952283L896.9011255555556,332.0296136864185L898.1579200000001,332.7696107579036L898.6781744444445,332.11570736317077L900.0401888888889,332.2113405777069L900.4610688888889,332.52510284951086L901.6827900000001,331.8997071358719L902.2731911111111,332.187808957948L904.0443944444445,332.3705194924681L905.9851188888889,332.5575593757717L906.932098888889,332.7142727001212L907.089928888889,332.6253208889732L907.3003688888889,332.1667016035176L907.31206,332.4139886718474L908.2415033333333,331.79684754292754L908.8435955555557,332.6542816678668L909.3872322222222,332.571968138205L909.5333711111111,333.0520513188883L909.9893244444445,333.08808004815194L910.0243977777778,333.1065859144517L910.0536255555556,332.72507400867454L910.8077022222222,332.9918166098888L913.4440477777779,333.10997402555296L914.6833055555556,333.33177184953394L914.8002166666666,333.4609134319092L918.0561911111112,333.89167544722034L919.5760355555557,333.56865428182067L919.6461822222223,332.09281265089646L920.8152933333333,332.5417497404047L921.2069455555555,332.3503488027666L921.2537100000001,332.80024030857817L921.9084122222223,333.4387157026446L923.1301333333333,333.3115112608788L923.3230366666667,333.0240553496179L925.5501933333334,333.0778563087813L926.6491577777779,333.186273004401L926.8654433333334,333.21728506180136L927.186948888889,333.51676782932725L928.4203611111112,333.2089814790184L929.1101366666667,333.5222110298723L930.0454255555557,333.043722913662L931.5418877777779,333.0311850070443L931.9218488888889,332.81151310454766L932.0095322222222,333.21109847012576L932.0329144444445,332.884524541697L932.8571377777779,332.93946802266885L934.8563177777778,333.2836118741942L935.2830433333334,333.0768981724991" style="fill: none;" fill="none"></path></g><g><path stroke="rgb(255, 112, 67)" stroke-width="2px" d="M163.67555555555558,-4.886735640908057L173.02844444444446,48.656863596759706L182.38133333333334,88.2936070525343L191.73422222222223,120.17864578652791L201.08711111111114,143.16278956718727L210.44000000000003,156.32828935280267L219.7928888888889,170.30247936558345L229.14577777777777,182.83458357821067L238.49866666666665,193.6855602504052L247.85155555555556,201.58177827757913L257.20444444444445,207.97776114229728L266.55733333333336,210.50910056666956L275.9102222222223,213.01142829873032L285.26311111111113,220.68416246013084L294.61600000000004,225.22708358160003L303.9688888888889,227.96280335692413L313.32177777777775,232.56221194127258L322.67466666666667,236.51348627793206L332.0275555555555,240.11484650968478L341.38044444444444,244.06810459746066L350.73333333333335,245.2386501401136L360.0862222222222,247.08711895969032L369.4391111111111,247.41897613257868L378.79200000000003,251.21896491141774L388.1448888888889,252.53631641085053L397.4977777777778,252.84835982720034L406.85066666666665,254.70893640087758L416.20355555555557,257.2305709108273L425.5564444444445,258.28932221264665L434.90933333333334,258.669735330996L444.26222222222225,259.6914236191983L453.6151111111111,261.11692834814477L462.968,262.97161572136497L472.32088888888893,264.01925117631237L481.6737777777778,264.76431800227647L491.0266666666667,266.0745165710758L500.3795555555556,267.5448021838248L509.73244444444447,268.1566093652233L519.0853333333333,267.6113358257658L528.4382222222223,268.873364192138L537.7911111111111,270.17030311369615L547.144,270.3729618774732L556.4968888888889,270.04684385159845L565.8497777777778,270.1450788095752L575.2026666666667,270.57108568446347L584.5555555555557,271.4641511948873L593.9084444444444,271.04560534006214L603.2613333333334,271.89288487325683L612.6142222222222,272.48288527292624L621.9671111111112,272.09237715303846L631.32,273.0901071063785L640.6728888888889,273.1256385255377L650.0257777777778,273.92768356475284L659.3786666666667,273.9095605853754L668.7315555555556,274.33206605290206L678.0844444444446,274.5589040418493L687.4373333333333,274.379642103701L696.7902222222223,274.9540590849975L706.1431111111111,274.6796212919525L715.4960000000001,275.7300855768781L724.848888888889,275.4422036773055L734.2017777777779,275.684936471176L743.5546666666667,276.48310908624154L752.9075555555555,275.74119654081824L762.2604444444445,276.4907094611086L771.6133333333333,276.75183685411787L780.9662222222223,276.368285173509L790.319111111111,275.88841228078707L799.672,276.2205917925588L809.0248888888889,275.79488788547576L818.3777777777779,276.1032001518026L827.7306666666667,275.7270276235484L837.0835555555556,276.1324999980296L846.4364444444444,276.61583276999977L855.7893333333334,277.09073975384524L865.1422222222222,277.36975579590097L874.4951111111112,277.9476418840319L883.848,277.5894454145065L893.2008888888889,277.5471756578891L902.5537777777778,276.93811064603153L911.9066666666668,277.16769003719736L921.2595555555556,277.2616798851101L930.6124444444445,277.18300943756867" style="fill: none;" fill="none"></path></g></g></g></g><g opacity="0.2"><g><g><g><path stroke="rgb(0, 119, 187)" stroke-width="2px" d="M136.04946,-47.17070245742798L136.30666444444444,12.823861598968563L136.31251,-13.149413108825627L138.06617666666668,-89.33288240432745L138.79102555555556,60.58142995834356L138.79687111111113,-57.23512673377991L138.84363555555555,72.75478935241699L138.93716444444445,23.20869541168213L139.39896333333334,-56.414013147354126L140.28748777777778,84.52985858917236L140.41024444444446,13.143770456314087L144.0344888888889,38.310301065444946L146.44870333333333,-3.958348274230957L148.79861666666667,120.73746299743652L149.62284,81.16642212867743L150.65750333333332,110.98183250427252L153.18278333333336,163.27788090705874L153.93101444444446,119.41624617576599L155.06505222222222,95.45059418678284L157.09930555555556,142.0137927532196L157.88261,155.09151613712314L158.89973666666666,182.06730043888095L159.16863222222224,193.21901178359985L159.87009888888892,136.884023308754L162.03295444444444,125.9057221412659L162.62335555555558,181.8527970314026L164.94988666666669,142.71707153320315L165.76826444444444,106.80626964569092L165.95532222222224,114.85208129882812L165.99624111111112,193.02723920345306L166.51065,125.49962139129642L168.99501111111113,157.00667595863345L170.48562777777778,169.07011127471927L171.76580444444446,151.3699314594269L171.78918666666667,199.38375985622406L172.57833666666667,194.16404342651367L172.68940222222224,157.63929641246796L173.2213477777778,165.40954685211182L173.30318555555556,181.0151735544205L174.40215,122.01224184036255L174.41968666666668,204.07480931282046L175.08023444444447,194.68229627609256L175.78754666666669,188.8161031007767L176.61761555555557,175.41494107246402L177.27816333333337,224.2760685682297L177.35415555555554,160.0933871269226L177.5821322222222,176.34488976001742L178.65186888888888,200.79001700878146L178.8330811111111,224.1938821077347L179.35333555555556,154.74418258666992L180.08403,187.01452231407166L180.27693333333335,222.78647339344025L180.35292555555557,153.86987185478213L180.82641555555557,211.64644038677216L181.11284777777777,126.99815368652344L181.22391333333334,199.66236269474032L181.32328777777778,180.0428924560547L181.62725666666668,191.5158644914627L182.47486222222224,155.43814873695376L182.61515555555556,187.9057309627533L182.67361111111111,207.18531525135043L183.6790466666667,187.89169943332672L185.4268677777778,181.48571169376373L187.5955688888889,149.30785989761353L187.64817888888888,158.57315039634705L188.70622444444444,179.1519216299057L188.71207,221.57543098926544L188.84067222222222,193.65146076679233L189.45445555555557,173.2327941656113L189.97471,160.73849952220917L190.0507022222222,139.48003149032593L190.54757444444445,275.66742753982544L190.62941222222224,220.01451408863068L192.88579666666666,201.50084352493286L193.53465333333335,195.09019947052002L193.94384222222223,248.0730918645859L194.70376444444446,205.3303120136261L194.76221999999999,133.28089928627014L196.75555444444444,222.1077278852463L197.3284188888889,195.38288390636447L198.23448000000002,220.40901160240176L199.63156777777778,219.30198526382446L200.26873333333333,150.37742292881012L200.68961333333334,211.0398051738739L201.60152,173.82851457595825L201.6424388888889,207.463805437088L201.70089444444446,218.22940564155581L201.9405622222222,258.30247735977173L202.4608166666667,204.8078784942627L203.24996666666667,249.38507115840915L203.59485444444445,212.36829435825348L204.17941000000002,230.17446792125702L204.20279222222223,244.90429437160492L204.76396555555556,182.30390882492065L205.20238222222224,241.54625272750854L205.54142444444443,231.250164270401L205.58234333333334,234.6735820770264L205.65833555555557,202.15808486938477L206.05583333333334,260.8539626598358L206.37149333333335,226.55912733078003L206.38903,212.0438293218613L207.48799444444447,236.61231762170792L207.52891333333335,232.97398334741595L208.3122177777778,241.235712826252L208.45835666666667,246.00068753957748L209.44625555555558,158.52627432346344L209.74437888888892,147.3417434692383L211.0070188888889,226.61481535434723L211.70848555555557,185.61393535137177L213.63751888888888,214.96653056144717L214.16946444444446,232.27649992704394L215.09306222222224,247.7143428325653L215.46717777777778,241.99387854337692L218.84590888888889,248.13627755641937L218.99204777777777,162.92660450935364L219.54153000000002,256.92625468969345L219.57660333333334,230.6856737136841L219.6233677777778,255.99229431152344L220.31898888888892,197.07242524623874L220.83339777777778,181.92832446098328L222.21879444444446,224.03865909576416L222.56368222222224,265.82637494802475L223.98415222222224,184.6495900154114L225.60921666666667,241.46428531408313L230.18628666666666,241.15269398689273L230.63639444444445,251.59558153152466L230.94036333333335,255.24009293317795L230.95205444444446,228.3192644119263L232.2614588888889,214.96018445491794L232.53035444444444,262.95404827594757L232.8109411111111,259.1169006228447L233.16752,257.6009822487831L233.23182111111112,234.727962076664L233.98005222222224,234.41394871473315L235.72787333333335,283.6397989690304L237.28279111111112,227.68825864791873L237.75043555555555,256.5711042881012L238.41098333333335,264.199662566185L239.91913666666667,269.76436561346054L241.37468,272.8027737736702L243.51415333333333,273.11099803447723L245.96928666666668,289.87888222932816L247.8632466666667,264.11015993356705L247.94508444444443,273.1354937553406L248.00354000000002,276.7483372092247L248.69331555555559,245.84821200370789L248.74592555555557,262.1648967862129L249.60522222222224,230.0743321180344L249.81566222222224,242.02673560380939L250.02610222222225,276.31770318746567L251.03738333333337,258.14215368032455L254.6090177777778,297.013608276844L255.28710222222222,277.7749544978142L257.0290777777778,267.1013853549957L258.29171777777776,242.91407024860385L258.75351666666666,239.63072991371155L260.33181666666667,234.12178373336795L260.5539477777778,282.78203254938126L260.62994000000003,259.2924324274063L262.0913288888889,283.31189489364624L262.84540555555554,277.37623250484467L266.0955344444444,281.0223648548126L267.33479222222223,260.46199357509613L269.25798000000003,243.31161564588547L270.94734555555556,234.31538379192352L271.5611288888889,253.74310022592545L274.27931222222225,251.82438558340073L274.9632422222222,263.07722783088684L275.09769,256.87225019931793L275.6997822222222,267.30747109651566L278.48226666666665,293.2888286411762L278.9557566666667,276.7846426963806L282.5916922222222,299.07496950030327L283.9420155555556,266.483315885067L285.3917133333333,297.3161216676235L286.2042455555556,277.44386172294617L287.80592777777775,294.87978941202164L288.71783444444446,260.0787863731384L289.19132444444443,293.7717585861683L289.61220444444444,276.18189400434494L291.37171666666666,263.3850265145302L292.25439555555556,308.06269294023514L292.3128511111111,261.9172171354294L293.2832133333333,259.16270649433136L293.6807111111111,269.74987721443176L293.8911511111111,296.61501771211624L294.10159111111113,277.67888045310974L294.9024322222222,294.1396418809891L294.95504222222223,279.3432438969612L295.91371333333336,293.1028545498848L297.3049555555556,300.10376474261284L299.0118577777778,289.20592269301414L299.3158266666667,-36.07275152206421L299.42689222222225,280.8963314294815L299.92376444444443,272.8435415625572L300.04067555555554,298.9695327579975L302.03985555555556,271.56463211774826L303.31418666666667,266.86730539798737L303.8169044444445,234.95021975040436L305.8336211111111,268.4820390343666L306.0791344444445,278.2545611858368L308.09000555555554,286.4893447458744L310.0716488888889,260.4400888681412L310.4048455555556,282.0535132884979L310.55683000000005,308.9169327020645L310.7906522222222,316.9735371172428L311.68502222222224,253.57785111665726L311.8077788888889,278.1875140070915L312.49755444444446,282.51114016771317L313.5263722222223,298.10143357515335L315.1455911111111,296.8817607164383L315.7944477777778,267.9961738586426L317.08047000000005,301.3304345905781L317.5948788888889,295.7489306330681L317.71179,272.06041073799133L318.6879977777778,297.5883940458298L319.85126333333335,288.89434388279915L322.4583811111111,315.2769690603018L322.7155855555556,273.53807097673416L323.2183033333333,305.30896148085594L323.31767777777776,268.33591586351395L323.56903666666665,304.0904370546341L323.65672,304.2008680701256L323.9314611111111,272.0046100616455L325.18825555555554,302.5101845562458L325.3285488888889,290.98336762189865L325.4162322222222,291.7501794397831L326.9243855555556,283.8594844043255L328.23963555555554,283.67069086432457L328.2805544444445,289.7216502428055L329.4379744444445,274.50026965141296L329.4672022222223,301.2637879550457L329.67764222222223,290.0727388858795L330.54863,272.848661005497L331.7235866666667,286.818832218647L332.0100188888889,271.0269091129303L332.8225511111111,317.84766948223114L333.2609677777778,290.095701277256L334.24302111111115,299.87779891490936L334.47099777777777,312.3281746208668L337.7620455555556,305.31342378258705L338.1127788888889,300.6193014085293L339.4689477777778,300.6347504854202L339.7729166666667,301.88053688406944L340.9069544444444,296.10859966278076L342.32742444444443,311.545062571764L342.4852544444444,298.4753625690937L343.9407977777778,313.9505733400583L346.5829888888889,293.7826327085495L346.78173777777783,284.6417452991009L347.06817,294.11419799923897L347.5533511111111,291.66468849778175L347.6585711111111,284.6894130706787L348.0736055555556,264.6022460460663L348.5470955555556,304.053590208292L349.5116122222222,285.7782365977764L349.52914888888887,315.7145703434944L350.0786311111111,318.34632074832916L350.08447666666666,308.629092335701L351.7913788888889,86.79570651054382L352.6156022222222,293.04477578401566L352.6682122222222,294.8320277631283L354.4978711111111,300.2064978182316L355.48577,313.7276585251093L355.6611366666667,312.97900727391243L356.56135222222224,286.9258335828781L356.59058,295.5833560824394L356.83609333333334,301.40883153676987L358.38516555555555,291.65952211618423L358.9229566666667,301.64828127622604L359.61857777777783,290.9238306283951L360.11545,297.3056042790413L362.71672222222224,310.5951148867607L364.33594111111114,310.28576096892357L365.14847333333336,311.59617407619953L365.53428,298.8322684764862L366.2006733333333,307.29035487771034L368.29338222222225,303.20950797200203L368.98315777777776,287.4260619878769L369.26959,311.13113871216774L369.40988333333337,317.8280475586653L371.0817122222222,300.8611043393612L371.1401677777778,291.6035180389881L371.4499822222223,303.47833505272865L371.7481055555556,310.1820875555277L371.88839888888896,306.51171138882637L371.9643911111111,290.72666323184967L372.92306222222226,309.7534499913454L372.9756722222223,304.6867269873619L373.02828222222223,307.6371940076351L373.6186833333333,300.27270010113716L373.9811077777778,316.78612357378006L374.2266211111111,291.0453516840935L374.32599555555555,284.09748217463493L374.8930144444445,277.49555683135986L375.15606444444444,290.6814362704754L376.40116777777774,297.90184101462364L376.47716,311.8728915452957L377.4650588888889,310.0119208395481L378.16068,310.0992549061775L378.6633977777778,318.03082881867886L380.1189411111111,288.91963443160057L381.59202111111114,311.1894114911556L381.87260777777783,261.1841416954994L382.46300888888885,316.43762125074863L382.7611322222222,302.4933742582798L383.88932444444447,319.4651615470648L383.89517,290.65765088796616L388.1156611111111,317.98718525469303L388.63007000000005,297.61318704485893L389.4952122222223,317.04999393224716L391.3833266666667,317.2030202150345L392.37122555555555,300.5345990359783L392.4822911111111,318.05317474901676L393.04931,323.09372632205486L395.31154,318.9905366152525L399.9646022222222,310.81819085776806L401.09864,307.75642758607864L401.34415333333334,292.48100808262825L401.4786011111112,303.99861565232277L401.5779755555556,308.2139574587345L402.2735966666667,310.4404848664999L403.7642133333333,295.3855659663677L404.0857188888889,311.90120181441307L404.2727766666667,310.56432469189167L404.9976255555556,312.215485855937L405.43019666666663,307.622167378664L405.9679877777778,309.1667996942997L406.32456666666667,301.1526090502739L406.6343811111111,318.14809879660606L407.7158088888889,308.35538363456726L408.08407888888894,303.63746961951256L408.56926,320.2696322500706L408.89661111111116,311.12746810913086L409.3642555555556,305.1143037378788L409.7383711111111,302.7789615690708L409.99557555555555,317.2955566495657L410.00142111111114,312.21838979423046L410.1241777777778,314.9428346604109L410.2820077777778,309.27381670475006L412.4448633333334,310.5388635993004L413.0820288888889,310.29559774696827L413.3684611111111,311.49021005630493L413.67827555555556,303.67692625522614L415.35010444444447,313.80630737543106L415.4144055555556,319.93023915588856L416.7647288888889,321.6045723706484L416.9927055555556,311.94009675085545L417.13884444444443,322.0538598150015L418.69960777777777,305.3038795888424L419.2315533333333,304.2222783565521L420.35974555555555,297.00797563791275L423.6566388888889,324.75964656472206L423.9196888888889,313.8528517484665L425.93056,304.117373585701L426.8015477777778,298.72302970290184L427.13474444444444,304.47904846072197L428.48506777777783,319.2792469114065L428.87672000000003,286.6455847620964L429.2216077777778,317.18482679128647L429.81785444444444,290.00489687919617L430.5310122222222,317.7534229159355L430.81744444444445,314.7081726640463L431.35523555555557,297.43227607011795L431.3903088888889,315.50110897421837L431.45461000000006,298.33497217297554L432.4892733333333,326.1737565547228L432.82247,294.4706783294678L433.5356277777778,313.0503055304289L434.44168888888896,313.1779505163431L435.19576555555557,313.8188321739435L437.2475555555556,315.88046407699585L437.94902222222225,308.81479105353355L438.0483966666667,312.83361634612083L438.60957,280.3012744188309L441.29268,314.54161240160465L441.82462555555554,315.1797872632742L442.97035444444447,314.9222238957882L444.68310222222226,320.7031858563423L444.9695344444445,314.2396763563156L445.2676577777778,321.49809984862804L446.15033666666665,317.1303497850895L448.2021266666667,306.93793004751205L448.2722733333333,320.32470850646496L448.3190377777778,314.90257850289345L448.93866666666673,322.0811045765877L449.38877444444444,320.2821304500103L450.1428511111111,328.52791330218315L450.9846111111111,314.4710041433573L451.58670333333333,309.32729548215866L452.42846333333335,291.91324120759964L453.1942311111111,316.2558872848749L454.28735000000006,303.64442905783653L454.48025333333334,312.43982604146004L454.7959133333334,311.29675394296646L455.56168111111117,236.22170037031174L456.0936266666667,319.420133292675L456.35667666666666,321.68610794842243L457.05229777777777,311.545419305563L457.5316333333334,323.3070492222905L457.54332444444447,317.1902216076851L459.41390222222225,314.83145079016685L460.4894844444445,311.3349620103836L461.12665,295.72974210977554L461.2435611111111,314.37610825896263L462.12624,318.6077549904585L462.19054111111114,314.9009638130665L464.65152,306.376837849617L464.9028788888889,321.0789204239845L465.3412955555556,323.52091113477945L466.7091555555556,314.32779586315155L467.0891166666667,315.8817799240351L468.40436666666665,319.31295669078827L469.28704555555555,326.37745390087366L469.80730000000005,314.5030961036682L470.67828777777777,317.703736782074L470.86534555555556,321.0560597330332L473.7062855555556,318.64083579182625L473.8933433333334,307.5256208181381L475.3371955555556,317.60060472786427L478.28920111111114,323.29799944907427L478.45872222222226,320.4743958860636L478.75684555555557,313.60854698717594L479.0023588888889,316.9579112380743L479.2069533333334,319.1981322169304L480.80863555555555,324.44895724207163L480.93723777777785,318.8650398552418L481.1242955555556,322.5079068392515L481.98943777777777,320.24521788954735L482.1414222222222,310.1322809457779L482.69675,318.0941396802664L483.5735833333334,317.2058897316456L483.76064111111117,326.665151886642L484.81284111111114,316.3367469459772L485.48508,319.0381464958191L485.69552000000004,323.2429098933935L486.4671333333333,322.1417321115732L487.03415222222225,322.20361916720867L487.3205844444445,325.1482650116086L488.24418222222226,315.2105571180582L490.37781000000007,321.87954841554165L490.78115333333335,325.743264131248L491.09681333333333,301.34517019987106L491.29556222222226,315.7826235741377L493.6571666666667,310.3897535651922L494.9081155555556,311.2976770699024L495.2763855555556,321.8671706914902L496.4513422222222,323.810826189816L496.49226111111113,311.6255889683962L497.60291666666666,317.75496250391006L497.7139822222222,323.355269305408L497.7256733333333,314.70656579732895L498.8246377777778,319.3538480848074L500.58999555555556,322.70551389455795L500.79459,312.23812437057495L502.75285111111117,319.17368656396866L503.0100555555556,328.24103204905987L504.4012977777778,307.66274428367615L505.3891966666667,322.2306746095419L505.8334588888889,323.2245420143008L506.06728111111113,323.96361308544874L506.2484933333334,315.80814412236214L507.24808333333334,325.43359572440386L507.6105077777778,323.63757325708866L508.2359822222223,323.2348888590932L509.0426688888889,318.27816738188267L509.8493555555556,318.1322898566723L510.22347111111117,328.4303990229964L511.99467444444446,317.97171583771706L513.1170211111112,318.70636059343815L514.3796611111112,320.57911133766174L514.3971977777778,324.00611682236195L515.3617144444445,325.92425568401814L516.9575511111111,326.9680799022317L517.0393888888889,323.9698019474745L517.2439833333333,326.1257273554802L517.5187244444444,310.3813797086477L519.1204066666667,324.2984187081456L520.1609155555556,312.5885777771473L520.3187455555556,315.63495299220085L520.3245911111111,325.9896240234375L520.8682277777779,313.114002853632L523.9839088888889,316.1852837204933L524.1826577777778,327.9882532954216L524.4281711111112,313.3844477534294L525.6323555555556,308.75215923786163L526.1292277777777,322.3915975391865L527.1872733333333,318.7787525206804L527.4327866666666,327.6127862781286L530.2620355555556,322.01220801472664L530.6361511111112,327.9469331949949L532.0332388888888,316.6324542313814L532.2086055555556,317.8356281518936L533.0211377777778,321.25500766932964L533.2958788888889,324.2334853336215L533.8687433333333,322.4696815609932L535.5931822222223,325.22417264431715L535.7217844444444,320.9324890226126L536.4875522222222,324.20425897836685L536.8032122222223,312.98609344661236L537.0253433333334,318.3485268652439L537.5982077777778,325.2320763319731L537.609898888889,328.73788791149855L538.8140833333333,329.3761378750205L539.135588888889,326.52820209413767L539.2057355555555,326.90204659849405L540.2170166666666,326.8457827940583L540.7314255555556,321.2485692501068L542.4850922222222,319.0342411994934L544.6070288888889,321.54106436669827L544.6128744444445,313.64612451195717L544.6421022222222,331.03385284915566L548.2078911111112,324.6575721949339L548.9210488888889,328.0967895537615L549.523141111111,324.4064245596528L549.8738744444445,323.2904321551323L550.6045688888889,326.1234336197376L550.7507077777778,327.85246758162975L553.4045900000001,328.55896870046854L554.2872688888889,323.0148357376456L554.8133688888889,327.06170766055584L555.5966733333333,318.76131950318813L557.03468,317.9924345612526L557.1399,327.2674867361784L560.5478588888889,327.06577567756176L562.2196877777777,320.96686689555645L562.2372244444445,316.9024516493082L562.2781433333333,317.3414517045021L563.1958955555556,327.2143459171057L563.8155244444445,325.2354081943631L564.4351533333333,321.4551509767771L565.2126122222223,323.7320271357894L565.463971111111,328.38986045122147L566.7558388888889,323.2006072103977L567.6911277777779,329.0597095191479L568.4159766666667,328.702328749001L569.2109722222223,321.55475793778896L569.4155666666667,316.5856266617775L571.2569166666667,325.14877977222204L572.4494100000001,331.0558944605291L573.4606911111111,328.74372082203627L573.7588144444444,326.9414156153798L574.7408677777778,324.4965209662914L574.9454622222223,325.3073510751128L575.7170755555555,326.37566162645817L577.0615533333333,328.6818861812353L577.3713677777779,328.2337197884917L577.8916222222222,327.3204390183091L578.5404788888889,327.5701002627611L578.6515444444445,322.3240559399128L579.5459144444445,332.1195025406778L580.0544777777778,324.5641235858202L581.0949866666667,329.17157451063395L583.5092011111111,325.7772641479969L584.1989766666667,318.04696632921696L584.5672466666667,325.06530875712633L585.39147,323.3338199034333L586.2916855555555,324.5913894698024L586.7827122222222,324.74695278704166L589.0507877777778,317.1664894223213L589.1501622222222,327.1937328055501L589.3898300000001,328.6039304584265L589.8048644444444,331.1956073753536L590.6641611111111,327.6030817106366L592.5113566666668,330.2624117061496L593.0900666666666,329.4418007545173L593.3764988888889,324.53063128888607L594.1598033333333,326.0378315895796L595.375678888889,318.7166511118412L595.7030300000001,329.16082555800676L598.9999233333334,320.0540695935488L599.110988888889,312.29560701549053L599.9235211111112,323.86509588360786L600.33271,330.3324778228998L601.2796900000001,327.4848815649748L601.3030722222223,319.435497879982L602.0922222222222,329.39025780558586L604.1381666666667,328.30363100767136L605.2371311111111,319.9537100493908L605.4826444444444,326.3896767273545L605.529408888889,330.90779047831893L605.5644822222223,327.13932620733976L605.7749222222222,330.8172372020781L605.7983044444444,330.1863659955561L606.2542577777779,322.54943503439426L606.6692922222223,331.741117503494L606.7394388888889,328.6217710599303L606.8621955555556,320.6567353606224L608.2709744444445,328.99997694790363L608.2826655555556,327.04514066129923L614.1340666666667,327.7098069190979L614.4555722222223,327.82590890675783L619.9270122222223,328.07313403487206L620.2368266666667,322.04618690907955L620.4297300000001,324.47096521407366L620.7278533333333,329.0842349678278L621.8560455555556,328.3823815584183L621.9671111111112,327.82024888694286L623.2998977777778,329.714461941272L623.4752644444444,331.87688092142344L624.2001133333333,330.51515447348356L624.2468777777779,325.7362921759486L624.6326844444444,321.3277140855789L626.1349922222223,329.64429177716374L626.5149533333334,326.50304766744375L626.69032,326.23619435727596L629.1045344444444,326.9411684051156L629.2740555555556,322.2713719904423L630.7295988888889,328.53987953066826L630.8815833333334,325.42608553916216L630.8932744444445,328.32540663331747L631.05695,327.24340642243624L634.201858888889,323.43850640952587L636.0899733333334,326.89142985641956L636.7037566666667,325.5828927308321L637.8319488888889,332.83269652538L638.3463577777778,330.69383899122477L639.4570133333334,328.29193545877934L639.6089977777777,329.97754138335586L639.9246577777778,332.175546515733L640.0064955555556,330.8323146812618L640.0181866666667,330.6207723207772L641.9004555555556,325.98065013438463L643.2098599999999,328.7421475946903L645.6357655555555,323.3697827383876L645.828668888889,329.7818466871977L646.8107222222222,320.38198931515217L647.0854633333333,327.17952682077885L648.7456011111111,330.8376637324691L651.6742244444445,324.0931043252349L652.2763166666667,324.80364529788494L652.6738144444445,330.6961374208331L653.3694355555556,318.69932448863983L653.4746555555556,328.9215729609132L654.67884,331.91597221791744L654.83667,329.4728600643575L656.2688311111111,331.25170689448714L656.4851166666667,332.4859236963093L656.5669544444444,330.03059693053365L658.1569455555556,324.9946183562279L659.1097711111112,332.36706836521626L659.9456855555557,326.4527834057808L661.3193911111111,331.7158946245909L662.0734677777779,326.849918872118L662.1553055555556,333.6585657801479L663.4764011111112,331.84440406411886L663.5290111111111,331.6492671556771L663.6342311111111,325.45210207253695L663.8154433333334,323.57827799767256L663.9089722222222,327.98041062802076L664.3240066666666,330.36236288398504L664.5519833333334,323.6272498816252L665.9841444444445,329.28112855553627L666.1069011111111,332.7413411848247L666.2062755555556,328.0129031315446L666.5511633333333,330.1940486803651L667.1532555555556,326.8028370514512L667.6033633333333,331.0959163159132L668.62049,328.61411614716053L669.1699722222223,331.40973722934723L670.1520255555555,328.1738636121154L671.3328277777778,328.91820902377367L671.9407655555556,330.30447421967983L672.3733366666667,333.0666939485818L673.1157222222222,333.3579230904579L676.6756655555556,325.71683140844107L677.8973866666666,333.08379878662527L678.8209844444444,330.08757772296667L679.025578888889,330.5346926897764L679.4406133333334,332.38640435412526L680.4928133333334,328.12141279131174L681.6969977777778,329.5981694608927L682.2230977777779,326.1165774464607L683.5091199999999,331.9338875301182L683.5266566666667,327.9538323953748L684.6431577777778,331.5486701801419L685.4790722222223,328.8771846368909L686.3559055555556,323.85174652934074L686.4494344444445,331.9994612261653L686.5254266666667,332.3423927128315L686.5605,326.6691737473011L687.1742833333334,331.4588143341243L687.3438044444445,328.8872795775533L687.548398888889,327.8248473107815L688.8344211111112,325.2403516173363L691.4999944444445,332.22459976002574L691.9910211111112,324.4286507964134L693.5108655555555,332.98766235262156L697.3163222222222,328.81266041100025L697.3689322222223,332.137754637748L698.4445144444445,323.40223690867424L699.5960888888889,333.75611565448344L700.1221888888889,324.9808528125286L700.5079955555556,324.0879856646061L700.5606055555555,332.2987362407148L700.9581033333334,331.3756851889193L705.4942544444444,331.55504210293293L707.1134733333334,330.24159010872245L707.18362,324.82382187992334L709.3464755555556,333.0051681250334L709.4166222222221,330.58947479724884L709.5744522222222,325.32902812957764L709.9018033333333,328.9088267683983L710.4220577777778,329.6500061675906L711.2345900000001,329.05103447288275L712.3218633333335,330.3489720672369L712.3861644444445,331.79664945602417L712.6258322222224,329.7927517108619L713.9820011111111,328.56881330162287L714.3794988888889,332.1913136020303L714.9055988888889,332.2701521627605L715.1101933333333,332.2800073251128L715.91688,331.3095650486648L716.5657366666668,330.91850970312953L717.009998888889,333.4827646650374L717.0275355555556,331.33091079443693L717.38996,332.6962511278689L717.5185622222223,331.8261195011437L718.6350633333334,329.98907616734505L718.9390322222222,331.2795082703233L720.5407144444445,331.72023175656796L721.4350844444444,331.7562016323209L721.6455244444445,332.85866572894156L721.7273622222223,331.74739281088114L722.534048888889,330.9826658517122L722.9023188888889,332.31069933995605L723.1712144444444,331.8182819187641L724.4864644444444,329.3647607266903L726.1875211111111,331.98943708464503L726.5090266666667,324.1184895336628L727.4092422222222,330.21019949018955L728.2451566666667,326.6442618370056L729.4610322222222,328.1986620873213L729.9929777777778,333.64629288576543L730.1040433333334,330.1547582857311L730.5775333333333,331.96430104225874L735.6105566666668,330.11623142659664L739.2289555555557,332.90824057906866L740.4097577777777,331.3075635060668L741.3333555555556,331.3935226611793L741.5204133333334,332.7884836345911L743.1980877777778,331.7404411956668L743.9170911111112,328.6219220459461L745.2557233333334,332.67051075026393L745.7175222222223,331.83126241341233L746.6118922222223,332.89158420078456L747.0444633333333,331.06676349788904L747.90376,332.41204381361604L748.0148255555556,331.3966620750725L748.6753733333334,331.7829421944916L751.2357266666667,330.19188441708684L751.3877111111112,332.7195025831461L751.95473,330.8076808825135L753.0186211111111,331.4967016540468L753.5213388888889,331.7430482469499L754.7839788888889,328.8945128247142L755.6666577777778,332.217363383621L755.7894144444444,332.2059033103287L755.8420244444445,327.2085012719035L756.8474600000001,328.1076488122344L759.5188788888889,332.8838524259627L760.9861133333333,329.76712907105684L761.6408155555556,329.57060864567757L762.0792322222222,331.98511090502143L765.2007588888889,328.8256021812558L765.4521177777779,329.1364816054702L765.9256077777777,333.7362774219364L767.7085022222223,331.46566190198064L767.9773977777778,330.686057344079L770.1811722222222,332.78290106356144L770.4442222222223,332.9473244436085L770.9177122222222,330.7902490384877L771.3210555555556,332.80502775125206L771.8237733333334,329.6089023761451L773.7469611111112,330.79595677927136L774.1210766666667,332.02887377142906L774.9862188888889,332.20921052992344L775.3486433333334,331.38850335404277L776.5352911111111,329.51796615868807L777.8096222222223,331.8142635785043L777.9557611111112,327.7913291975856L781.0188322222223,331.47789176926017L781.8196733333334,330.71052177250385L782.8660277777777,333.83386973664165L782.9654022222222,331.539645049721L783.2985988888889,331.9098881855607L783.6785600000001,333.7313300874084L784.6839955555555,330.75789070129395L787.191738888889,330.2536983266473L787.51909,328.7159636467695L788.2322477777777,332.61976028233767L788.6531277777779,325.25531331449747L789.3779766666667,329.7166864424944L790.0794433333334,333.8543688263744L791.41223,330.52019803225994L791.9383300000001,329.4279041737318L792.8210088888889,332.04261389002204L793.399718888889,331.9973020479083L793.8673633333333,331.3560918197036L794.8669533333333,331.62647530809045L795.6268755555557,333.06281036138535L796.1822033333334,329.3633650839329L796.2406588888889,332.7638809327036L796.3751066666667,332.3132050819695L797.1934844444445,333.2574348561466L797.8774144444445,330.7328747436404L798.608108888889,333.38247689791024L799.8649033333334,332.539735738188L800.6832811111111,332.47826878353953L801.4490488888889,333.73121234960854L801.56596,332.7541892733425L803.7463522222222,332.55657537281513L803.8632633333334,332.4121048338711L803.98602,332.6765286773443L804.0678577777778,330.94411708787084L804.9856100000001,332.6665858961642L807.0490911111111,332.08099015429616L808.0545266666667,327.0362622141838L808.130518888889,332.8656091298908L809.1067266666668,330.6754390373826L811.3689566666667,330.74950667470694L811.5209411111111,330.6564922481775L811.8658288888889,333.52180765382946L812.8011177777779,330.80387806892395L813.4850477777778,334.14143059775233L813.5025844444444,332.11526319757104L813.865008888889,333.1048752218485L814.1280588888889,331.58039328083396L815.7122044444444,330.61490420624614L816.4838177777777,332.5972441993654L817.3197322222222,331.3309890255332L817.8049133333334,331.45667197555304L817.8516777777778,330.76218950003386L818.2199477777779,330.75215557962656L819.4299777777778,332.43449887633324L822.6333422222223,332.7953566275537L823.39911,331.3663510456681L823.8433722222222,332.7795120924711L825.08263,332.2851635366678L825.123548888889,333.23407505080104L825.3807533333334,331.89894600212574L826.175748888889,331.1020163856447L826.7895322222222,334.3067864924669L828.8004033333333,333.0311189442873L828.9290055555556,331.3899279423058L829.1394455555555,332.560644172132L829.4317233333334,332.3652979955077L831.9803855555556,332.9511892553419L832.2434355555556,331.45995220541954L832.2843544444445,333.2084661014378L832.3895744444445,333.81383064575493L832.5240222222224,332.4642505533993L832.9858211111111,330.59208419546485L833.2956355555556,331.22846130654216L835.8793711111111,328.9546255990863L836.1190388888889,329.5144058614969L836.18334,325.87059853971004L836.4522355555556,332.5311381407082L836.6451388888888,332.013594456017L836.6743666666667,334.12252507545054L837.3466055555556,333.61717018671334L837.6681111111111,334.00232651643455L838.6092455555555,333.67080347053707L839.6848277777779,331.44148184359074L840.4038311111112,333.3837194032967L841.116988888889,333.3982950299978L842.0815055555556,333.8526626061648L842.1048877777778,333.1875983476639L842.8355822222222,332.6837079450488L843.2447711111112,333.4502545595169L843.5838133333333,330.50077833607793L844.2618977777778,333.09748355671763L844.9282911111112,328.2520164772868L844.9925922222222,332.91913817077875L848.5993000000001,332.47280786186457L848.8681955555556,333.15308083221316L849.86194,332.4416781440377L851.691598888889,333.3017396684736L854.3980911111112,333.63274325989187L854.6143766666668,330.93077985942364L854.9417277777778,333.19243557192385L856.5317188888889,334.1612078100443L856.7187766666667,332.42361341044307L856.8824522222224,333.5558409187943L857.9288066666667,331.1684916950762L859.5246433333333,333.2291529458016L860.2261100000001,333.65700546093285L860.3547122222222,333.27341922931373L860.4540866666666,332.50627825409174L862.2603633333334,330.8677811399102L862.804,333.490501916036L864.4407555555556,333.74476314894855L865.2123688888889,332.1507816798985L865.7793877777779,332.0755793005228L866.96019,333.70449330098927L869.6608366666667,330.0097866766155L870.1986277777778,330.3225538171828L870.7247277777778,333.13914005085826L872.1919622222223,328.3696932569146L872.7239077777778,333.8617288079113L873.3026177777779,332.49341471493244L873.6241233333334,332.18649769574404L874.0566944444445,332.67632879689336L874.0976133333334,332.82270504534245L875.48301,331.6993538327515L877.2892866666667,333.2973452322185L877.6867844444445,330.69816986471415L878.5811544444446,332.93960127420723L878.7799033333334,331.62061658129096L878.9435788888889,330.45691963657737L879.335231111111,331.0657042488456L880.9778322222222,330.8839401639998L881.5273144444444,332.62784311920404L882.0300322222222,332.16326853632927L883.0296222222222,333.04493592493236L883.2868266666667,332.60312443971634L883.3862011111112,332.97668340057135L884.9878833333333,334.2353951409459L885.6192033333334,333.8617679234594L887.5774644444444,333.2924862988293L887.8580511111111,332.7937671672553L888.2964677777778,334.1937353219837L888.37246,334.06852019391954L888.6062822222223,333.69062801264226L889.8572311111111,333.3976754397154L891.0380333333334,331.79927802085876L891.2426277777779,330.7462100163102L892.0200866666667,331.40182415395975L893.4288655555556,331.4427049867809L894.8259533333334,331.8368453755975L895.8956900000001,332.5475756675005L896.9011255555556,331.98019760102034L898.1579200000001,334.26525438576937L898.6781744444445,330.7940718010068L900.0401888888889,332.40462946146727L900.4610688888889,333.159262849018L901.6827900000001,330.635689817369L902.2731911111111,332.77010538987815L904.0443944444445,332.73980453051627L905.9851188888889,332.9355946686119L906.932098888889,333.0310135278851L907.089928888889,332.44553611055017L907.3003688888889,331.2397641353309L907.31206,332.91379244439304L908.2415033333333,330.5495139621198L908.8435955555557,334.3872829657048L909.3872322222222,332.40560030937195L909.5333711111111,334.0223704967648L909.9893244444445,333.1608994435519L910.0243977777778,333.1439890097827L910.0536255555556,331.95398196950555L910.8077022222222,333.5309428945184L913.4440477777779,333.34878765419126L914.6833055555556,333.7800580859184L914.8002166666666,333.72192768752575L918.0561911111112,334.7623092485592L919.5760355555557,332.9157806877047L919.6461822222223,329.1099182367325L920.8152933333333,333.4491180572659L921.2069455555555,331.963499173522L921.2537100000001,333.7095376420766L921.9084122222223,334.72916899155825L923.1301333333333,333.054412253201L923.3230366666667,332.4430643990636L925.5501933333334,333.18659601174295L926.6491577777779,333.4053991958499L926.8654433333334,333.2799650207162L927.186948888889,334.12206683680415L928.4203611111112,332.5868997015059L929.1101366666667,334.1552943214774L930.0454255555557,332.0766275972128L931.5418877777779,333.00584404170513L931.9218488888889,332.36752367019653L932.0095322222222,334.0187196470797L932.0329144444445,332.2244702875614L932.8571377777779,333.0505169313401L934.8563177777778,333.97917754389346L935.2830433333334,332.65909918025136" style="fill: none;" fill="none"></path></g><g><path stroke="rgb(255, 112, 67)" stroke-width="2px" d="M126.264,-151.85487413406372L135.6168888888889,23.38390803337097L144.96977777777778,84.55261445045471L154.32266666666666,88.32442975044256L163.67555555555558,128.40551233291626L173.02844444444446,147.174378991127L182.38133333333334,163.6004934310913L191.73422222222223,182.03723466396335L201.08711111111114,188.3701608181L210.44000000000003,182.45985782146454L219.7928888888889,198.20706403255465L229.14577777777777,207.96024119853973L238.49866666666665,215.49906527996066L247.85155555555556,217.4837944507599L257.20444444444445,220.8738795518875L266.55733333333336,215.61707532405853L275.9102222222223,218.06355571746826L285.26311111111113,236.18071979284286L294.61600000000004,234.4045735001564L303.9688888888889,233.49031484127045L313.32177777777775,241.85629194974902L322.67466666666667,244.4984439611435L332.0275555555555,247.3930258154869L341.38044444444444,252.05770826339722L350.73333333333335,247.60439372062683L360.0862222222222,250.82304006814957L369.4391111111111,248.08969563245773L378.79200000000003,258.89920538663864L388.1448888888889,255.19885575771332L397.4977777777778,253.4790421128273L406.85066666666665,258.469422519207L416.20355555555557,262.32715433835983L425.5564444444445,260.4292116165161L434.90933333333334,259.4386056661606L444.26222222222225,261.7564052939415L453.6151111111111,263.9980829358101L462.968,266.720212161541L472.32088888888893,266.13667702674866L481.6737777777778,266.27020812034607L491.0266666666667,268.72262156009674L500.3795555555556,270.5164668560028L509.73244444444447,269.39316219091415L519.0853333333333,266.50925731658936L528.4382222222223,271.42411029338837L537.7911111111111,272.79160863161087L547.144,270.7825652360916L556.4968888888889,269.3877110481262L565.8497777777778,270.3436262011528L575.2026666666667,271.4321086406708L584.5555555555557,273.2691687941551L593.9084444444444,270.19966220855713L603.2613333333334,273.6053622364998L612.6142222222222,273.6753634214401L621.9671111111112,271.3031024336815L631.32,275.10666704177856L640.6728888888889,273.1974527835846L650.0257777777778,275.5487353205681L659.3786666666667,273.8729313611984L668.7315555555556,275.1860121488571L678.0844444444446,275.01737719774246L687.4373333333333,274.0173271894455L696.7902222222223,276.1150408387184L706.1431111111111,274.12494188547134L715.4960000000001,277.8532294034958L724.848888888889,274.86035174131393L734.2017777777779,276.1755353808403L743.5546666666667,278.0963340997696L752.9075555555555,274.24168145656586L762.2604444444445,278.00558602809906L771.6133333333333,277.2796139717102L780.9662222222223,275.5930704474449L790.319111111111,274.9185181260109L799.672,276.8919757604599L809.0248888888889,274.9344772696495L818.3777777777779,276.7263448834419L827.7306666666667,274.9667272567749L837.0835555555556,276.9520196914673L846.4364444444444,277.59271985292435L855.7893333333334,278.05059707164764L865.1422222222222,277.9336885213852L874.4951111111112,279.1156352162361L883.848,276.8654773235321L893.2008888888889,277.4617422223091L902.5537777777778,275.7071000933647L911.9066666666668,277.63170397281647L921.2595555555556,277.45164728164673L930.6124444444445,277.024004817009" style="fill: none;" fill="none"></path></g></g></g></g></g></g><g transform="translate(60, 378)" clip-path="url(#clip_1)"><clipPath id="clip_1"><rect width="1052" height="22"></rect></clipPath><g><g><line x1="0" y1="0" x2="0" y2="5" style="visibility: inherit;" fill="rgb(0, 0, 0)" stroke="rgb(204, 204, 204)" stroke-width="1px"></line><line x1="116.91111111111111" y1="0" x2="116.91111111111111" y2="5" style="visibility: inherit;" fill="rgb(0, 0, 0)" stroke="rgb(204, 204, 204)" stroke-width="1px"></line><line x1="233.82222222222222" y1="0" x2="233.82222222222222" y2="5" style="visibility: inherit;" fill="rgb(0, 0, 0)" stroke="rgb(204, 204, 204)" stroke-width="1px"></line><line x1="350.73333333333335" y1="0" x2="350.73333333333335" y2="5" style="visibility: inherit;" fill="rgb(0, 0, 0)" stroke="rgb(204, 204, 204)" stroke-width="1px"></line><line x1="467.64444444444445" y1="0" x2="467.64444444444445" y2="5" style="visibility: inherit;" fill="rgb(0, 0, 0)" stroke="rgb(204, 204, 204)" stroke-width="1px"></line><line x1="584.5555555555557" y1="0" x2="584.5555555555557" y2="5" style="visibility: inherit;" fill="rgb(0, 0, 0)" stroke="rgb(204, 204, 204)" stroke-width="1px"></line><line x1="701.4666666666667" y1="0" x2="701.4666666666667" y2="5" style="visibility: inherit;" fill="rgb(0, 0, 0)" stroke="rgb(204, 204, 204)" stroke-width="1px"></line><line x1="818.3777777777779" y1="0" x2="818.3777777777779" y2="5" style="visibility: inherit;" fill="rgb(0, 0, 0)" stroke="rgb(204, 204, 204)" stroke-width="1px"></line><line x1="935.2888888888889" y1="0" x2="935.2888888888889" y2="5" style="visibility: inherit;" fill="rgb(0, 0, 0)" stroke="rgb(204, 204, 204)" stroke-width="1px"></line><line x1="1052.2" y1="0" x2="1052.2" y2="5" style="visibility: inherit;" fill="rgb(0, 0, 0)" stroke="rgb(204, 204, 204)" stroke-width="1px"></line></g><g transform="translate(0, 8)"><text x="0" y="0" dx="0em" dy="0.95em" style="text-anchor: middle; visibility: hidden; font-family: &quot;Helvetica Neue&quot;, sans-serif; font-size: 12px; font-weight: 200;" fill="rgb(50, 49, 63)" stroke="none" stroke-width="1px">-20k</text><text x="116.91111111111111" y="0" dx="0em" dy="0.95em" style="text-anchor: middle; visibility: inherit; font-family: &quot;Helvetica Neue&quot;, sans-serif; font-size: 12px; font-weight: 200;" fill="rgb(50, 49, 63)" stroke="none" stroke-width="1px">0</text><text x="233.82222222222222" y="0" dx="0em" dy="0.95em" style="text-anchor: middle; visibility: inherit; font-family: &quot;Helvetica Neue&quot;, sans-serif; font-size: 12px; font-weight: 200;" fill="rgb(50, 49, 63)" stroke="none" stroke-width="1px">20k</text><text x="350.73333333333335" y="0" dx="0em" dy="0.95em" style="text-anchor: middle; visibility: inherit; font-family: &quot;Helvetica Neue&quot;, sans-serif; font-size: 12px; font-weight: 200;" fill="rgb(50, 49, 63)" stroke="none" stroke-width="1px">40k</text><text x="467.64444444444445" y="0" dx="0em" dy="0.95em" style="text-anchor: middle; visibility: inherit; font-family: &quot;Helvetica Neue&quot;, sans-serif; font-size: 12px; font-weight: 200;" fill="rgb(50, 49, 63)" stroke="none" stroke-width="1px">60k</text><text x="584.5555555555557" y="0" dx="0em" dy="0.95em" style="text-anchor: middle; visibility: inherit; font-family: &quot;Helvetica Neue&quot;, sans-serif; font-size: 12px; font-weight: 200;" fill="rgb(50, 49, 63)" stroke="none" stroke-width="1px">80k</text><text x="701.4666666666667" y="0" dx="0em" dy="0.95em" style="text-anchor: middle; visibility: inherit; font-family: &quot;Helvetica Neue&quot;, sans-serif; font-size: 12px; font-weight: 200;" fill="rgb(50, 49, 63)" stroke="none" stroke-width="1px">100k</text><text x="818.3777777777779" y="0" dx="0em" dy="0.95em" style="text-anchor: middle; visibility: inherit; font-family: &quot;Helvetica Neue&quot;, sans-serif; font-size: 12px; font-weight: 200;" fill="rgb(50, 49, 63)" stroke="none" stroke-width="1px">120k</text><text x="935.2888888888889" y="0" dx="0em" dy="0.95em" style="text-anchor: middle; visibility: inherit; font-family: &quot;Helvetica Neue&quot;, sans-serif; font-size: 12px; font-weight: 200;" fill="rgb(50, 49, 63)" stroke="none" stroke-width="1px">140k</text><text x="1052.2" y="0" dx="0em" dy="0.95em" style="text-anchor: middle; visibility: hidden; font-family: &quot;Helvetica Neue&quot;, sans-serif; font-size: 12px; font-weight: 200;" fill="rgb(50, 49, 63)" stroke="none" stroke-width="1px">160k</text></g><line x1="0" y1="0" x2="1052.2" y2="0" fill="rgb(0, 0, 0)" stroke="rgb(204, 204, 204)" stroke-width="1px"></line></g></g></g></g></svg>