<svg viewBox="0 0 950.5 400" xmlns="http://www.w3.org/2000/svg"><g><g><g><g><g><line x1="50" y1="378" x2="45" y2="378" style="visibility: inherit;" fill="rgb(0, 0, 0)" stroke="rgb(204, 204, 204)" stroke-width="1px"></line><line x1="50" y1="351" x2="45" y2="351" style="visibility: inherit;" fill="rgb(0, 0, 0)" stroke="rgb(204, 204, 204)" stroke-width="1px"></line><line x1="50" y1="323.99999999999994" x2="45" y2="323.99999999999994" style="visibility: inherit;" fill="rgb(0, 0, 0)" stroke="rgb(204, 204, 204)" stroke-width="1px"></line><line x1="50" y1="297.0000000000001" x2="45" y2="297.0000000000001" style="visibility: inherit;" fill="rgb(0, 0, 0)" stroke="rgb(204, 204, 204)" stroke-width="1px"></line><line x1="50" y1="270.00000000000006" x2="45" y2="270.00000000000006" style="visibility: inherit;" fill="rgb(0, 0, 0)" stroke="rgb(204, 204, 204)" stroke-width="1px"></line><line x1="50" y1="243.00000000000003" x2="45" y2="243.00000000000003" style="visibility: inherit;" fill="rgb(0, 0, 0)" stroke="rgb(204, 204, 204)" stroke-width="1px"></line><line x1="50" y1="216.00000000000003" x2="45" y2="216.00000000000003" style="visibility: inherit;" fill="rgb(0, 0, 0)" stroke="rgb(204, 204, 204)" stroke-width="1px"></line><line x1="50" y1="189" x2="45" y2="189" style="visibility: inherit;" fill="rgb(0, 0, 0)" stroke="rgb(204, 204, 204)" stroke-width="1px"></line><line x1="50" y1="161.99999999999997" x2="45" y2="161.99999999999997" style="visibility: inherit;" fill="rgb(0, 0, 0)" stroke="rgb(204, 204, 204)" stroke-width="1px"></line><line x1="50" y1="135.0000000000001" x2="45" y2="135.0000000000001" style="visibility: inherit;" fill="rgb(0, 0, 0)" stroke="rgb(204, 204, 204)" stroke-width="1px"></line><line x1="50" y1="108.00000000000006" x2="45" y2="108.00000000000006" style="visibility: inherit;" fill="rgb(0, 0, 0)" stroke="rgb(204, 204, 204)" stroke-width="1px"></line><line x1="50" y1="81.00000000000006" x2="45" y2="81.00000000000006" style="visibility: inherit;" fill="rgb(0, 0, 0)" stroke="rgb(204, 204, 204)" stroke-width="1px"></line><line x1="50" y1="54.00000000000006" x2="45" y2="54.00000000000006" style="visibility: inherit;" fill="rgb(0, 0, 0)" stroke="rgb(204, 204, 204)" stroke-width="1px"></line><line x1="50" y1="27.000000000000057" x2="45" y2="27.000000000000057" style="visibility: inherit;" fill="rgb(0, 0, 0)" stroke="rgb(204, 204, 204)" stroke-width="1px"></line><line x1="50" y1="0" x2="45" y2="0" style="visibility: inherit;" fill="rgb(0, 0, 0)" stroke="rgb(204, 204, 204)" stroke-width="1px"></line></g><g transform="translate(40, 0)"><text x="0" y="378" dx="0em" dy="0.3em" style="text-anchor: end; visibility: hidden; font-family: &quot;Helvetica Neue&quot;, sans-serif; font-size: 12px; font-weight: 200;" fill="rgb(50, 49, 63)" stroke="none" stroke-width="1px">0.76</text><text x="0" y="351" dx="0em" dy="0.3em" style="text-anchor: end; visibility: inherit; font-family: &quot;Helvetica Neue&quot;, sans-serif; font-size: 12px; font-weight: 200;" fill="rgb(50, 49, 63)" stroke="none" stroke-width="1px">0.78</text><text x="0" y="323.99999999999994" dx="0em" dy="0.3em" style="text-anchor: end; visibility: inherit; font-family: &quot;Helvetica Neue&quot;, sans-serif; font-size: 12px; font-weight: 200;" fill="rgb(50, 49, 63)" stroke="none" stroke-width="1px">0.8</text><text x="0" y="297.0000000000001" dx="0em" dy="0.3em" style="text-anchor: end; visibility: inherit; font-family: &quot;Helvetica Neue&quot;, sans-serif; font-size: 12px; font-weight: 200;" fill="rgb(50, 49, 63)" stroke="none" stroke-width="1px">0.82</text><text x="0" y="270.00000000000006" dx="0em" dy="0.3em" style="text-anchor: end; visibility: inherit; font-family: &quot;Helvetica Neue&quot;, sans-serif; font-size: 12px; font-weight: 200;" fill="rgb(50, 49, 63)" stroke="none" stroke-width="1px">0.84</text><text x="0" y="243.00000000000003" dx="0em" dy="0.3em" style="text-anchor: end; visibility: inherit; font-family: &quot;Helvetica Neue&quot;, sans-serif; font-size: 12px; font-weight: 200;" fill="rgb(50, 49, 63)" stroke="none" stroke-width="1px">0.86</text><text x="0" y="216.00000000000003" dx="0em" dy="0.3em" style="text-anchor: end; visibility: inherit; font-family: &quot;Helvetica Neue&quot;, sans-serif; font-size: 12px; font-weight: 200;" fill="rgb(50, 49, 63)" stroke="none" stroke-width="1px">0.88</text><text x="0" y="189" dx="0em" dy="0.3em" style="text-anchor: end; visibility: inherit; font-family: &quot;Helvetica Neue&quot;, sans-serif; font-size: 12px; font-weight: 200;" fill="rgb(50, 49, 63)" stroke="none" stroke-width="1px">0.9</text><text x="0" y="161.99999999999997" dx="0em" dy="0.3em" style="text-anchor: end; visibility: inherit; font-family: &quot;Helvetica Neue&quot;, sans-serif; font-size: 12px; font-weight: 200;" fill="rgb(50, 49, 63)" stroke="none" stroke-width="1px">0.92</text><text x="0" y="135.0000000000001" dx="0em" dy="0.3em" style="text-anchor: end; visibility: inherit; font-family: &quot;Helvetica Neue&quot;, sans-serif; font-size: 12px; font-weight: 200;" fill="rgb(50, 49, 63)" stroke="none" stroke-width="1px">0.94</text><text x="0" y="108.00000000000006" dx="0em" dy="0.3em" style="text-anchor: end; visibility: inherit; font-family: &quot;Helvetica Neue&quot;, sans-serif; font-size: 12px; font-weight: 200;" fill="rgb(50, 49, 63)" stroke="none" stroke-width="1px">0.96</text><text x="0" y="81.00000000000006" dx="0em" dy="0.3em" style="text-anchor: end; visibility: inherit; font-family: &quot;Helvetica Neue&quot;, sans-serif; font-size: 12px; font-weight: 200;" fill="rgb(50, 49, 63)" stroke="none" stroke-width="1px">0.98</text><text x="0" y="54.00000000000006" dx="0em" dy="0.3em" style="text-anchor: end; visibility: inherit; font-family: &quot;Helvetica Neue&quot;, sans-serif; font-size: 12px; font-weight: 200;" fill="rgb(50, 49, 63)" stroke="none" stroke-width="1px">1</text><text x="0" y="27.000000000000057" dx="0em" dy="0.3em" style="text-anchor: end; visibility: inherit; font-family: &quot;Helvetica Neue&quot;, sans-serif; font-size: 12px; font-weight: 200;" fill="rgb(50, 49, 63)" stroke="none" stroke-width="1px">1.02</text><text x="0" y="0" dx="0em" dy="0.3em" style="text-anchor: end; visibility: hidden; font-family: &quot;Helvetica Neue&quot;, sans-serif; font-size: 12px; font-weight: 200;" fill="rgb(50, 49, 63)" stroke="none" stroke-width="1px">1.04</text></g><line x1="50" y1="0" x2="50" y2="378" fill="rgb(0, 0, 0)" stroke="rgb(204, 204, 204)" stroke-width="1px"></line></g></g><g transform="translate(50, 0)" clip-path="url(#clip_0)"><clipPath id="clip_0"><rect width="900" height="378"></rect></clipPath><g><g><g><line x1="0" y1="0" x2="0" y2="378" fill="rgb(0, 0, 0)" stroke="rgb(60, 60, 60)" stroke-width="1px" opacity="0.25"></line><line x1="100.05555555555554" y1="0" x2="100.05555555555554" y2="378" fill="rgb(0, 0, 0)" stroke="rgb(60, 60, 60)" stroke-width="1px" opacity="0.25"></line><line x1="200.1111111111111" y1="0" x2="200.1111111111111" y2="378" fill="rgb(0, 0, 0)" stroke="rgb(60, 60, 60)" stroke-width="1px" opacity="0.25"></line><line x1="300.16666666666663" y1="0" x2="300.16666666666663" y2="378" fill="rgb(0, 0, 0)" stroke="rgb(60, 60, 60)" stroke-width="1px" opacity="0.25"></line><line x1="400.2222222222222" y1="0" x2="400.2222222222222" y2="378" fill="rgb(0, 0, 0)" stroke="rgb(60, 60, 60)" stroke-width="1px" opacity="0.25"></line><line x1="500.2777777777778" y1="0" x2="500.2777777777778" y2="378" fill="rgb(0, 0, 0)" stroke="rgb(60, 60, 60)" stroke-width="1px" opacity="0.25"></line><line x1="600.3333333333333" y1="0" x2="600.3333333333333" y2="378" fill="rgb(0, 0, 0)" stroke="rgb(60, 60, 60)" stroke-width="1px" opacity="0.25"></line><line x1="700.3888888888889" y1="0" x2="700.3888888888889" y2="378" fill="rgb(0, 0, 0)" stroke="rgb(60, 60, 60)" stroke-width="1px" opacity="0.25"></line><line x1="800.4444444444443" y1="0" x2="800.4444444444443" y2="378" fill="rgb(0, 0, 0)" stroke="rgb(60, 60, 60)" stroke-width="1px" opacity="0.25"></line><line x1="900.5" y1="0" x2="900.5" y2="378" fill="rgb(0, 0, 0)" stroke="rgb(60, 60, 60)" stroke-width="1px" opacity="0.25"></line></g><g><line x1="0" y1="378" x2="900.5" y2="378" fill="rgb(0, 0, 0)" stroke="rgb(60, 60, 60)" stroke-width="1px" opacity="0.25"></line><line x1="0" y1="351" x2="900.5" y2="351" fill="rgb(0, 0, 0)" stroke="rgb(60, 60, 60)" stroke-width="1px" opacity="0.25"></line><line x1="0" y1="323.99999999999994" x2="900.5" y2="323.99999999999994" fill="rgb(0, 0, 0)" stroke="rgb(60, 60, 60)" stroke-width="1px" opacity="0.25"></line><line x1="0" y1="297.0000000000001" x2="900.5" y2="297.0000000000001" fill="rgb(0, 0, 0)" stroke="rgb(60, 60, 60)" stroke-width="1px" opacity="0.25"></line><line x1="0" y1="270.00000000000006" x2="900.5" y2="270.00000000000006" fill="rgb(0, 0, 0)" stroke="rgb(60, 60, 60)" stroke-width="1px" opacity="0.25"></line><line x1="0" y1="243.00000000000003" x2="900.5" y2="243.00000000000003" fill="rgb(0, 0, 0)" stroke="rgb(60, 60, 60)" stroke-width="1px" opacity="0.25"></line><line x1="0" y1="216.00000000000003" x2="900.5" y2="216.00000000000003" fill="rgb(0, 0, 0)" stroke="rgb(60, 60, 60)" stroke-width="1px" opacity="0.25"></line><line x1="0" y1="189" x2="900.5" y2="189" fill="rgb(0, 0, 0)" stroke="rgb(60, 60, 60)" stroke-width="1px" opacity="0.25"></line><line x1="0" y1="161.99999999999997" x2="900.5" y2="161.99999999999997" fill="rgb(0, 0, 0)" stroke="rgb(60, 60, 60)" stroke-width="1px" opacity="0.25"></line><line x1="0" y1="135.0000000000001" x2="900.5" y2="135.0000000000001" fill="rgb(0, 0, 0)" stroke="rgb(60, 60, 60)" stroke-width="1px" opacity="0.25"></line><line x1="0" y1="108.00000000000006" x2="900.5" y2="108.00000000000006" fill="rgb(0, 0, 0)" stroke="rgb(60, 60, 60)" stroke-width="1px" opacity="0.25"></line><line x1="0" y1="81.00000000000006" x2="900.5" y2="81.00000000000006" fill="rgb(0, 0, 0)" stroke="rgb(60, 60, 60)" stroke-width="1px" opacity="0.25"></line><line x1="0" y1="54.00000000000006" x2="900.5" y2="54.00000000000006" fill="rgb(0, 0, 0)" stroke="rgb(60, 60, 60)" stroke-width="1px" opacity="0.25"></line><line x1="0" y1="27.000000000000057" x2="900.5" y2="27.000000000000057" fill="rgb(0, 0, 0)" stroke="rgb(60, 60, 60)" stroke-width="1px" opacity="0.25"></line><line x1="0" y1="0" x2="900.5" y2="0" fill="rgb(0, 0, 0)" stroke="rgb(60, 60, 60)" stroke-width="1px" opacity="0.25"></line></g></g></g><g><g><line x1="0" y1="1403.9999999999998" x2="900.5" y2="1403.9999999999998" fill="rgb(0, 0, 0)" stroke="rgb(153, 153, 153)" stroke-width="1.5px"></line></g></g><g><g><line x1="100.05555555555554" y1="0" x2="100.05555555555554" y2="378" fill="rgb(0, 0, 0)" stroke="rgb(153, 153, 153)" stroke-width="1.5px"></line></g></g><g><g><g><g><g><path stroke="rgb(0, 119, 187)" stroke-width="2px" d="M116.659775,388.85468694995467L118.16060833333334,365.87804943776626L118.78095277777777,338.5219490385997L118.78595555555556,345.01853074627854L118.82597777777777,366.7690674121565L118.90602222222222,372.95290488173816L119.30124166666667,370.8394020232869L120.06166388888887,352.37769940864257L120.16672222222222,379.0352869442943L123.26844444444446,361.9004962109555L125.33459166666665,349.04982676316666L127.34570833333333,366.41291549958464L128.0511,355.8094298372703L128.93659166666666,320.8564490848293L131.09779166666667,325.01738536473755L131.73814722222224,311.2629095517857L132.7086861111111,317.82222439510605L134.44965277777777,302.49157352682977L135.120025,294.36865453393824L135.99050833333334,288.27648036664993L136.2206361111111,266.83231392700094L136.82096944444444,284.4992598245773L138.67199722222222,287.6244514776536L139.1772777777778,286.5933432027655L141.16838333333334,262.1949970256188L141.86877222222222,243.8962454528618L142.02886111111113,257.1721921424766L142.06388055555556,250.25414029374548L142.504125,255.19061525100656L144.63030555555557,245.39296129196126L145.90601388888888,221.16971529960176L147.0016222222222,216.50229083223346L147.02163333333334,233.25172502298446L147.69700833333334,215.43878712467506L147.7920611111111,215.57909195879773L148.2473138888889,225.80931124872882L148.31735277777778,233.48197557343957L149.257875,242.6114906951439L149.27288333333334,235.9586195411738L149.83819722222222,230.9689662148567L150.44353333333333,217.10171570490533L151.1539277777778,230.32629570503173L151.71924166666668,213.24471607341846L151.78427777777776,203.80852817364655L151.9793861111111,210.2313945362895L152.89489444444445,191.42354667310232L153.04998055555555,187.44265114817497L153.49522777777779,197.9569867624275L154.120575,202.4677416845637L154.28566666666666,209.22580465793752L154.35070277777777,244.66936316451105L154.7559277777778,251.00203122669728L155.0010638888889,245.62652180940904L155.09611666666666,221.34488893870287L155.18116388888888,209.88365785119186L155.44130833333332,197.91273775454434L156.1667111111111,185.55955090098317L156.28677777777776,183.04465432430453L156.33680555555554,181.1584818918581L157.19728333333333,183.1188694655833L158.6931138888889,198.08914727157068L160.54914444444444,182.3168612580567L160.59416944444445,187.36265077158686L161.49967222222222,191.14699290670472L161.50467500000002,183.86023904733415L161.6147361111111,175.02017687146233L162.1400277777778,171.76512702094374L162.585275,159.1988492889813L162.6503111111111,159.89913133409868L163.0755472222222,157.04934608658073L163.14558611111113,175.1620079556347L165.0766583333333,165.12150677137848L165.63196666666667,174.46613490651694L165.9821611111111,161.2246052031938L166.63252222222224,154.66845470705522L166.68255,153.1263386163029L168.3884972222222,168.8447555715564L168.87876944444446,167.13356104602815L169.6542,165.85016515188192L170.84986388888888,175.0126286918886L171.39516666666665,158.25947876087943L171.75536666666667,138.94460263335685L172.5358,134.58345599833098L172.57081944444445,138.06258958476036L172.6208472222222,154.17194701654685L172.8259611111111,162.8789683090373L173.27120833333333,149.15923347374226L173.9465833333333,138.86943234727093L174.24174722222222,144.65206862781437L174.742025,148.98904583822204L174.76203611111112,158.99179242529345L175.24230277777778,146.24385156093436L175.61751111111113,146.8078862567127L175.9076722222222,157.3559227391616L175.94269166666666,158.5169364217324L176.00772777777777,162.76269346500962L176.34791666666666,169.3220281453842L176.61806666666666,153.99152835100247L176.633075,155.99364063061284L177.57359722222222,154.1202280589716L177.60861666666668,149.3401718488914L178.2789888888889,142.38013290998194L178.40405833333332,157.41010451046282L179.24952777777779,155.1825759688589L179.50466944444446,143.3869392186085L180.58526944444444,158.16520924193253L181.18560277777777,155.74890451746145L182.83651944444443,147.18668241140963L183.29177222222222,134.01500215260475L184.08221111111112,151.1362564424298L184.40238888888888,167.35219394114776L187.29399444444445,159.26414626052355L187.41906388888887,159.94810406275369L187.889325,153.711078851728L187.91934166666667,145.65831316210947L187.9593638888889,132.86872521562964L188.55469444444446,140.15153827908335L188.9949388888889,145.61364807667363L190.18059722222222,139.58524008081872L190.4757611111111,141.81392764662598L191.6914361111111,126.61043929766794L193.08220833333334,125.33283349656452L196.99938333333333,127.74962592708607L197.38459722222223,126.18722346862813L197.64474166666668,114.89041116416945L197.65474722222223,106.41780193582554L198.77536944444446,110.18835547518262L199.0054972222222,109.64127384835126L199.24563055555555,112.60595940957694L199.55079999999998,118.20447036184538L199.60583055555557,119.02835679469752L200.24618611111111,116.27127483798739L201.74201666666667,110.82844647253819L203.07275555555555,113.49633887771716L203.47297777777777,112.12226140025223L204.03829166666665,111.09170329215345L205.32900833333335,117.06877827377781L206.5747,118.17658772864684L208.40571666666665,122.38244160114792L210.50688333333335,118.78683844282534L212.12778333333333,116.09013607408338L212.19782222222221,114.06760929752681L212.24785,136.17571180112142L212.8381777777778,122.38177741353948L212.8832027777778,108.6613298415038L213.6186111111111,111.87100140444136L213.79871111111112,107.52824139737845L213.97881111111113,104.27117139208144L214.84429166666666,105.20338578602536L217.9009888888889,105.9025465814833L218.4813111111111,103.05190028015994L219.9721388888889,104.2889324520844L221.05273888888888,115.34169692507527L221.44795833333333,103.38126947515565L222.79870833333334,97.78594566906509L222.9888138888889,110.46445683781059L223.05385,96.34834262835795L224.30454444444445,99.26126421323283L224.9499027777778,94.69594172262305L227.73144722222222,98.02196353393168L228.7920361111111,93.76646621314711L230.43795,93.94984000390798L231.88375277777777,90.71237356562938L232.40904444444442,84.90927695557122L234.73533611111114,94.05696173999195L235.32066111111112,84.0427213049939L235.43572500000002,83.2820345414438L235.95101111111111,86.08651625013039L238.33233333333334,88.18987753164527L238.73755833333334,99.89240895339657L241.8492861111111,115.41930108240842L243.0049277777778,113.56448305377074L244.24561666666665,108.79835263437565L244.94100277777778,101.84875803848007L246.31176388888886,93.26156531020928L247.0921972222222,100.32117800597052L247.4974222222222,95.49087706717626L247.85762222222223,101.99316182369563L249.3634583333333,93.36986814912086L250.11887777777775,97.0274083538049L250.16890555555557,89.6455530467029L250.99936666666667,100.98416558968995L251.33955555555553,92.61312097361673L251.51965555555557,93.08483107426014L251.69975555555556,86.68862008704428L252.38513611111108,81.89146184663241L252.4301611111111,85.04358672902191L253.25061666666667,80.65768682811563L254.44127777777777,77.3682619024359L255.90208888888887,74.90119320817604L256.1622333333333,69.6758949061321L256.2572861111111,72.5069147422974L256.6825222222222,78.0051764007705L256.78257777777776,75.37887908192715L258.4935277777778,80.15914965549285L259.58413333333334,80.36935580431793L260.0143722222222,87.27702409520282L261.74033055555554,78.95776807140214L261.95044722222224,92.96832685821431L263.67140277777776,86.60124192501002L265.3673444444444,85.20092500645586L265.6525027777778,87.52568409888943L265.782575,82.51925985551622L265.9826861111111,88.88945213360142L266.7481111111111,90.2920794442486L266.8531694444444,81.21905958318644L267.4434972222222,74.41429468738988L268.32398611111114,69.31072101554253L269.70975555555555,75.60803110570441L270.2650638888889,76.95601689197679L271.365675,77.96700623168095L271.80591944444444,82.10024501780828L271.905975,78.4501805447054L272.7414388888889,82.46262575257668L273.73699166666665,78.7219660957818L275.9682305555556,75.91647135318561L276.18835277777777,83.93736075685354L276.61859166666665,86.57801091168767L276.70363888888886,91.93351542573004L276.9187583333333,85.82513335064675L276.99379999999996,84.61884357568346L277.2289305555555,76.96413268176264L278.30452777777776,81.3480898553695L278.42459444444444,74.51106739152715L278.4996361111111,72.75829732499449L279.7903527777778,74.81871655644426L280.91597777777775,69.61403741733324L280.9509972222222,69.08552484434915L281.94154722222225,65.31414363326184L281.9665611111111,79.36061174825994L282.1466611111111,83.14544915524255L282.892075,79.23408364778112L283.8976333333333,83.05055307988329L284.1427694444444,82.53790837261079L284.83815555555555,85.52842162350555L285.21336388888886,81.02131299897843L286.0538305555556,81.01597831193214L286.24893888888886,81.01197729664756L289.0655027777778,77.63397975383486L289.36566944444445,71.72548481537615L290.5263138888889,80.7941208534964L290.78645833333337,74.0955906401224L291.7569972222222,69.07169298009183L292.97267222222223,72.0537632977672L293.1077472222222,74.29031603602374L294.3534388888889,72.59273380836709L296.61469444444447,81.44455759823961L296.7847888888889,77.95841498002886L297.029925,82.09380157906918L297.4451555555556,85.19534152834945L297.53520555555554,77.39650614626203L297.8904027777778,81.67236995374401L298.2956277777778,84.8792678093555L299.1210861111111,80.53444763836586L299.13609444444444,77.27583251012368L299.6063555555556,74.83187116394197L299.6113583333333,69.62390337295648L301.07216944444446,72.46792109241574L301.7775611111111,67.85094081931192L301.8225861111111,77.88821285644826L303.38845555555554,85.4161668843006L304.233925,91.0621324051898L304.3840083333333,91.92158964793992L305.1544361111111,85.81618901730417L305.17945,84.61213532567643L305.38956666666667,76.95910149425731L306.71530277777777,84.71933336265738L307.17555833333336,80.41449680334216L307.7708888888889,80.56086616520497L308.196125,77.29564640525291L310.4223611111111,74.84673158528886L311.8081305555556,69.63504868896666L312.5035166666667,65.726286516725L312.83369999999996,66.16971166889283L313.4040166666666,63.12728375166961L315.1950111111111,64.22045959510143L315.7853388888889,61.66534469632609L316.03047499999997,66.49900208494302L316.1505416666667,63.374251563707276L317.5813361111111,67.78068223547888L317.63136388888887,67.71050845795838L317.8965111111111,64.28288134346889L318.15165277777777,68.46215457030002L318.27171944444444,64.846615927725L318.33675555555556,65.50995872714293L319.1572111111111,69.38246260805562L319.2022361111111,65.5368469560417L319.24726111111113,62.65263521703139L319.7525416666666,60.48947641277351L320.0627138888889,58.867107309580035L320.2728305555555,61.025327263534166L320.3578777777778,59.26899544765064L320.8431472222222,57.95174658573802L321.0682722222222,56.96380993930353L322.13386388888887,62.97285101717597L322.1989,64.1046350442312L323.04436944444444,68.32846984587167L323.6397,68.12134916575303L324.0699388888889,71.34100543701311L325.3156305555555,67.00575407775972L326.57633055555556,63.75431555831983L326.8164638888889,68.0657302314383L327.3217444444444,81.42430169689231L327.5768861111111,88.06823351463362L328.5424222222222,89.6761654800228L328.54742500000003,84.1321208913663L332.15943055555556,90.09909791048909L332.599675,81.07432343286678L333.34008611111113,74.30574257465014L334.95598333333334,72.60430371233679L335.8014527777778,71.32822456560189L335.89650555555556,66.9961684242013L336.381775,63.74712631815106L338.31784999999996,61.31034473861331L342.30006111111106,69.60774889800746L343.2706,75.8308020175532L343.4807166666667,73.74809829451402L343.59578055555556,68.81107372088553L343.6808277777778,68.48330207201337L344.27615833333334,64.86247655401002L345.5518666666666,62.14685741550761L345.82701944444443,63.48513984297995L345.9871083333333,67.86384844493324L346.6074527777778,64.39788633369994L346.9776583333333,61.7984147502749L347.4379138888889,63.223807844055386L347.74308333333335,60.91785588304151L348.00823055555554,59.18839191228108L348.9337444444444,64.64128749690917L349.2489194444445,75.48097286464633L349.66415,73.48572642983396L349.94430555555556,82.11430206433977L350.3445277777778,75.0857265482548L350.66470555555554,69.81429491119115L350.88482777777773,72.61071474609179L350.8898305555556,74.70802962226719L350.9948888888889,72.9060189980496L351.1299638888889,68.1795142485372L352.9809916666667,68.00963246775206L353.52629444444443,67.88222113216324L353.7714305555555,64.41166584912247L354.0365777777778,61.808749386841896L355.46737222222225,63.231558821480576L355.5224027777778,60.92366911611032L356.6780444444444,59.19275183708277L356.8731527777778,61.26956065916124L356.99822222222224,66.2021640570693L358.3339638888889,66.52661982415111L358.7892166666666,73.51995521216077L359.75475277777775,68.63996640912063L362.57631944444444,71.72996836953882L362.8014444444445,70.67247305850333L364.5224,69.87935157522668L365.2678138888889,72.6595072441184L365.5529722222222,67.99463043308873L366.7086138888889,64.49597282481653L367.04380000000003,68.6219731813108L367.3389638888889,68.34147666733236L367.84924722222223,64.75610750049918L368.4595861111111,62.067080625374444L368.70472222222224,63.42530725038006L369.1649777777778,64.4439772191343L369.19499444444443,61.83298291435074L369.25002500000005,59.874737185763024L370.13551666666666,61.78104967067145L370.420675,59.83578725300356L371.0310138888889,58.376840439752584L371.8064444444445,60.657627111163606L372.4518027777778,65.74321389607098L374.2077777777778,62.807410422053294L374.8081111111111,60.60555781654L374.89315833333336,58.954168362404914L375.373425,61.09062305315291L377.6697,59.31796728986461L378.12495277777776,57.98847546739853L379.10549722222225,56.99135660054884L380.57131111111113,59.61851423176074L380.8164472222222,58.21388567382064L381.07158888888887,57.16041425536554L381.8270083333333,63.12030425422256L383.58298333333335,60.840228190666835L383.64301666666665,65.88016470569852L383.6830388888889,62.91012352927396L384.21333333333337,64.05758942830477L384.59854722222224,64.91818885257777L385.24390555555556,62.18864163943334L385.96430555555554,60.14148122957499L386.47959166666664,58.60611092218119L387.1999916666667,60.82957997298513L387.85535555555555,65.87217854243733L388.790875,62.90413390682801L388.95596666666665,60.67810043012105L389.2261166666667,59.00857532259079L389.8814805555556,61.13142827329233L390.3367333333333,62.72356798631853L390.5618583333333,67.29266955243719L391.15718888888887,63.96950216432782L391.5674166666667,64.85212340459515L391.5774222222222,62.139092553446346L393.17831111111116,60.10431941508472L394.0988222222222,58.57823956131364L394.644125,57.43367967098527L394.74418055555554,59.95025653458811L395.4996,58.46269240094114L395.55463055555555,57.347019300705824L397.6608,59.88526125687855L397.87591944444443,65.16393950535729L398.2511277777778,65.7479514103672L399.4217777777778,72.93595390182293L399.74695833333334,74.95195898906553L400.8725833333333,69.71396924179919L401.6280027777778,75.91046727539685L402.07325000000003,73.80784723789685L402.81866388888886,72.23088220977189L402.97875277777774,71.04815843867823L405.4101027777778,66.78611882900861L405.5701916666667,77.08959636372089L406.8058777777778,71.31719727279062L409.3322805555556,70.36289473594218L409.4773611111111,66.27217105195672L409.73250277777777,63.204128288967524L409.94261944444446,64.27809299807473L410.1177166666667,61.70856974855599L411.4884777777778,59.781427311417076L411.5985388888889,58.336070483562764L411.7586277777778,57.25205286267203L412.4990388888889,59.81403642835318L412.6291111111111,61.735524102614136L413.104375,59.8016430769606L413.8547916666667,61.72622908906959L414.0148805555556,59.794671816802236L414.91538055555554,58.34600386260166L415.4907,57.25950289695123L415.6708,59.819623954062536L416.33116666666666,61.73971474689614L416.8164361111111,66.5547796228704L417.06157222222225,70.16607827985115L417.8520111111111,66.12455870988845L419.678025,69.84341259511473L420.02321666666666,72.6325530090345L420.29336666666666,67.97441475677579L420.46346111111114,67.85580784893102L422.4845833333333,67.76685266804748L423.5551777777778,64.32513950103561L423.8703527777778,61.74385462577675L424.87591111111107,59.80789096933256L424.9109305555556,58.35591822699945L425.8614583333333,67.39192901429715L425.9565111111111,64.04394676072286L425.9665166666666,61.532960070542174L426.90703888888885,63.0247168342558L428.4178777777778,60.76853762569186L428.59297499999997,62.45140000061804L430.2689055555556,60.338550000463556L430.4890277777778,58.75391250034767L431.6796888888889,57.56543437526079L432.5251583333333,56.674075781445595L432.90536944444443,56.00555683608411L433.1054805555556,58.87916440841224L433.2605666666667,57.65937330630908L434.11604166666666,56.74452997973185L434.4262138888889,59.433394266148014L434.9615111111111,58.075045699610996L435.65189444444445,57.05628427470833L436.3422777777778,56.29221320603119L436.6624555555556,55.71915990452334L438.1782972222222,55.289369928392546L439.13883055555556,58.34202422764349L440.21943055555556,60.631514952081886L440.2344388888889,62.34863299541064L441.0598972222222,63.63647152790719L442.4256555555555,64.60235042727953L442.49569444444444,65.32675960180882L442.6707916666667,62.49506970135673L442.9059222222222,63.7462990573668L444.2766833333333,64.6847210743743L445.1671777777778,62.013540805780735L445.30225277777777,63.385152385684705L445.30725555555557,64.41386107061282L445.7725138888889,71.93538614700708L448.4389944444444,70.82653639160458L448.6090888888889,73.36989585640191L448.8192055555556,71.90241867365063L449.8497777777778,67.42681400523793L450.27501388888885,74.195100847976L451.1805166666667,69.14632563598201L451.3906333333333,65.35974422698649L453.8119777777778,65.89480495158915L454.1321555555556,62.921103713691764L455.3278194444444,60.69082778526882L455.47790277777773,65.76811440165L456.1732888888889,62.82608580123747L456.4084194444444,63.99456113227723L456.89869166666665,64.87091763055707L458.37451111111113,62.153188222917834L458.4845722222222,60.11489116718832L459.13993611111107,61.96116515674049L459.4100861111111,59.97087386755544L459.60019166666666,61.85315218201583L460.09046388888885,63.26486091786097L460.1004694444445,60.94864568839574L461.13104166666665,65.96147782899516L461.40619444444445,69.72110193444479L461.46622777777776,65.7908264508336L462.3317083333333,66.21811661947436L462.77195277777776,63.163587464605655L464.2727861111111,60.872690598454255L466.08879444444443,59.15451794884075L466.09379722222224,57.86588846163062L466.1188111111111,56.899416346223006L469.17050555555556,59.54955904101644L469.7808444444444,61.53716606211145L470.2961305555555,59.65287454658369L470.59629722222223,58.23965590993777L471.22164444444445,57.179741932453396L471.3467138888889,56.38480644934003L473.617975,55.78860483700504L474.37339444444444,55.34145362775382L474.8236444444445,55.00609022081534L475.4940166666667,61.50456122830997L476.7247,59.62842092123242L476.81474999999995,61.596312472273496L479.73136944444445,59.697234354205136L481.16216388888887,65.02291932835215L481.17717222222217,65.64218627761329L481.2121916666667,62.73163970820997L481.99762777777784,60.54872978115759L482.52792222222223,69.0365376799158L483.0582166666667,65.27740325993688L483.72358611111116,65.83304922630185L483.9387055555555,66.24978370107556L485.04431944444445,63.187337775806725L485.8447638888889,64.26550011320427L486.4651083333333,61.69912508490313L487.1454861111111,59.774343813677376L487.32058333333333,61.70575464160726L488.8964583333334,59.779315981205514L489.917025,58.334486985904164L490.78250555555553,57.25086523942804L491.0376472222222,56.438148929571014L491.8781138888889,59.20360847852754L492.0532111111111,61.27770314024485L492.71357777777774,62.83327413653279L493.86421666666666,60.624955602399666L494.1293638888889,65.71871026449816L494.57461111111104,62.7890326983736L495.12991944444445,60.59177452378026L495.2249722222222,58.94383089283531L495.99039722222227,57.70787316962651L496.42563888888884,56.78090487721994L497.31613333333337,59.460675439264094L499.3822805555555,58.095506579448L499.97260833333337,57.07162993458604L500.2877833333333,56.303722450939574L500.993175,65.85278218225227L501.76360277777775,66.2645834180384L502.18383611111113,63.198437563528785L504.1249138888889,60.898828172646574L504.2099611111111,59.17412112948489L504.41507500000006,57.88059084711358L504.77027222222216,56.91044313533513L505.50568055555556,56.18283235150136L507.08655833333336,55.637124263625935L507.5818333333333,55.227843197719494L507.82696944444444,58.29587917963886L508.49734166666667,57.221909384729145L509.53791944444447,59.791428819896L509.818075,58.34357161492204L512.6396416666666,57.25767871119143L512.7346944444445,56.44325903339359L513.4300805555556,55.83244427504519L513.780275,55.37433320628389L514.590725,58.40574668606223L514.6107361111111,60.67930679589591L515.286111111111,59.00948009692195L517.0370833333334,61.132106854040615L517.9776055555556,59.349080140530475L518.1877222222222,61.38680688674708L518.2277444444445,59.54010516506037L518.2577611111111,58.15507887379516L518.4378611111111,57.116309155346414L518.4578722222221,56.337231866509796L518.8480888888889,55.75292389988232L519.2032861111112,58.689689706260936L519.2633194444445,57.51726727969566L519.3683777777778,56.63795045977173L520.5740472222222,55.97846284482887L520.5840527777777,58.85884391497086L525.5918333333333,57.64413293622812L525.8669861111111,56.7330997021711L530.5495861111111,56.04982477662833L530.8147333333334,55.53736858247123L530.979825,55.15302643685345L531.2349666666667,54.864769827640146L532.2005027777777,58.023574152079334L532.2955555555556,57.017680614059486L533.4361888888889,59.63825724189388L533.5862722222222,58.22869293142031L534.2066166666666,57.171519698565305L534.2466388888889,56.37863977392408L534.5768222222222,55.78397983044306L535.8625361111111,62.087978435530715L536.1877166666667,60.065983826647994L536.3378,61.92448465133515L538.4039472222222,59.94336348850129L538.5490277777778,58.45752261637597L539.7947194444445,60.71813874363124L539.9247916666667,59.03860405772343L539.9347972222222,57.77895304329263L540.074875,56.83421478246953L542.7663694444445,56.12566108685223L544.3822666666667,55.594245815139175L544.9075583333333,55.19568436135438L545.8730944444444,58.271760052364925L546.3133388888889,60.578816820622876L547.2638666666667,58.9341126154672L547.3939388888889,61.07558124294957L547.664088888889,59.30668593221225L547.7341277777778,61.35501123050835L547.7441333333333,59.51625842288132L549.3550277777778,61.51219059851019L550.47565,59.6341429488827L552.5518027777778,58.225607211662066L552.7168944444445,57.16920540874662L553.557361111111,56.37690405656002L553.7924916666667,62.53267160511842L555.2132805555556,60.39950370383872L557.7196722222222,58.79962777787898L558.2349583333333,60.97471761475845L558.5751472222222,59.23103821106878L559.1704777777778,57.923278658301626L559.2605277777778,60.317455775075416L560.2911,58.73809183130652L560.426175,57.55356887347989L561.6518555555556,56.66517665510992L561.8369583333333,59.37387927268156L561.9069972222222,58.03040945451119L563.2677527777778,57.02280709088336L564.0832055555555,56.26710531816258L564.7986027777778,59.07532576997107L565.9742555555556,57.80649432747833L566.6196138888889,56.854870745608764L566.6896527777778,56.141153059206545L567.8202805555555,55.605864794404965L567.8653055555556,55.20439859580381L567.9553555555556,58.278295728202124L568.1104416666667,60.58371857750069L568.1904861111111,58.937788933125546L568.5456833333333,57.7033416998442L568.7407916666667,56.77750627488325L569.9664722222223,56.08312970616248L570.0715305555556,55.56234727962186L570.1565777777778,58.54675724106568L570.4517416666666,60.78506471214848L570.9670277777778,59.08879853411145L571.3522416666666,61.19159568193277L572.222725,59.39369676144963L572.6929861111112,64.79526613378556L573.5334527777777,62.0964496003391L574.5440138888889,60.07233720025431L575.0643027777778,58.55425290019076L575.4345083333334,57.41568967514303L576.0698611111111,56.56176725635726L579.1165527777778,59.29632222361715L580.1621333333334,57.972241667712865L580.9525722222222,56.979181250784734L581.1276694444445,56.234385938088565L581.4828666666667,59.05078623491562L582.3833666666667,57.788089676186644L583.4139388888889,56.84106725713991L583.864188888889,56.130800442854934L584.9648,55.59810033214126L584.9798083333333,55.198575249106L585.935338888889,54.898931436829514L586.6507361111111,61.42419214032054L587.4011527777778,59.568144105240435L587.4811972222222,58.17610807893038L587.5462333333334,57.132081059197844L587.57625,56.3490607943985L588.1015416666667,55.76179559579896L588.2466222222222,55.321346696849105L588.4217194444444,54.991010022636885L589.5223305555555,54.74325751697762L591.8035972222222,54.55744313773323L592.2238305555555,54.418082353299894L593.5245527777777,54.31356176497496L596.7813611111111,57.610168105080504L596.8263861111111,56.70762607881028L597.7468972222223,56.03071955910764L598.7324444444445,55.52303966933073L599.1826944444445,58.51727653334717L599.5128777777778,60.762954181359476L599.5579027777777,62.4472124173688L599.8980916666667,60.33540931302656L603.7802472222222,58.75155698476999L605.1660166666667,57.563667738577465L605.22605,56.67275080393307L607.0770777777777,56.00456310294976L607.137111111111,55.50342232721238L607.2721861111112,55.12756674540924L607.5523416666666,54.84567505905693L607.9975888888889,54.634256294292754L608.692975,54.47569222071962L609.6234916666667,54.35676916553962L609.6785222222222,54.26757687415471L609.8836361111112,54.20068265561599L611.0442805555555,54.150511991711994L611.3844694444444,54.11288399378407L611.8347194444444,54.084662995338135L612.0098166666667,54.063497246503516L612.7002,57.422619716226905L613.2555083333334,56.56696478717009L613.6357194444445,55.92522359037764L613.6507277777778,55.44391769278326L613.9608999999999,55.08293826958743L614.070961111111,54.812203702190686L615.0264916666667,54.60915277664304L615.2866361111111,61.206858145180604L616.6573972222222,59.40514360888545L617.4228222222222,58.053857706664076L617.6029222222222,57.04039327999811L617.6729611111111,56.28029495999857L618.3633444444445,55.71022121999897L618.6785194444444,62.03265947769762L618.9086472222222,63.39949138962237L620.0342722222222,61.049618542216706L621.4900805555556,59.287213906662544L621.7652333333333,57.96541042999689L622.535661111111,56.97405782249763L623.2510583333334,56.23054336687318L624.2916361111111,55.67290752515487L624.746888888889,55.25468064386615L624.8419416666667,54.94101048289963L625.2471666666667,54.705757862174664L629.5545583333334,57.90431517798021L632.6512777777779,60.303233164834296L633.6618388888888,58.72742487362581L634.4522777777778,57.54556865521931L634.6123666666666,60.034173272763724L636.0481638888889,58.52562995457282L636.6635055555556,57.3942224659296L637.8091416666667,56.54566684944723L638.2043611111111,55.909250137085394L638.9697861111111,55.43193760281406L639.3399916666666,55.07395320211049L640.0754,54.80546490158292L640.1704527777778,54.60409867618722L640.7357666666667,54.45307400714046L642.9269833333333,54.33980550535534L643.0570555555556,54.25485412901645L643.542325,54.19114059676235L644.4528305555556,54.143355447571764L644.8830694444445,54.107516585678866L645.9636694444445,54.08063743925908L646.7190888888889,54.06047807944435L646.8241472222222,54.045358559583406L646.8691722222222,54.034018919687526L647.72965,54.0255141897656L650.0159194444444,54.019135642324215L651.2716166666667,54.01435173174309L651.8319277777778,54.01076379880732L652.2071361111111,54.00807284910553L654.8786194444444,54.00605463682905L655.0937388888889,54.0045409776219L655.4989638888889,54.00340573321648L657.024811111111,54.00255429991239L657.2549388888889,54.00191572493435L659.1409861111111,54.00143679370075L659.3661111111111,54.00107759527566L659.771336111111,54.00080819645672L660.1165277777778,54.00060614734258L660.5467666666667,54.00045461050695L662.1926805555556,54.000340957880155L662.5128583333334,54.00025571841013L663.2532694444444,54.00019178880757L663.5634416666667,57.37514062295497L664.5790055555556,56.53135546721626L665.6696111111111,55.89851660041222L665.7946805555556,55.42388745030911L668.4161361111111,55.06791558773176L669.1015166666666,54.80093669079895L669.9970138888889,54.6007025180993L670.0820611111111,54.45052688857447L670.3672194444445,54.33789516643094L670.6924,54.25342137482312L671.5528777777778,57.56506281246652L673.6990694444445,56.673797109350005L673.9792249999999,56.005347832012546L674.5895638888888,55.50401087400945L674.9497638888889,55.128008155507075L675.5701083333333,54.84600611663035L676.1704416666666,54.634504587472804L677.311075,54.47587844060462L677.761325,54.35690883045345L678.5167444444444,54.26768162284009L679.0120194444445,54.20076121713015L679.4122416666667,54.15057091284757L680.2677166666666,54.112928184635734L680.9180777777779,54.08469613847683L681.3933416666667,54.06352210385768L681.4433694444444,54.047641577893216L681.5584333333334,54.0357311834199L682.2588222222222,54.02679838756495L682.8441472222223,54.02009879067367L683.4694944444445,54.01507409300524L684.5450916666666,54.01130556975397L685.2454805555556,54.008479177315564L685.9008444444444,54.00635938298666L686.0009,54.00476953724001L687.866936111111,54.003577152930006L687.9669916666667,54.00268286469742L688.07205,54.00201214852308L688.1420888888888,57.37650589274148L688.9275250000001,56.532379419556094L690.6935055555556,55.89928456466703L691.5539833333333,62.17445698619872L691.6190194444445,60.13084273964904L692.4544833333333,58.59813205473682L694.3905583333334,57.44859904105272L694.5206305555555,56.58644928078945L694.8157944444445,55.93983696059223L695.6162388888889,55.45487772044419L696.2015638888888,58.46615507168224L696.2165722222222,57.34961630376171L696.5267444444445,56.51221222782124L696.7518694444444,59.25915595221511L698.1076222222222,57.944366964161304L698.7679888888889,60.333272004470246L699.4833861111111,58.74995400335257L699.8986166666666,57.5624655025145L699.9386388888888,56.67184912688589L700.2538138888889,56.00388684516446L701.2893888888889,55.50291513387339L704.0309111111111,55.127186350405L704.686275,54.84538976280368L705.0664861111111,54.63404232210269L706.127075,54.47553174157713L706.1620944444445,54.356648806182875L706.3822166666666,54.2674866046371L707.0625944444445,54.200614953477896L707.5878861111111,54.15046121510841L709.3088416666666,54.11284591133125L709.4189027777778,54.084634433498536L709.5990027777777,54.063475825123874L709.8491416666667,54.04760686884299L712.0303527777778,54.035705151632214L712.2554777777777,54.02677886372413L712.2904972222223,57.395080929142296L712.3805472222222,59.921307478205904L712.4956111111112,61.815977390003695L712.8908305555556,59.861983042502686L713.1559777777777,58.396487281877L715.3672055555555,57.29736546140771L715.5723194444445,56.473024096055724L715.62735,55.85476807204191L715.8574777777777,55.391076054031316L716.0225694444443,55.04330704052359L716.0475833333334,54.78248028039263L716.6229027777778,54.58686021029445L716.8980555555555,54.440145157720906L717.7035027777778,54.33010886829061L718.6240138888888,54.247581651217956L719.2393555555556,54.18568623841355L719.8496944444445,57.51426146015933L720.6751527777778,60.01069287646874L720.6951638888888,58.50801965735167L721.320511111111,57.38101474301385L721.6707055555555,56.5357610572604L721.9608666666667,55.901820792945216L722.5411888888889,55.42636559470901L723.1115055555556,58.44477097738104L723.1665361111111,60.70857501438502L726.25325,59.031431260788736L726.4833777777778,57.77357344559152L727.33385,56.83018008419373L728.8997194444445,56.12263506314531L731.2160055555556,55.59197629735894L731.4011083333334,55.193982223019304L731.6812638888889,54.89548666726438L733.0420194444445,54.6716150004483L733.2021083333334,54.50371125033621L733.3421861111111,54.37778343775216L734.2376833333334,54.28333757831416L735.6034416666666,54.21250318373569L736.203775,54.15937738780178L736.3138361111112,57.49452982220049L736.3988833333333,56.620897366650354L737.9447416666667,55.96567302498784L738.41,55.47425476874088L739.8107777777778,55.105691076555786L740.4711444444445,54.82926830741678L740.956413888889,57.99694801191174L741.9669749999999,56.99771100893389L744.2782583333334,56.248283256700404L744.7385138888889,55.6862124425254L745.1887638888888,55.26465933189411L746.4444611111111,54.948494498920695L746.8997138888889,54.71137087419055L747.394988888889,54.53352815564284L747.6701416666667,54.40014611673206L748.0403472222222,54.300109587549116L748.0753666666667,54.225082190661794L749.2610249999999,57.543808424345514L750.8068833333333,56.65785631825918L751.1470722222223,55.993392238694355L751.9124972222222,55.49504417902085L752.0825916666668,55.121283134265695L752.2226694444444,54.840962350699215L752.5578555555555,54.63072176302444L753.9636361111111,54.47304132226839L754.4338972222222,54.35478099170126L754.8641361111111,54.26608574377593L755.7196111111111,54.199564307831906L755.9397333333334,54.14967323087387L756.0247805555556,54.11225492315543L757.3955416666666,54.08419119236652L757.9358416666666,54.0631433942749L759.6117722222222,54.04735754570618L759.8519055555555,54.03551815927966L760.2271138888889,54.02663861945979L760.29215,54.01997896459494L760.492261111111,54.01498422344622L761.5628555555555,54.01123816758468L762.5734166666666,54.008428625688566L762.748513888889,54.00632146926648L763.4138833333334,54.00474110194989L764.6195527777778,54.00355582646239L765.8152166666667,54.002666869846905L766.730725,54.00200015238522L767.5912027777778,54.001500114289L768.6668,54.00112508571681L769.1120472222223,54.000843814287634L770.2776944444445,54.00063286071577L770.6378944444444,54.00047464553688L771.683475,54.00035598415269L772.1887555555555,54.00026698811445L773.7045972222222,54.00020024108585L775.3655194444444,54.00015018081433L776.1759694444445,54.00011263561066L776.3110444444444,54.000084476708025L776.4911444444444,54.000063357531076L776.5011499999999,57.37504429949752L777.2965916666666,56.53128322462305L777.8118777777778,55.898462418467375L778.2771361111111,55.42384681385056L778.4022055555556,55.06788511038798L778.7924222222222,54.800913832791025L778.8224388888889,54.600685374593354L778.8474527777778,54.4505140309451L779.4928111111111,57.71288230455809L781.7490638888889,56.784661728418655L782.8096527777777,56.08849629631408L782.9097083333332,55.56637222223566L785.6962555555556,55.174779166676785L786.9969777777778,54.881084375007674L787.0570111111111,54.66081328125574L788.0575666666666,54.495609960941806L788.3927527777778,54.37170747070638L788.432775,54.27878060302987L788.9930861111111,54.209085452272404L790.0386666666666,54.156814089204374L790.2037583333333,54.11761056690324L792.1098166666667,54.08820792517747L793.0503388888889,54.06615594388313L793.2354416666667,54.04961695791235L793.5105944444445,54.03721271843426L794.5661805555555,54.02790953882578L795.1565083333334,54.02093215411929L795.9569527777778,54.01569911558943L797.237663888889,54.011774336692156L797.5628444444444,54.00883075251909L797.6378861111111,54.006623064389316L797.6578972222222,54.00496729829206L798.3632888888889,54.00372547371899L800.0742388888889,54.00279410528924L800.4394416666667,54.00209557896693" style="fill: none;" fill="none"></path></g><g><path stroke="rgb(255, 112, 67)" stroke-width="2px" d="M125.06944444444446,409.8059990118369L130.07222222222222,362.9483839581406L135.075,318.4809020319295L140.07777777777778,292.65827663959L145.08055555555558,270.12136936959257L150.08333333333331,243.73501973648402L155.0861111111111,227.4429559709318L160.0888888888889,212.8063513123902L165.09166666666667,197.8350947258388L170.09444444444443,185.93072512022846L175.09722222222223,177.70599090532917L180.10000000000002,166.0469682199753L185.10277777777776,159.39019837188582L190.10555555555555,155.2010376272706L195.10833333333335,149.6300370788315L200.1111111111111,143.57439302001805L205.11388888888888,137.547444460569L210.11666666666667,139.78000082242087L215.11944444444447,132.90321759391026L220.1222222222222,132.29699006822034L225.125,127.05982152576425L230.12777777777777,125.56344371331642L235.13055555555556,121.46277721503299L240.13333333333333,117.99596346599975L245.1361111111111,114.37732942826608L250.1388888888889,111.42852296106867L255.14166666666665,111.48978727809168L260.14444444444445,110.2034932293779L265.14722222222224,107.04459719671303L270.15,105.1456876095549L275.1527777777778,103.17298462628975L280.15555555555557,101.69348482072223L285.1583333333333,99.8002607286677L290.16111111111115,98.69379791103557L295.1638888888889,97.62887271550693L300.16666666666663,98.24070751432697L305.1694444444445,102.22583467855293L310.1722222222222,99.96446516656255L315.17499999999995,97.56319335860826L320.1777777777778,96.07567983345302L325.18055555555554,96.21383367974227L330.18333333333334,94.82857955555272L335.18611111111113,93.55455733017641L340.18888888888887,92.52068713230398L345.19166666666666,90.8833095316943L350.19444444444446,89.81200498175514L355.1972222222222,89.32196310818L360.20000000000005,88.40591319117641L365.2027777777778,88.58085080922382L370.2055555555555,87.85007908761025L375.20833333333337,87.30200033936649L380.2111111111111,87.43945979288543L385.21388888888885,86.68059964058301L390.2166666666667,86.8167012024989L395.21944444444443,86.91877737140379L400.2222222222222,86.36844188518063L405.225,85.79896209519774L410.22777777777776,84.98006198110352L415.23055555555555,83.97407650902664L420.23333333333335,84.39499846385684L425.2361111111111,83.69200705551515L430.23888888888894,84.81033897178162L435.2416666666667,84.39530270992924L440.2444444444444,85.18108253145022L445.24722222222226,84.04648789905258L450.25,83.50897816602583L455.25277777777774,83.57601028526778L460.25555555555553,84.17480282415335L465.2583333333334,83.84029656949537L470.2611111111111,86.09696714901906L475.2638888888889,84.4199450072054L480.26666666666665,83.7107169668468L485.26944444444445,83.10042178922288L490.2722222222222,81.70237156948502L495.27500000000003,80.73220805218727L500.2777777777778,80.0829394451103L505.28055555555557,79.20417760242896L510.2833333333333,79.48543505692106L515.286111111111,79.30458787696699L520.2888888888889,78.77714210462136L525.2916666666667,79.94877920832039L530.2944444444445,79.02520339402662L535.2972222222222,79.03776816064953L540.3,78.73375549565651L545.3027777777777,78.03558157868957L550.3055555555557,77.27686893185466L555.3083333333334,77.33470692664787L560.3111111111111,77.7698958101164L565.3138888888889,77.39104084538525L570.3166666666666,77.81214624916907L575.3194444444443,77.42272867467494L580.3222222222223,76.97393731554195L585.325,76.63734379619223L590.3277777777778,76.14981644756972L595.3305555555555,76.72449977254428L600.3333333333333,76.29355757724903L605.3361111111111,76.20543313988787L610.338888888889,75.74752942449402L615.3416666666667,76.73624086176272L620.3444444444444,77.32104626145161L625.3472222222222,77.13275771473508L630.3499999999999,76.36466882478175L635.3527777777779,75.86695618816469L640.3555555555556,75.57202574154906L645.3583333333333,75.03739166662979L650.3611111111111,74.79314428870305L655.3638888888888,74.60995875525771L660.3666666666667,74.31584142691122L665.3694444444445,74.3303356397617L670.3722222222223,74.34120629939946L675.375,74.66279553408555L680.3777777777777,74.59055122014229L685.3805555555555,73.98784953561687L690.3833333333333,73.37909509396007L695.3861111111112,73.39269368093795L700.3888888888889,73.71632886112917L705.3916666666667,73.95905524627267L710.3944444444444,74.61126445335077L715.3972222222221,74.55190290959126L720.4000000000001,74.19394551181381L725.4027777777778,73.53366707610763L730.4055555555556,73.66535084581153L735.4083333333333,73.52903146397904L740.411111111111,73.19170971849428L745.4138888888889,73.33050868018614L750.4166666666667,74.13985452878597L755.4194444444445,74.66850988438819L760.4222222222222,74.75156516113208L765.425,74.42204623131693L770.4277777777777,74.1749070339556L775.4305555555557,73.91119860508712L780.4333333333334,73.63504313602056L785.4361111111111,73.19284432511034L790.4388888888889,73.0179233951904L795.4416666666666,73.27854308512349" style="fill: none;" fill="none"></path></g></g></g></g><g opacity="0.2"><g><g><g><path stroke="rgb(0, 119, 187)" stroke-width="2px" d="M108.97050555555556,418.49997425079346L108.98551388888889,337.49997103214264L110.18618055555555,485.99999034404755L110.61641944444445,445.50002896785736L111.62197777777777,297.00000965595245L113.03276111111111,337.49997103214264L113.7581638888889,445.50002896785736L114.44354444444444,404.99998712539673L115.92436666666667,351.0000386238098L116.43465,404.99998712539673L116.6547722222222,297.00000965595245L116.659775,418.49997425079346L118.16060833333334,297.00000965595245L118.78095277777777,256.4999678134918L118.78595555555556,364.50002574920654L118.82597777777777,431.9999613761902L118.90602222222222,391.5L119.30124166666667,364.50002574920654L120.06166388888887,297.00000965595245L120.16672222222222,459.0000160932541L123.26844444444446,310.4999967813492L125.33459166666665,310.4999967813492L127.34570833333333,418.49997425079346L128.0511,323.9999839067459L128.93659166666666,216.00000643730166L131.09779166666667,337.49997103214264L131.73814722222224,270.000035405159L132.7086861111111,337.49997103214264L134.44965277777777,256.4999678134918L135.120025,270.000035405159L135.99050833333334,270.000035405159L136.2206361111111,202.50001931190494L136.82096944444444,337.49997103214264L138.67199722222222,297.00000965595245L139.1772777777778,283.5000225305557L141.16838333333334,189.0000321865082L141.86877222222222,189.0000321865082L142.02886111111113,297.00000965595245L142.06388055555556,229.4999935626984L142.504125,270.000035405159L144.63030555555557,216.00000643730166L145.90601388888888,148.4999903440476L147.0016222222222,202.50001931190494L147.02163333333334,283.5000225305557L147.69700833333334,161.99997746944427L147.7920611111111,216.00000643730166L148.2473138888889,256.4999678134918L148.31735277777778,256.4999678134918L149.257875,270.000035405159L149.27288333333334,216.00000643730166L149.83819722222222,216.00000643730166L150.44353333333333,175.49996459484103L151.1539277777778,270.000035405159L151.71924166666668,161.99997746944427L151.78427777777776,175.49996459484103L151.9793861111111,229.4999935626984L152.89489444444445,135.00000321865085L153.04998055555555,175.49996459484103L153.49522777777779,229.4999935626984L154.120575,216.00000643730166L154.28566666666666,229.4999935626984L154.35070277777777,351.0000386238098L154.7559277777778,270.000035405159L155.0010638888889,229.4999935626984L155.09611666666666,148.4999903440476L155.18116388888888,175.49996459484103L155.44130833333332,161.99997746944427L156.1667111111111,148.4999903440476L156.28677777777776,175.49996459484103L156.33680555555554,175.49996459484103L157.19728333333333,189.0000321865082L158.6931138888889,242.99998068809512L160.54914444444444,135.00000321865085L160.59416944444445,202.50001931190494L161.49967222222222,202.50001931190494L161.50467500000002,161.99997746944427L161.6147361111111,148.4999903440476L162.1400277777778,161.99997746944427L162.585275,121.50001609325415L162.6503111111111,161.99997746944427L163.0755472222222,148.4999903440476L163.14558611111113,229.4999935626984L165.0766583333333,135.00000321865085L165.63196666666667,202.50001931190494L165.9821611111111,121.50001609325415L166.63252222222224,135.00000321865085L166.68255,148.4999903440476L168.3884972222222,216.00000643730166L168.87876944444446,161.99997746944427L169.6542,161.99997746944427L170.84986388888888,202.50001931190494L171.39516666666665,108.00002896785742L171.75536666666667,80.99997425079351L172.5358,121.50001609325415L172.57081944444445,148.4999903440476L172.6208472222222,202.50001931190494L172.8259611111111,189.0000321865082L173.27120833333333,108.00002896785742L173.9465833333333,108.00002896785742L174.24174722222222,161.99997746944427L174.742025,161.99997746944427L174.76203611111112,189.0000321865082L175.24230277777778,108.00002896785742L175.61751111111113,148.4999903440476L175.9076722222222,189.0000321865082L175.94269166666666,161.99997746944427L176.00772777777777,175.49996459484103L176.34791666666666,189.0000321865082L176.61806666666666,108.00002896785742L176.633075,161.99997746944427L177.57359722222222,148.4999903440476L177.60861666666668,135.00000321865085L178.2789888888889,121.50001609325415L178.40405833333332,202.50001931190494L179.24952777777779,148.4999903440476L179.50466944444446,108.00002896785742L180.58526944444444,202.50001931190494L181.18560277777777,148.4999903440476L182.83651944444443,121.50001609325415L183.29177222222222,94.49996137619024L184.08221111111112,202.50001931190494L184.40238888888888,216.00000643730166L187.29399444444445,135.00000321865085L187.41906388888887,161.99997746944427L187.889325,135.00000321865085L187.91934166666667,121.50001609325415L187.9593638888889,94.49996137619024L188.55469444444446,161.99997746944427L188.9949388888889,161.99997746944427L190.18059722222222,121.50001609325415L190.4757611111111,148.4999903440476L191.6914361111111,80.99997425079351L193.08220833333334,121.50001609325415L196.99938333333333,135.00000321865085L197.38459722222223,121.50001609325415L197.64474166666668,80.99997425079351L197.65474722222223,80.99997425079351L198.77536944444446,121.50001609325415L199.0054972222222,108.00002896785742L199.24563055555555,121.50001609325415L199.55079999999998,135.00000321865085L199.60583055555557,121.50001609325415L200.24618611111111,108.00002896785742L201.74201666666667,94.49996137619024L203.07275555555555,121.50001609325415L203.47297777777777,108.00002896785742L204.03829166666665,108.00002896785742L205.32900833333335,135.00000321865085L206.5747,121.50001609325415L208.40571666666665,135.00000321865085L210.50688333333335,108.00002896785742L212.12778333333333,108.00002896785742L212.19782222222221,108.00002896785742L212.24785,202.50001931190494L212.8381777777778,80.99997425079351L212.8832027777778,67.49998712539673L213.6186111111111,121.50001609325415L213.79871111111112,94.49996137619024L213.97881111111113,94.49996137619024L214.84429166666666,108.00002896785742L217.9009888888889,108.00002896785742L218.4813111111111,94.49996137619024L219.9721388888889,108.00002896785742L221.05273888888888,148.4999903440476L221.44795833333333,67.49998712539673L222.79870833333334,80.99997425079351L222.9888138888889,148.4999903440476L223.05385,54.00000000000006L224.30454444444445,108.00002896785742L224.9499027777778,80.99997425079351L227.73144722222222,108.00002896785742L228.7920361111111,80.99997425079351L230.43795,94.49996137619024L231.88375277777777,80.99997425079351L232.40904444444442,67.49998712539673L234.73533611111114,121.50001609325415L235.32066111111112,54.00000000000006L235.43572500000002,80.99997425079351L235.95101111111111,94.49996137619024L238.33233333333334,94.49996137619024L238.73755833333334,135.00000321865085L241.8492861111111,161.99997746944427L243.0049277777778,108.00002896785742L244.24561666666665,94.49996137619024L244.94100277777778,80.99997425079351L246.31176388888886,67.49998712539673L247.0921972222222,121.50001609325415L247.4974222222222,80.99997425079351L247.85762222222223,121.50001609325415L249.3634583333333,67.49998712539673L250.11887777777775,108.00002896785742L250.16890555555557,67.49998712539673L250.99936666666667,135.00000321865085L251.33955555555553,67.49998712539673L251.51965555555557,94.49996137619024L251.69975555555556,67.49998712539673L252.38513611111108,67.49998712539673L252.4301611111111,94.49996137619024L253.25061666666667,67.49998712539673L254.44127777777777,67.49998712539673L255.90208888888887,67.49998712539673L256.1622333333333,54.00000000000006L256.2572861111111,80.99997425079351L256.6825222222222,94.49996137619024L256.78257777777776,67.49998712539673L258.4935277777778,94.49996137619024L259.58413333333334,80.99997425079351L260.0143722222222,108.00002896785742L261.74033055555554,54.00000000000006L261.95044722222224,135.00000321865085L263.67140277777776,67.49998712539673L265.3673444444444,80.99997425079351L265.6525027777778,94.49996137619024L265.782575,67.49998712539673L265.9826861111111,108.00002896785742L266.7481111111111,94.49996137619024L266.8531694444444,54.00000000000006L267.4434972222222,54.00000000000006L268.32398611111114,54.00000000000006L269.70975555555555,94.49996137619024L270.2650638888889,80.99997425079351L271.365675,80.99997425079351L271.80591944444444,94.49996137619024L271.905975,67.49998712539673L272.7414388888889,94.49996137619024L273.73699166666665,67.49998712539673L275.9682305555556,67.49998712539673L276.18835277777777,108.00002896785742L276.61859166666665,94.49996137619024L276.70363888888886,108.00002896785742L276.9187583333333,67.49998712539673L276.99379999999996,80.99997425079351L277.2289305555555,54.00000000000006L278.30452777777776,94.49996137619024L278.42459444444444,54.00000000000006L278.4996361111111,67.49998712539673L279.7903527777778,80.99997425079351L280.91597777777775,54.00000000000006L280.9509972222222,67.49998712539673L281.94154722222225,54.00000000000006L281.9665611111111,121.50001609325415L282.1466611111111,94.49996137619024L282.892075,67.49998712539673L283.8976333333333,94.49996137619024L284.1427694444444,80.99997425079351L284.83815555555555,94.49996137619024L285.21336388888886,67.49998712539673L286.0538305555556,80.99997425079351L286.24893888888886,80.99997425079351L289.0655027777778,67.49998712539673L289.36566944444445,54.00000000000006L290.5263138888889,108.00002896785742L290.78645833333337,54.00000000000006L291.7569972222222,54.00000000000006L292.97267222222223,80.99997425079351L293.1077472222222,80.99997425079351L294.3534388888889,67.49998712539673L296.61469444444447,108.00002896785742L296.7847888888889,67.49998712539673L297.029925,94.49996137619024L297.4451555555556,94.49996137619024L297.53520555555554,54.00000000000006L297.8904027777778,94.49996137619024L298.2956277777778,94.49996137619024L299.1210861111111,67.49998712539673L299.13609444444444,67.49998712539673L299.6063555555556,67.49998712539673L299.6113583333333,54.00000000000006L301.07216944444446,80.99997425079351L301.7775611111111,54.00000000000006L301.8225861111111,108.00002896785742L303.38845555555554,108.00002896785742L304.233925,108.00002896785742L304.3840083333333,94.49996137619024L305.1544361111111,67.49998712539673L305.17945,80.99997425079351L305.38956666666667,54.00000000000006L306.71530277777777,108.00002896785742L307.17555833333336,67.49998712539673L307.7708888888889,80.99997425079351L308.196125,67.49998712539673L310.4223611111111,67.49998712539673L311.8081305555556,54.00000000000006L312.5035166666667,54.00000000000006L312.83369999999996,67.49998712539673L313.4040166666666,54.00000000000006L315.1950111111111,67.49998712539673L315.7853388888889,54.00000000000006L316.03047499999997,80.99997425079351L316.1505416666667,54.00000000000006L317.5813361111111,80.99997425079351L317.63136388888887,67.49998712539673L317.8965111111111,54.00000000000006L318.15165277777777,80.99997425079351L318.27171944444444,54.00000000000006L318.33675555555556,67.49998712539673L319.1572111111111,80.99997425079351L319.2022361111111,54.00000000000006L319.24726111111113,54.00000000000006L319.7525416666666,54.00000000000006L320.0627138888889,54.00000000000006L320.2728305555555,67.49998712539673L320.3578777777778,54.00000000000006L320.8431472222222,54.00000000000006L321.0682722222222,54.00000000000006L322.13386388888887,80.99997425079351L322.1989,67.49998712539673L323.04436944444444,80.99997425079351L323.6397,67.49998712539673L324.0699388888889,80.99997425079351L325.3156305555555,54.00000000000006L326.57633055555556,54.00000000000006L326.8164638888889,80.99997425079351L327.3217444444444,121.50001609325415L327.5768861111111,108.00002896785742L328.5424222222222,94.49996137619024L328.54742500000003,67.49998712539673L332.15943055555556,108.00002896785742L332.599675,54.00000000000006L333.34008611111113,54.00000000000006L334.95598333333334,67.49998712539673L335.8014527777778,67.49998712539673L335.89650555555556,54.00000000000006L336.381775,54.00000000000006L338.31784999999996,54.00000000000006L342.30006111111106,94.49996137619024L343.2706,94.49996137619024L343.4807166666667,67.49998712539673L343.59578055555556,54.00000000000006L343.6808277777778,67.49998712539673L344.27615833333334,54.00000000000006L345.5518666666666,54.00000000000006L345.82701944444443,67.49998712539673L345.9871083333333,80.99997425079351L346.6074527777778,54.00000000000006L346.9776583333333,54.00000000000006L347.4379138888889,67.49998712539673L347.74308333333335,54.00000000000006L348.00823055555554,54.00000000000006L348.9337444444444,80.99997425079351L349.2489194444445,108.00002896785742L349.66415,67.49998712539673L349.94430555555556,108.00002896785742L350.3445277777778,54.00000000000006L350.66470555555554,54.00000000000006L350.88482777777773,80.99997425079351L350.8898305555556,80.99997425079351L350.9948888888889,67.49998712539673L351.1299638888889,54.00000000000006L352.9809916666667,67.49998712539673L353.52629444444443,67.49998712539673L353.7714305555555,54.00000000000006L354.0365777777778,54.00000000000006L355.46737222222225,67.49998712539673L355.5224027777778,54.00000000000006L356.6780444444444,54.00000000000006L356.8731527777778,67.49998712539673L356.99822222222224,80.99997425079351L358.3339638888889,67.49998712539673L358.7892166666666,94.49996137619024L359.75475277777775,54.00000000000006L362.57631944444444,80.99997425079351L362.8014444444445,67.49998712539673L364.5224,67.49998712539673L365.2678138888889,80.99997425079351L365.5529722222222,54.00000000000006L366.7086138888889,54.00000000000006L367.04380000000003,80.99997425079351L367.3389638888889,67.49998712539673L367.84924722222223,54.00000000000006L368.4595861111111,54.00000000000006L368.70472222222224,67.49998712539673L369.1649777777778,67.49998712539673L369.19499444444443,54.00000000000006L369.25002500000005,54.00000000000006L370.13551666666666,67.49998712539673L370.420675,54.00000000000006L371.0310138888889,54.00000000000006L371.8064444444445,67.49998712539673L372.4518027777778,80.99997425079351L374.2077777777778,54.00000000000006L374.8081111111111,54.00000000000006L374.89315833333336,54.00000000000006L375.373425,67.49998712539673L377.6697,54.00000000000006L378.12495277777776,54.00000000000006L379.10549722222225,54.00000000000006L380.57131111111113,67.49998712539673L380.8164472222222,54.00000000000006L381.07158888888887,54.00000000000006L381.8270083333333,80.99997425079351L383.58298333333335,54.00000000000006L383.64301666666665,80.99997425079351L383.6830388888889,54.00000000000006L384.21333333333337,67.49998712539673L384.59854722222224,67.49998712539673L385.24390555555556,54.00000000000006L385.96430555555554,54.00000000000006L386.47959166666664,54.00000000000006L387.1999916666667,67.49998712539673L387.85535555555555,80.99997425079351L388.790875,54.00000000000006L388.95596666666665,54.00000000000006L389.2261166666667,54.00000000000006L389.8814805555556,67.49998712539673L390.3367333333333,67.49998712539673L390.5618583333333,80.99997425079351L391.15718888888887,54.00000000000006L391.5674166666667,67.49998712539673L391.5774222222222,54.00000000000006L393.17831111111116,54.00000000000006L394.0988222222222,54.00000000000006L394.644125,54.00000000000006L394.74418055555554,67.49998712539673L395.4996,54.00000000000006L395.55463055555555,54.00000000000006L397.6608,67.49998712539673L397.87591944444443,80.99997425079351L398.2511277777778,67.49998712539673L399.4217777777778,94.49996137619024L399.74695833333334,80.99997425079351L400.8725833333333,54.00000000000006L401.6280027777778,94.49996137619024L402.07325000000003,67.49998712539673L402.81866388888886,67.49998712539673L402.97875277777774,67.49998712539673L405.4101027777778,54.00000000000006L405.5701916666667,108.00002896785742L406.8058777777778,54.00000000000006L409.3322805555556,67.49998712539673L409.4773611111111,54.00000000000006L409.73250277777777,54.00000000000006L409.94261944444446,67.49998712539673L410.1177166666667,54.00000000000006L411.4884777777778,54.00000000000006L411.5985388888889,54.00000000000006L411.7586277777778,54.00000000000006L412.4990388888889,67.49998712539673L412.6291111111111,67.49998712539673L413.104375,54.00000000000006L413.8547916666667,67.49998712539673L414.0148805555556,54.00000000000006L414.91538055555554,54.00000000000006L415.4907,54.00000000000006L415.6708,67.49998712539673L416.33116666666666,67.49998712539673L416.8164361111111,80.99997425079351L417.06157222222225,80.99997425079351L417.8520111111111,54.00000000000006L419.678025,80.99997425079351L420.02321666666666,80.99997425079351L420.29336666666666,54.00000000000006L420.46346111111114,67.49998712539673L422.4845833333333,67.49998712539673L423.5551777777778,54.00000000000006L423.8703527777778,54.00000000000006L424.87591111111107,54.00000000000006L424.9109305555556,54.00000000000006L425.8614583333333,94.49996137619024L425.9565111111111,54.00000000000006L425.9665166666666,54.00000000000006L426.90703888888885,67.49998712539673L428.4178777777778,54.00000000000006L428.59297499999997,67.49998712539673L430.2689055555556,54.00000000000006L430.4890277777778,54.00000000000006L431.6796888888889,54.00000000000006L432.5251583333333,54.00000000000006L432.90536944444443,54.00000000000006L433.1054805555556,67.49998712539673L433.2605666666667,54.00000000000006L434.11604166666666,54.00000000000006L434.4262138888889,67.49998712539673L434.9615111111111,54.00000000000006L435.65189444444445,54.00000000000006L436.3422777777778,54.00000000000006L436.6624555555556,54.00000000000006L438.1782972222222,54.00000000000006L439.13883055555556,67.49998712539673L440.21943055555556,67.49998712539673L440.2344388888889,67.49998712539673L441.0598972222222,67.49998712539673L442.4256555555555,67.49998712539673L442.49569444444444,67.49998712539673L442.6707916666667,54.00000000000006L442.9059222222222,67.49998712539673L444.2766833333333,67.49998712539673L445.1671777777778,54.00000000000006L445.30225277777777,67.49998712539673L445.30725555555557,67.49998712539673L445.7725138888889,94.49996137619024L448.4389944444444,67.49998712539673L448.6090888888889,80.99997425079351L448.8192055555556,67.49998712539673L449.8497777777778,54.00000000000006L450.27501388888885,94.49996137619024L451.1805166666667,54.00000000000006L451.3906333333333,54.00000000000006L453.8119777777778,67.49998712539673L454.1321555555556,54.00000000000006L455.3278194444444,54.00000000000006L455.47790277777773,80.99997425079351L456.1732888888889,54.00000000000006L456.4084194444444,67.49998712539673L456.89869166666665,67.49998712539673L458.37451111111113,54.00000000000006L458.4845722222222,54.00000000000006L459.13993611111107,67.49998712539673L459.4100861111111,54.00000000000006L459.60019166666666,67.49998712539673L460.09046388888885,67.49998712539673L460.1004694444445,54.00000000000006L461.13104166666665,80.99997425079351L461.40619444444445,80.99997425079351L461.46622777777776,54.00000000000006L462.3317083333333,67.49998712539673L462.77195277777776,54.00000000000006L464.2727861111111,54.00000000000006L466.08879444444443,54.00000000000006L466.09379722222224,54.00000000000006L466.1188111111111,54.00000000000006L469.17050555555556,67.49998712539673L469.7808444444444,67.49998712539673L470.2961305555555,54.00000000000006L470.59629722222223,54.00000000000006L471.22164444444445,54.00000000000006L471.3467138888889,54.00000000000006L473.617975,54.00000000000006L474.37339444444444,54.00000000000006L474.8236444444445,54.00000000000006L475.4940166666667,80.99997425079351L476.7247,54.00000000000006L476.81474999999995,67.49998712539673L479.73136944444445,54.00000000000006L481.16216388888887,80.99997425079351L481.17717222222217,67.49998712539673L481.2121916666667,54.00000000000006L481.99762777777784,54.00000000000006L482.52792222222223,94.49996137619024L483.0582166666667,54.00000000000006L483.72358611111116,67.49998712539673L483.9387055555555,67.49998712539673L485.04431944444445,54.00000000000006L485.8447638888889,67.49998712539673L486.4651083333333,54.00000000000006L487.1454861111111,54.00000000000006L487.32058333333333,67.49998712539673L488.8964583333334,54.00000000000006L489.917025,54.00000000000006L490.78250555555553,54.00000000000006L491.0376472222222,54.00000000000006L491.8781138888889,67.49998712539673L492.0532111111111,67.49998712539673L492.71357777777774,67.49998712539673L493.86421666666666,54.00000000000006L494.1293638888889,80.99997425079351L494.57461111111104,54.00000000000006L495.12991944444445,54.00000000000006L495.2249722222222,54.00000000000006L495.99039722222227,54.00000000000006L496.42563888888884,54.00000000000006L497.31613333333337,67.49998712539673L499.3822805555555,54.00000000000006L499.97260833333337,54.00000000000006L500.2877833333333,54.00000000000006L500.993175,94.49996137619024L501.76360277777775,67.49998712539673L502.18383611111113,54.00000000000006L504.1249138888889,54.00000000000006L504.2099611111111,54.00000000000006L504.41507500000006,54.00000000000006L504.77027222222216,54.00000000000006L505.50568055555556,54.00000000000006L507.08655833333336,54.00000000000006L507.5818333333333,54.00000000000006L507.82696944444444,67.49998712539673L508.49734166666667,54.00000000000006L509.53791944444447,67.49998712539673L509.818075,54.00000000000006L512.6396416666666,54.00000000000006L512.7346944444445,54.00000000000006L513.4300805555556,54.00000000000006L513.780275,54.00000000000006L514.590725,67.49998712539673L514.6107361111111,67.49998712539673L515.286111111111,54.00000000000006L517.0370833333334,67.49998712539673L517.9776055555556,54.00000000000006L518.1877222222222,67.49998712539673L518.2277444444445,54.00000000000006L518.2577611111111,54.00000000000006L518.4378611111111,54.00000000000006L518.4578722222221,54.00000000000006L518.8480888888889,54.00000000000006L519.2032861111112,67.49998712539673L519.2633194444445,54.00000000000006L519.3683777777778,54.00000000000006L520.5740472222222,54.00000000000006L520.5840527777777,67.49998712539673L525.5918333333333,54.00000000000006L525.8669861111111,54.00000000000006L530.5495861111111,54.00000000000006L530.8147333333334,54.00000000000006L530.979825,54.00000000000006L531.2349666666667,54.00000000000006L532.2005027777777,67.49998712539673L532.2955555555556,54.00000000000006L533.4361888888889,67.49998712539673L533.5862722222222,54.00000000000006L534.2066166666666,54.00000000000006L534.2466388888889,54.00000000000006L534.5768222222222,54.00000000000006L535.8625361111111,80.99997425079351L536.1877166666667,54.00000000000006L536.3378,67.49998712539673L538.4039472222222,54.00000000000006L538.5490277777778,54.00000000000006L539.7947194444445,67.49998712539673L539.9247916666667,54.00000000000006L539.9347972222222,54.00000000000006L540.074875,54.00000000000006L542.7663694444445,54.00000000000006L544.3822666666667,54.00000000000006L544.9075583333333,54.00000000000006L545.8730944444444,67.49998712539673L546.3133388888889,67.49998712539673L547.2638666666667,54.00000000000006L547.3939388888889,67.49998712539673L547.664088888889,54.00000000000006L547.7341277777778,67.49998712539673L547.7441333333333,54.00000000000006L549.3550277777778,67.49998712539673L550.47565,54.00000000000006L552.5518027777778,54.00000000000006L552.7168944444445,54.00000000000006L553.557361111111,54.00000000000006L553.7924916666667,80.99997425079351L555.2132805555556,54.00000000000006L557.7196722222222,54.00000000000006L558.2349583333333,67.49998712539673L558.5751472222222,54.00000000000006L559.1704777777778,54.00000000000006L559.2605277777778,67.49998712539673L560.2911,54.00000000000006L560.426175,54.00000000000006L561.6518555555556,54.00000000000006L561.8369583333333,67.49998712539673L561.9069972222222,54.00000000000006L563.2677527777778,54.00000000000006L564.0832055555555,54.00000000000006L564.7986027777778,67.49998712539673L565.9742555555556,54.00000000000006L566.6196138888889,54.00000000000006L566.6896527777778,54.00000000000006L567.8202805555555,54.00000000000006L567.8653055555556,54.00000000000006L567.9553555555556,67.49998712539673L568.1104416666667,67.49998712539673L568.1904861111111,54.00000000000006L568.5456833333333,54.00000000000006L568.7407916666667,54.00000000000006L569.9664722222223,54.00000000000006L570.0715305555556,54.00000000000006L570.1565777777778,67.49998712539673L570.4517416666666,67.49998712539673L570.9670277777778,54.00000000000006L571.3522416666666,67.49998712539673L572.222725,54.00000000000006L572.6929861111112,80.99997425079351L573.5334527777777,54.00000000000006L574.5440138888889,54.00000000000006L575.0643027777778,54.00000000000006L575.4345083333334,54.00000000000006L576.0698611111111,54.00000000000006L579.1165527777778,67.49998712539673L580.1621333333334,54.00000000000006L580.9525722222222,54.00000000000006L581.1276694444445,54.00000000000006L581.4828666666667,67.49998712539673L582.3833666666667,54.00000000000006L583.4139388888889,54.00000000000006L583.864188888889,54.00000000000006L584.9648,54.00000000000006L584.9798083333333,54.00000000000006L585.935338888889,54.00000000000006L586.6507361111111,80.99997425079351L587.4011527777778,54.00000000000006L587.4811972222222,54.00000000000006L587.5462333333334,54.00000000000006L587.57625,54.00000000000006L588.1015416666667,54.00000000000006L588.2466222222222,54.00000000000006L588.4217194444444,54.00000000000006L589.5223305555555,54.00000000000006L591.8035972222222,54.00000000000006L592.2238305555555,54.00000000000006L593.5245527777777,54.00000000000006L596.7813611111111,67.49998712539673L596.8263861111111,54.00000000000006L597.7468972222223,54.00000000000006L598.7324444444445,54.00000000000006L599.1826944444445,67.49998712539673L599.5128777777778,67.49998712539673L599.5579027777777,67.49998712539673L599.8980916666667,54.00000000000006L603.7802472222222,54.00000000000006L605.1660166666667,54.00000000000006L605.22605,54.00000000000006L607.0770777777777,54.00000000000006L607.137111111111,54.00000000000006L607.2721861111112,54.00000000000006L607.5523416666666,54.00000000000006L607.9975888888889,54.00000000000006L608.692975,54.00000000000006L609.6234916666667,54.00000000000006L609.6785222222222,54.00000000000006L609.8836361111112,54.00000000000006L611.0442805555555,54.00000000000006L611.3844694444444,54.00000000000006L611.8347194444444,54.00000000000006L612.0098166666667,54.00000000000006L612.7002,67.49998712539673L613.2555083333334,54.00000000000006L613.6357194444445,54.00000000000006L613.6507277777778,54.00000000000006L613.9608999999999,54.00000000000006L614.070961111111,54.00000000000006L615.0264916666667,54.00000000000006L615.2866361111111,80.99997425079351L616.6573972222222,54.00000000000006L617.4228222222222,54.00000000000006L617.6029222222222,54.00000000000006L617.6729611111111,54.00000000000006L618.3633444444445,54.00000000000006L618.6785194444444,80.99997425079351L618.9086472222222,67.49998712539673L620.0342722222222,54.00000000000006L621.4900805555556,54.00000000000006L621.7652333333333,54.00000000000006L622.535661111111,54.00000000000006L623.2510583333334,54.00000000000006L624.2916361111111,54.00000000000006L624.746888888889,54.00000000000006L624.8419416666667,54.00000000000006L625.2471666666667,54.00000000000006L629.5545583333334,67.49998712539673L632.6512777777779,67.49998712539673L633.6618388888888,54.00000000000006L634.4522777777778,54.00000000000006L634.6123666666666,67.49998712539673L636.0481638888889,54.00000000000006L636.6635055555556,54.00000000000006L637.8091416666667,54.00000000000006L638.2043611111111,54.00000000000006L638.9697861111111,54.00000000000006L639.3399916666666,54.00000000000006L640.0754,54.00000000000006L640.1704527777778,54.00000000000006L640.7357666666667,54.00000000000006L642.9269833333333,54.00000000000006L643.0570555555556,54.00000000000006L643.542325,54.00000000000006L644.4528305555556,54.00000000000006L644.8830694444445,54.00000000000006L645.9636694444445,54.00000000000006L646.7190888888889,54.00000000000006L646.8241472222222,54.00000000000006L646.8691722222222,54.00000000000006L647.72965,54.00000000000006L650.0159194444444,54.00000000000006L651.2716166666667,54.00000000000006L651.8319277777778,54.00000000000006L652.2071361111111,54.00000000000006L654.8786194444444,54.00000000000006L655.0937388888889,54.00000000000006L655.4989638888889,54.00000000000006L657.024811111111,54.00000000000006L657.2549388888889,54.00000000000006L659.1409861111111,54.00000000000006L659.3661111111111,54.00000000000006L659.771336111111,54.00000000000006L660.1165277777778,54.00000000000006L660.5467666666667,54.00000000000006L662.1926805555556,54.00000000000006L662.5128583333334,54.00000000000006L663.2532694444444,54.00000000000006L663.5634416666667,67.49998712539673L664.5790055555556,54.00000000000006L665.6696111111111,54.00000000000006L665.7946805555556,54.00000000000006L668.4161361111111,54.00000000000006L669.1015166666666,54.00000000000006L669.9970138888889,54.00000000000006L670.0820611111111,54.00000000000006L670.3672194444445,54.00000000000006L670.6924,54.00000000000006L671.5528777777778,67.49998712539673L673.6990694444445,54.00000000000006L673.9792249999999,54.00000000000006L674.5895638888888,54.00000000000006L674.9497638888889,54.00000000000006L675.5701083333333,54.00000000000006L676.1704416666666,54.00000000000006L677.311075,54.00000000000006L677.761325,54.00000000000006L678.5167444444444,54.00000000000006L679.0120194444445,54.00000000000006L679.4122416666667,54.00000000000006L680.2677166666666,54.00000000000006L680.9180777777779,54.00000000000006L681.3933416666667,54.00000000000006L681.4433694444444,54.00000000000006L681.5584333333334,54.00000000000006L682.2588222222222,54.00000000000006L682.8441472222223,54.00000000000006L683.4694944444445,54.00000000000006L684.5450916666666,54.00000000000006L685.2454805555556,54.00000000000006L685.9008444444444,54.00000000000006L686.0009,54.00000000000006L687.866936111111,54.00000000000006L687.9669916666667,54.00000000000006L688.07205,54.00000000000006L688.1420888888888,67.49998712539673L688.9275250000001,54.00000000000006L690.6935055555556,54.00000000000006L691.5539833333333,80.99997425079351L691.6190194444445,54.00000000000006L692.4544833333333,54.00000000000006L694.3905583333334,54.00000000000006L694.5206305555555,54.00000000000006L694.8157944444445,54.00000000000006L695.6162388888889,54.00000000000006L696.2015638888888,67.49998712539673L696.2165722222222,54.00000000000006L696.5267444444445,54.00000000000006L696.7518694444444,67.49998712539673L698.1076222222222,54.00000000000006L698.7679888888889,67.49998712539673L699.4833861111111,54.00000000000006L699.8986166666666,54.00000000000006L699.9386388888888,54.00000000000006L700.2538138888889,54.00000000000006L701.2893888888889,54.00000000000006L704.0309111111111,54.00000000000006L704.686275,54.00000000000006L705.0664861111111,54.00000000000006L706.127075,54.00000000000006L706.1620944444445,54.00000000000006L706.3822166666666,54.00000000000006L707.0625944444445,54.00000000000006L707.5878861111111,54.00000000000006L709.3088416666666,54.00000000000006L709.4189027777778,54.00000000000006L709.5990027777777,54.00000000000006L709.8491416666667,54.00000000000006L712.0303527777778,54.00000000000006L712.2554777777777,54.00000000000006L712.2904972222223,67.49998712539673L712.3805472222222,67.49998712539673L712.4956111111112,67.49998712539673L712.8908305555556,54.00000000000006L713.1559777777777,54.00000000000006L715.3672055555555,54.00000000000006L715.5723194444445,54.00000000000006L715.62735,54.00000000000006L715.8574777777777,54.00000000000006L716.0225694444443,54.00000000000006L716.0475833333334,54.00000000000006L716.6229027777778,54.00000000000006L716.8980555555555,54.00000000000006L717.7035027777778,54.00000000000006L718.6240138888888,54.00000000000006L719.2393555555556,54.00000000000006L719.8496944444445,67.49998712539673L720.6751527777778,67.49998712539673L720.6951638888888,54.00000000000006L721.320511111111,54.00000000000006L721.6707055555555,54.00000000000006L721.9608666666667,54.00000000000006L722.5411888888889,54.00000000000006L723.1115055555556,67.49998712539673L723.1665361111111,67.49998712539673L726.25325,54.00000000000006L726.4833777777778,54.00000000000006L727.33385,54.00000000000006L728.8997194444445,54.00000000000006L731.2160055555556,54.00000000000006L731.4011083333334,54.00000000000006L731.6812638888889,54.00000000000006L733.0420194444445,54.00000000000006L733.2021083333334,54.00000000000006L733.3421861111111,54.00000000000006L734.2376833333334,54.00000000000006L735.6034416666666,54.00000000000006L736.203775,54.00000000000006L736.3138361111112,67.49998712539673L736.3988833333333,54.00000000000006L737.9447416666667,54.00000000000006L738.41,54.00000000000006L739.8107777777778,54.00000000000006L740.4711444444445,54.00000000000006L740.956413888889,67.49998712539673L741.9669749999999,54.00000000000006L744.2782583333334,54.00000000000006L744.7385138888889,54.00000000000006L745.1887638888888,54.00000000000006L746.4444611111111,54.00000000000006L746.8997138888889,54.00000000000006L747.394988888889,54.00000000000006L747.6701416666667,54.00000000000006L748.0403472222222,54.00000000000006L748.0753666666667,54.00000000000006L749.2610249999999,67.49998712539673L750.8068833333333,54.00000000000006L751.1470722222223,54.00000000000006L751.9124972222222,54.00000000000006L752.0825916666668,54.00000000000006L752.2226694444444,54.00000000000006L752.5578555555555,54.00000000000006L753.9636361111111,54.00000000000006L754.4338972222222,54.00000000000006L754.8641361111111,54.00000000000006L755.7196111111111,54.00000000000006L755.9397333333334,54.00000000000006L756.0247805555556,54.00000000000006L757.3955416666666,54.00000000000006L757.9358416666666,54.00000000000006L759.6117722222222,54.00000000000006L759.8519055555555,54.00000000000006L760.2271138888889,54.00000000000006L760.29215,54.00000000000006L760.492261111111,54.00000000000006L761.5628555555555,54.00000000000006L762.5734166666666,54.00000000000006L762.748513888889,54.00000000000006L763.4138833333334,54.00000000000006L764.6195527777778,54.00000000000006L765.8152166666667,54.00000000000006L766.730725,54.00000000000006L767.5912027777778,54.00000000000006L768.6668,54.00000000000006L769.1120472222223,54.00000000000006L770.2776944444445,54.00000000000006L770.6378944444444,54.00000000000006L771.683475,54.00000000000006L772.1887555555555,54.00000000000006L773.7045972222222,54.00000000000006L775.3655194444444,54.00000000000006L776.1759694444445,54.00000000000006L776.3110444444444,54.00000000000006L776.4911444444444,54.00000000000006L776.5011499999999,67.49998712539673L777.2965916666666,54.00000000000006L777.8118777777778,54.00000000000006L778.2771361111111,54.00000000000006L778.4022055555556,54.00000000000006L778.7924222222222,54.00000000000006L778.8224388888889,54.00000000000006L778.8474527777778,54.00000000000006L779.4928111111111,67.49998712539673L781.7490638888889,54.00000000000006L782.8096527777777,54.00000000000006L782.9097083333332,54.00000000000006L785.6962555555556,54.00000000000006L786.9969777777778,54.00000000000006L787.0570111111111,54.00000000000006L788.0575666666666,54.00000000000006L788.3927527777778,54.00000000000006L788.432775,54.00000000000006L788.9930861111111,54.00000000000006L790.0386666666666,54.00000000000006L790.2037583333333,54.00000000000006L792.1098166666667,54.00000000000006L793.0503388888889,54.00000000000006L793.2354416666667,54.00000000000006L793.5105944444445,54.00000000000006L794.5661805555555,54.00000000000006L795.1565083333334,54.00000000000006L795.9569527777778,54.00000000000006L797.237663888889,54.00000000000006L797.5628444444444,54.00000000000006L797.6378861111111,54.00000000000006L797.6578972222222,54.00000000000006L798.3632888888889,54.00000000000006L800.0742388888889,54.00000000000006L800.4394416666667,54.00000000000006" style="fill: none;" fill="none"></path></g><g><path stroke="rgb(255, 112, 67)" stroke-width="2px" d="M110.0611111111111,413.5193535089493L115.06388888888888,341.7408653497696L120.06666666666666,306.00836956501007L125.06944444444446,263.6934914588928L130.07222222222222,247.39448511600497L135.075,202.88553321361545L140.07777777777778,222.94593536853793L145.08055555555558,207.58717739582065L150.08333333333331,169.033695101738L155.0861111111111,180.63105726242065L160.0888888888889,170.28744006156924L165.09166666666667,153.98835325241092L170.09444444444443,150.8539506196976L175.09722222222223,153.36152100563055L180.10000000000002,131.42046117782596L185.10277777777776,139.57000458240515L190.10555555555555,142.70440721511844L195.10833333333335,132.98770272731787L200.1111111111111,125.46507203578952L205.11388888888888,119.50960242748266L210.11666666666667,146.46572256088263L215.11944444444447,112.30046832561499L220.1222222222222,130.48013234138492L225.125,111.36013948917395L230.12777777777777,121.07684397697449L235.13055555555556,109.16598522663122L240.13333333333333,107.59882414340979L245.1361111111111,103.52401220798498L250.1388888888889,102.58368337154394L255.14166666666665,111.67355561256414L260.14444444444445,106.3449987173081L265.14722222222224,97.56862306594854L270.15,99.44928073883062L275.1527777777778,97.2551264762879L280.15555555555557,97.2551264762879L285.1583333333333,94.12072384357458L290.16111111111115,95.37446880340582L295.1638888888889,94.43413996696472L300.16666666666663,100.07619345188147L305.1694444444445,114.18112599849707L310.1722222222222,93.18039500713354L315.17499999999995,90.35940849781042L320.1777777777778,91.61315345764166L325.18055555555554,96.6282942295075L330.18333333333334,90.67282462120062L335.18611111111113,89.73249578475958L340.18888888888887,89.41907966136938L345.19166666666666,85.97118043899542L350.19444444444446,86.59809315204626L355.1972222222222,87.85183811187744L360.20000000000005,85.65776431560522L365.2027777777778,89.10566353797913L370.2055555555555,85.65776431560522L375.20833333333337,85.65776431560522L380.2111111111111,87.85183811187744L385.21388888888885,84.40401935577398L390.2166666666667,87.2250058650971L395.21944444444443,87.2250058650971L400.2222222222222,84.71743547916418L405.225,84.09052276611334L410.22777777777776,82.52336168289185L415.23055555555555,80.95612013340002L420.23333333333335,85.65776431560522L425.2361111111111,81.58303284645086L430.23888888888894,88.16533470153814L435.2416666666667,83.1501939296723L440.2444444444444,87.5384219884873L445.24722222222226,80.64270401000982L450.25,81.896448969841L455.25277777777774,83.77710664272314L460.25555555555553,85.97118043899542L465.2583333333334,82.8367778062821L470.2611111111111,92.86697888374334L475.2638888888889,79.38887858390814L480.26666666666665,81.58303284645086L485.26944444444445,81.26953625679016L490.2722222222222,77.50822091102606L495.27500000000003,77.8217175006867L500.2777777777778,78.1351336240769L505.28055555555557,76.56789207458502L510.2833333333333,80.32920742034918L515.286111111111,78.76204633712774L520.2888888888889,77.19480478763586L525.2916666666667,83.46369051933294L530.2944444444445,76.25447595119482L535.2972222222222,79.07546246051794L540.3,77.8217175006867L545.3027777777777,75.94105982780457L550.3055555555557,75.00073099136358L555.3083333333334,77.50822091102606L560.3111111111111,79.07546246051794L565.3138888888889,76.25447595119482L570.3166666666666,79.07546246051794L575.3194444444443,76.25447595119482L580.3222222222223,75.62756323814398L585.325,75.62756323814398L590.3277777777778,74.68723440170288L595.3305555555555,78.4485497474671L600.3333333333333,75.00073099136358L605.3361111111111,75.94105982780457L610.338888888889,74.37381827831274L615.3416666666667,79.70237517356878L620.3444444444444,79.07546246051794L625.3472222222222,76.56789207458502L630.3499999999999,74.06040215492254L635.3527777777779,74.37381827831274L640.3555555555556,74.68723440170288L645.3583333333333,73.4334894418717L650.3611111111111,74.06040215492254L655.3638888888888,74.06040215492254L660.3666666666667,73.4334894418717L665.3694444444445,74.37381827831274L670.3722222222223,74.37381827831274L675.375,75.62756323814398L680.3777777777777,74.37381827831274L685.3805555555555,72.17974448204046L690.3833333333333,71.55283176898962L695.3861111111112,73.4334894418717L700.3888888888889,74.68723440170288L705.3916666666667,74.68723440170288L710.3944444444444,76.56789207458502L715.3972222222221,74.37381827831274L720.4000000000001,73.1200733184815L725.4027777777778,71.55283176898962L730.4055555555556,74.06040215492254L735.4083333333333,73.1200733184815L740.411111111111,72.17974448204046L745.4138888888889,73.7469055652619L750.4166666666667,76.56789207458502L755.4194444444445,76.25447595119482L760.4222222222222,75.00073099136358L765.425,73.4334894418717L770.4277777777777,73.4334894418717L775.4305555555557,73.1200733184815L780.4333333333334,72.80657672882086L785.4361111111111,71.86624789237982L790.4388888888889,72.49316060543066L795.4416666666666,74.06040215492254" style="fill: none;" fill="none"></path></g></g></g></g></g></g><g transform="translate(50, 378)" clip-path="url(#clip_1)"><clipPath id="clip_1"><rect width="900" height="22"></rect></clipPath><g><g><line x1="0" y1="0" x2="0" y2="5" style="visibility: inherit;" fill="rgb(0, 0, 0)" stroke="rgb(204, 204, 204)" stroke-width="1px"></line><line x1="100.05555555555554" y1="0" x2="100.05555555555554" y2="5" style="visibility: inherit;" fill="rgb(0, 0, 0)" stroke="rgb(204, 204, 204)" stroke-width="1px"></line><line x1="200.1111111111111" y1="0" x2="200.1111111111111" y2="5" style="visibility: inherit;" fill="rgb(0, 0, 0)" stroke="rgb(204, 204, 204)" stroke-width="1px"></line><line x1="300.16666666666663" y1="0" x2="300.16666666666663" y2="5" style="visibility: inherit;" fill="rgb(0, 0, 0)" stroke="rgb(204, 204, 204)" stroke-width="1px"></line><line x1="400.2222222222222" y1="0" x2="400.2222222222222" y2="5" style="visibility: inherit;" fill="rgb(0, 0, 0)" stroke="rgb(204, 204, 204)" stroke-width="1px"></line><line x1="500.2777777777778" y1="0" x2="500.2777777777778" y2="5" style="visibility: inherit;" fill="rgb(0, 0, 0)" stroke="rgb(204, 204, 204)" stroke-width="1px"></line><line x1="600.3333333333333" y1="0" x2="600.3333333333333" y2="5" style="visibility: inherit;" fill="rgb(0, 0, 0)" stroke="rgb(204, 204, 204)" stroke-width="1px"></line><line x1="700.3888888888889" y1="0" x2="700.3888888888889" y2="5" style="visibility: inherit;" fill="rgb(0, 0, 0)" stroke="rgb(204, 204, 204)" stroke-width="1px"></line><line x1="800.4444444444443" y1="0" x2="800.4444444444443" y2="5" style="visibility: inherit;" fill="rgb(0, 0, 0)" stroke="rgb(204, 204, 204)" stroke-width="1px"></line><line x1="900.5" y1="0" x2="900.5" y2="5" style="visibility: inherit;" fill="rgb(0, 0, 0)" stroke="rgb(204, 204, 204)" stroke-width="1px"></line></g><g transform="translate(0, 8)"><text x="0" y="0" dx="0em" dy="0.95em" style="text-anchor: middle; visibility: hidden; font-family: &quot;Helvetica Neue&quot;, sans-serif; font-size: 12px; font-weight: 200;" fill="rgb(50, 49, 63)" stroke="none" stroke-width="1px">-20k</text><text x="100.05555555555554" y="0" dx="0em" dy="0.95em" style="text-anchor: middle; visibility: inherit; font-family: &quot;Helvetica Neue&quot;, sans-serif; font-size: 12px; font-weight: 200;" fill="rgb(50, 49, 63)" stroke="none" stroke-width="1px">0</text><text x="200.1111111111111" y="0" dx="0em" dy="0.95em" style="text-anchor: middle; visibility: inherit; font-family: &quot;Helvetica Neue&quot;, sans-serif; font-size: 12px; font-weight: 200;" fill="rgb(50, 49, 63)" stroke="none" stroke-width="1px">20k</text><text x="300.16666666666663" y="0" dx="0em" dy="0.95em" style="text-anchor: middle; visibility: inherit; font-family: &quot;Helvetica Neue&quot;, sans-serif; font-size: 12px; font-weight: 200;" fill="rgb(50, 49, 63)" stroke="none" stroke-width="1px">40k</text><text x="400.2222222222222" y="0" dx="0em" dy="0.95em" style="text-anchor: middle; visibility: inherit; font-family: &quot;Helvetica Neue&quot;, sans-serif; font-size: 12px; font-weight: 200;" fill="rgb(50, 49, 63)" stroke="none" stroke-width="1px">60k</text><text x="500.2777777777778" y="0" dx="0em" dy="0.95em" style="text-anchor: middle; visibility: inherit; font-family: &quot;Helvetica Neue&quot;, sans-serif; font-size: 12px; font-weight: 200;" fill="rgb(50, 49, 63)" stroke="none" stroke-width="1px">80k</text><text x="600.3333333333333" y="0" dx="0em" dy="0.95em" style="text-anchor: middle; visibility: inherit; font-family: &quot;Helvetica Neue&quot;, sans-serif; font-size: 12px; font-weight: 200;" fill="rgb(50, 49, 63)" stroke="none" stroke-width="1px">100k</text><text x="700.3888888888889" y="0" dx="0em" dy="0.95em" style="text-anchor: middle; visibility: inherit; font-family: &quot;Helvetica Neue&quot;, sans-serif; font-size: 12px; font-weight: 200;" fill="rgb(50, 49, 63)" stroke="none" stroke-width="1px">120k</text><text x="800.4444444444443" y="0" dx="0em" dy="0.95em" style="text-anchor: middle; visibility: inherit; font-family: &quot;Helvetica Neue&quot;, sans-serif; font-size: 12px; font-weight: 200;" fill="rgb(50, 49, 63)" stroke="none" stroke-width="1px">140k</text><text x="900.5" y="0" dx="0em" dy="0.95em" style="text-anchor: middle; visibility: hidden; font-family: &quot;Helvetica Neue&quot;, sans-serif; font-size: 12px; font-weight: 200;" fill="rgb(50, 49, 63)" stroke="none" stroke-width="1px">160k</text></g><line x1="0" y1="0" x2="900.5" y2="0" fill="rgb(0, 0, 0)" stroke="rgb(204, 204, 204)" stroke-width="1px"></line></g></g></g></g></svg>