<svg viewBox="0 0 950.5 400" xmlns="http://www.w3.org/2000/svg"><g><g><g><g><g><line x1="60" y1="378" x2="55" y2="378" style="visibility: inherit;" fill="rgb(0, 0, 0)" stroke="rgb(204, 204, 204)" stroke-width="1px"></line><line x1="60" y1="346.5" x2="55" y2="346.5" style="visibility: inherit;" fill="rgb(0, 0, 0)" stroke="rgb(204, 204, 204)" stroke-width="1px"></line><line x1="60" y1="315" x2="55" y2="315" style="visibility: inherit;" fill="rgb(0, 0, 0)" stroke="rgb(204, 204, 204)" stroke-width="1px"></line><line x1="60" y1="283.5" x2="55" y2="283.5" style="visibility: inherit;" fill="rgb(0, 0, 0)" stroke="rgb(204, 204, 204)" stroke-width="1px"></line><line x1="60" y1="252" x2="55" y2="252" style="visibility: inherit;" fill="rgb(0, 0, 0)" stroke="rgb(204, 204, 204)" stroke-width="1px"></line><line x1="60" y1="220.5" x2="55" y2="220.5" style="visibility: inherit;" fill="rgb(0, 0, 0)" stroke="rgb(204, 204, 204)" stroke-width="1px"></line><line x1="60" y1="189.00000000000003" x2="55" y2="189.00000000000003" style="visibility: inherit;" fill="rgb(0, 0, 0)" stroke="rgb(204, 204, 204)" stroke-width="1px"></line><line x1="60" y1="157.50000000000003" x2="55" y2="157.50000000000003" style="visibility: inherit;" fill="rgb(0, 0, 0)" stroke="rgb(204, 204, 204)" stroke-width="1px"></line><line x1="60" y1="126.00000000000006" x2="55" y2="126.00000000000006" style="visibility: inherit;" fill="rgb(0, 0, 0)" stroke="rgb(204, 204, 204)" stroke-width="1px"></line><line x1="60" y1="94.50000000000006" x2="55" y2="94.50000000000006" style="visibility: inherit;" fill="rgb(0, 0, 0)" stroke="rgb(204, 204, 204)" stroke-width="1px"></line><line x1="60" y1="63" x2="55" y2="63" style="visibility: inherit;" fill="rgb(0, 0, 0)" stroke="rgb(204, 204, 204)" stroke-width="1px"></line><line x1="60" y1="31.5" x2="55" y2="31.5" style="visibility: inherit;" fill="rgb(0, 0, 0)" stroke="rgb(204, 204, 204)" stroke-width="1px"></line><line x1="60" y1="0" x2="55" y2="0" style="visibility: inherit;" fill="rgb(0, 0, 0)" stroke="rgb(204, 204, 204)" stroke-width="1px"></line></g><g transform="translate(50, 0)"><text x="0" y="378" dx="0em" dy="0.3em" style="text-anchor: end; visibility: hidden; font-family: &quot;Helvetica Neue&quot;, sans-serif; font-size: 12px; font-weight: 200;" fill="rgb(50, 49, 63)" stroke="none" stroke-width="1px">-0.05</text><text x="0" y="346.5" dx="0em" dy="0.3em" style="text-anchor: end; visibility: inherit; font-family: &quot;Helvetica Neue&quot;, sans-serif; font-size: 12px; font-weight: 200;" fill="rgb(50, 49, 63)" stroke="none" stroke-width="1px">0</text><text x="0" y="315" dx="0em" dy="0.3em" style="text-anchor: end; visibility: inherit; font-family: &quot;Helvetica Neue&quot;, sans-serif; font-size: 12px; font-weight: 200;" fill="rgb(50, 49, 63)" stroke="none" stroke-width="1px">0.05</text><text x="0" y="283.5" dx="0em" dy="0.3em" style="text-anchor: end; visibility: inherit; font-family: &quot;Helvetica Neue&quot;, sans-serif; font-size: 12px; font-weight: 200;" fill="rgb(50, 49, 63)" stroke="none" stroke-width="1px">0.1</text><text x="0" y="252" dx="0em" dy="0.3em" style="text-anchor: end; visibility: inherit; font-family: &quot;Helvetica Neue&quot;, sans-serif; font-size: 12px; font-weight: 200;" fill="rgb(50, 49, 63)" stroke="none" stroke-width="1px">0.15</text><text x="0" y="220.5" dx="0em" dy="0.3em" style="text-anchor: end; visibility: inherit; font-family: &quot;Helvetica Neue&quot;, sans-serif; font-size: 12px; font-weight: 200;" fill="rgb(50, 49, 63)" stroke="none" stroke-width="1px">0.2</text><text x="0" y="189.00000000000003" dx="0em" dy="0.3em" style="text-anchor: end; visibility: inherit; font-family: &quot;Helvetica Neue&quot;, sans-serif; font-size: 12px; font-weight: 200;" fill="rgb(50, 49, 63)" stroke="none" stroke-width="1px">0.25</text><text x="0" y="157.50000000000003" dx="0em" dy="0.3em" style="text-anchor: end; visibility: inherit; font-family: &quot;Helvetica Neue&quot;, sans-serif; font-size: 12px; font-weight: 200;" fill="rgb(50, 49, 63)" stroke="none" stroke-width="1px">0.3</text><text x="0" y="126.00000000000006" dx="0em" dy="0.3em" style="text-anchor: end; visibility: inherit; font-family: &quot;Helvetica Neue&quot;, sans-serif; font-size: 12px; font-weight: 200;" fill="rgb(50, 49, 63)" stroke="none" stroke-width="1px">0.35</text><text x="0" y="94.50000000000006" dx="0em" dy="0.3em" style="text-anchor: end; visibility: inherit; font-family: &quot;Helvetica Neue&quot;, sans-serif; font-size: 12px; font-weight: 200;" fill="rgb(50, 49, 63)" stroke="none" stroke-width="1px">0.4</text><text x="0" y="63" dx="0em" dy="0.3em" style="text-anchor: end; visibility: inherit; font-family: &quot;Helvetica Neue&quot;, sans-serif; font-size: 12px; font-weight: 200;" fill="rgb(50, 49, 63)" stroke="none" stroke-width="1px">0.45</text><text x="0" y="31.5" dx="0em" dy="0.3em" style="text-anchor: end; visibility: inherit; font-family: &quot;Helvetica Neue&quot;, sans-serif; font-size: 12px; font-weight: 200;" fill="rgb(50, 49, 63)" stroke="none" stroke-width="1px">0.5</text><text x="0" y="0" dx="0em" dy="0.3em" style="text-anchor: end; visibility: hidden; font-family: &quot;Helvetica Neue&quot;, sans-serif; font-size: 12px; font-weight: 200;" fill="rgb(50, 49, 63)" stroke="none" stroke-width="1px">0.55</text></g><line x1="60" y1="0" x2="60" y2="378" fill="rgb(0, 0, 0)" stroke="rgb(204, 204, 204)" stroke-width="1px"></line></g></g><g transform="translate(60, 0)" clip-path="url(#clip_0)"><clipPath id="clip_0"><rect width="890" height="378"></rect></clipPath><g><g><g><line x1="0" y1="0" x2="0" y2="378" fill="rgb(0, 0, 0)" stroke="rgb(60, 60, 60)" stroke-width="1px" opacity="0.25"></line><line x1="98.94444444444444" y1="0" x2="98.94444444444444" y2="378" fill="rgb(0, 0, 0)" stroke="rgb(60, 60, 60)" stroke-width="1px" opacity="0.25"></line><line x1="197.88888888888889" y1="0" x2="197.88888888888889" y2="378" fill="rgb(0, 0, 0)" stroke="rgb(60, 60, 60)" stroke-width="1px" opacity="0.25"></line><line x1="296.8333333333333" y1="0" x2="296.8333333333333" y2="378" fill="rgb(0, 0, 0)" stroke="rgb(60, 60, 60)" stroke-width="1px" opacity="0.25"></line><line x1="395.77777777777777" y1="0" x2="395.77777777777777" y2="378" fill="rgb(0, 0, 0)" stroke="rgb(60, 60, 60)" stroke-width="1px" opacity="0.25"></line><line x1="494.72222222222223" y1="0" x2="494.72222222222223" y2="378" fill="rgb(0, 0, 0)" stroke="rgb(60, 60, 60)" stroke-width="1px" opacity="0.25"></line><line x1="593.6666666666666" y1="0" x2="593.6666666666666" y2="378" fill="rgb(0, 0, 0)" stroke="rgb(60, 60, 60)" stroke-width="1px" opacity="0.25"></line><line x1="692.6111111111111" y1="0" x2="692.6111111111111" y2="378" fill="rgb(0, 0, 0)" stroke="rgb(60, 60, 60)" stroke-width="1px" opacity="0.25"></line><line x1="791.5555555555555" y1="0" x2="791.5555555555555" y2="378" fill="rgb(0, 0, 0)" stroke="rgb(60, 60, 60)" stroke-width="1px" opacity="0.25"></line><line x1="890.5" y1="0" x2="890.5" y2="378" fill="rgb(0, 0, 0)" stroke="rgb(60, 60, 60)" stroke-width="1px" opacity="0.25"></line></g><g><line x1="0" y1="378" x2="890.5" y2="378" fill="rgb(0, 0, 0)" stroke="rgb(60, 60, 60)" stroke-width="1px" opacity="0.25"></line><line x1="0" y1="346.5" x2="890.5" y2="346.5" fill="rgb(0, 0, 0)" stroke="rgb(60, 60, 60)" stroke-width="1px" opacity="0.25"></line><line x1="0" y1="315" x2="890.5" y2="315" fill="rgb(0, 0, 0)" stroke="rgb(60, 60, 60)" stroke-width="1px" opacity="0.25"></line><line x1="0" y1="283.5" x2="890.5" y2="283.5" fill="rgb(0, 0, 0)" stroke="rgb(60, 60, 60)" stroke-width="1px" opacity="0.25"></line><line x1="0" y1="252" x2="890.5" y2="252" fill="rgb(0, 0, 0)" stroke="rgb(60, 60, 60)" stroke-width="1px" opacity="0.25"></line><line x1="0" y1="220.5" x2="890.5" y2="220.5" fill="rgb(0, 0, 0)" stroke="rgb(60, 60, 60)" stroke-width="1px" opacity="0.25"></line><line x1="0" y1="189.00000000000003" x2="890.5" y2="189.00000000000003" fill="rgb(0, 0, 0)" stroke="rgb(60, 60, 60)" stroke-width="1px" opacity="0.25"></line><line x1="0" y1="157.50000000000003" x2="890.5" y2="157.50000000000003" fill="rgb(0, 0, 0)" stroke="rgb(60, 60, 60)" stroke-width="1px" opacity="0.25"></line><line x1="0" y1="126.00000000000006" x2="890.5" y2="126.00000000000006" fill="rgb(0, 0, 0)" stroke="rgb(60, 60, 60)" stroke-width="1px" opacity="0.25"></line><line x1="0" y1="94.50000000000006" x2="890.5" y2="94.50000000000006" fill="rgb(0, 0, 0)" stroke="rgb(60, 60, 60)" stroke-width="1px" opacity="0.25"></line><line x1="0" y1="63" x2="890.5" y2="63" fill="rgb(0, 0, 0)" stroke="rgb(60, 60, 60)" stroke-width="1px" opacity="0.25"></line><line x1="0" y1="31.5" x2="890.5" y2="31.5" fill="rgb(0, 0, 0)" stroke="rgb(60, 60, 60)" stroke-width="1px" opacity="0.25"></line><line x1="0" y1="0" x2="890.5" y2="0" fill="rgb(0, 0, 0)" stroke="rgb(60, 60, 60)" stroke-width="1px" opacity="0.25"></line></g></g></g><g><g><line x1="0" y1="346.5" x2="890.5" y2="346.5" fill="rgb(0, 0, 0)" stroke="rgb(153, 153, 153)" stroke-width="1.5px"></line></g></g><g><g><line x1="98.94444444444444" y1="0" x2="98.94444444444444" y2="378" fill="rgb(0, 0, 0)" stroke="rgb(153, 153, 153)" stroke-width="1.5px"></line></g></g><g><g><g><g><g><path stroke="rgb(0, 119, 187)" stroke-width="2px" d="M126.6291,-18.748793838232757L127.50475833333333,14.441918719385114L129.64195833333335,14.467371647543757L130.2752027777778,34.61082452213475L131.23496388888887,26.615817011130446L132.95659722222223,45.72977130324438L133.61952499999998,74.6275992553488L134.48034166666667,72.22523261321112L134.7079138888889,87.43861951060796L135.30158055555557,68.79470621639939L137.13205277777777,68.99560175307369L137.63172222222224,68.36862098607503L139.60071666666667,82.94927766279824L140.29332777777776,100.0888530995141L140.4516388888889,81.28672496966169L140.48626944444445,87.65263264381485L140.921625,89.55334107543092L143.02419444444445,101.42181481349354L144.2857361111111,115.23056896407172L145.36917777777776,124.03211689701706L145.38896666666668,121.26517025110968L146.05684166666668,136.79827596007988L146.1508388888889,143.85868678655106L146.6010361111111,143.688368107653L146.67029722222222,134.85767133704104L147.600375,126.24161463175798L147.61521666666667,138.5896668694369L148.17425277777778,138.13971248276627L148.77286666666666,150.71144787801424L149.47537222222223,126.34778579899933L150.03440833333335,133.8697375590135L150.09872222222222,153.33355183665466L150.29166388888888,150.0733138040952L151.19700555555553,166.74327001855326L151.35036944444445,174.92992237482645L151.7906722222222,161.68856666593857L152.409075,160.75855854164465L152.57233333333335,157.42895782557844L152.63664722222222,136.40742069009892L153.03737222222225,125.2312771457768L153.2797861111111,131.9108084440104L153.37378333333334,152.4950321353633L153.4578861111111,166.00328647804312L153.71514166666668,170.4797607047321L154.43248888888888,187.55971980842577L154.5512222222222,192.07113393237495L154.60069444444443,193.08739495349022L155.45161666666667,191.78136549939575L156.93083611111112,175.86412251367113L158.76625555555555,183.87598818833604L158.81078055555554,187.33773067072966L159.70622777777777,179.2348844741652L159.711175,186.07387201753014L159.8200138888889,187.99435552036923L160.3394722222222,190.39843215851144L160.779775,201.1254602097926L160.84408888888888,195.9814847427079L161.26460277777778,203.31617628914464L161.3338638888889,185.70051620438068L163.24349166666667,196.43922126319873L163.79263333333333,195.3930459471551L164.1389388888889,202.53683722407087L164.7820777777778,215.99852963828474L164.83155,215.0333357791855L166.51855277777776,212.8367798954805L167.00338055555557,216.74187293131425L167.77020000000002,216.48079081236773L168.95258611111112,213.78884007677L169.49183333333332,226.30966371405637L169.84803333333335,241.17308368242254L170.6198,244.08686763015754L170.65443055555556,229.9732401517578L170.70390277777778,218.51368847098533L170.9067388888889,221.39609683756967L171.34704166666668,224.20268537256828L172.01491666666666,233.54002199809045L172.30680277777776,230.56597337305763L172.801525,224.12191788241424L172.8213138888889,216.73062084529664L173.29624722222223,231.05992199043837L173.6672888888889,217.30266778961123L173.95422777777776,210.33091833662468L173.98885833333333,200.9432613735756L174.05317222222223,202.19165795932417L174.38958333333332,197.6826556912825L174.65673333333334,211.00518004534882L174.671575,211.88646055339458L175.6016527777778,222.0155959582231L175.63628333333335,219.49719727455835L176.2992111111111,230.11623861953066L176.42289166666666,227.3915874627564L177.25897222222224,231.73841245229045L177.51128055555557,235.15857089500875L178.57988055555555,225.09418906227685L179.17354722222223,218.857760723352L180.80613055555554,225.12014376068083L181.25632777777778,239.2281049299536L182.0379888888889,230.04503880503012L182.35461111111113,212.9842545283007L185.21410555555556,216.21841978223378L185.33778611111111,216.9879117547814L185.802825,224.95504597122553L185.83250833333332,233.62744027596028L185.87208611111112,240.6025072725215L186.46080555555557,228.80103126850713L186.8961611111111,226.81524979834998L188.06865277777777,228.92195467475983L188.3605388888889,229.3397962475116L189.56271388888888,244.52912000747733L190.93804166666666,253.58138502338687L194.81171666666665,253.9558482445714L195.19265277777777,252.87615988980514L195.44990833333333,263.88164000459597L195.45980277777778,271.6607038844234L196.56798055555558,266.2155308551048L196.79555277777777,269.3688622136753L197.03301944444445,269.6841305173815L197.3348,270.10736709292087L197.38921944444445,271.09385111149663L198.0224638888889,269.2707754017153L199.50168333333335,273.98200485045004L200.81764444444445,272.9741610842518L201.21342222222222,272.68377127554805L201.77245833333333,275.93047430967385L203.04884166666668,267.9320013810328L204.2807,259.1137011043081L206.0913833333333,258.2886999466903L208.16921666666667,261.62507078937347L209.77211666666668,264.6518262281392L209.84137777777778,270.85079810428425L209.89085,249.63142863964893L210.47462222222222,255.3601805124868L210.51914722222222,269.50430700959186L211.2463888888889,270.88976297737224L211.4244888888889,278.97425712616047L211.6025888888889,285.4068566074282L212.45845833333334,276.56276673155355L215.48121111111112,277.3327658554712L216.0550888888889,280.1440043397844L217.52936111111111,270.9540530255511L218.5979611111111,264.53953772865793L218.98879166666669,274.7281563325454L220.32454166666668,274.8939994978703L220.5125361111111,262.36624269245544L220.57685,276.86220012835025L221.81365555555556,273.8711730072748L222.45184722222223,274.07109031303617L225.20250277777777,275.0848321968607L226.25131388888886,283.78087911041763L227.87895,287.15903810063145L229.3086972222222,288.09919669776514L229.82815555555553,288.12527755312146L232.1286138888889,287.28468963810815L232.7074388888889,295.864982789822L232.82122500000003,295.6757264145223L233.3307888888889,288.36995337963157L235.68566666666666,287.20585634976663L236.08639166666666,279.49813480429384L239.1635638888889,273.9525696877579L240.30637222222222,277.11601773604303L241.53328333333332,282.65704531374985L242.22094722222224,289.1750596884892L243.57648611111108,296.54617192029997L244.3482527777778,294.39848422765766L244.74897777777778,295.1051269304755L245.10517777777778,278.2496473664047L246.59429166666663,288.2134177460523L247.3413222222222,288.6856058220753L247.39079444444445,291.29088031356696L248.21203333333332,288.56520455408963L248.5484444444444,291.7577388832634L248.72654444444444,293.2427500746895L248.90464444444444,299.63700420128174L249.58241388888888,303.1367249095207L249.62693888888887,297.85543606458344L250.43828333333335,301.56687056666794L251.61572222222222,302.35348055993154L253.06031111111108,303.1602371538776L253.31756666666664,309.26176304315015L253.4115638888889,307.6288357019013L253.83207777777776,307.4457946747233L253.93102222222223,309.5943303130336L255.62297222222222,307.2045599872073L256.70146666666665,308.06730275073653L257.1269277777778,300.5441437119172L258.83371944444445,304.6122890527491L259.0415027777778,293.76548577960165L260.7433472222222,301.7026608632194L262.4204555555556,300.23790119187436L262.70244722222225,297.98866896775667L262.831075,301.9273188762166L263.0289638888889,285.63275492580965L263.7858888888889,281.68303248951014L263.88978055555555,291.828327398145L264.4735527777778,301.0578668867378L265.3442638888889,305.5228355754039L266.71464444444445,299.3475159837769L267.26378611111113,300.8275228466068L268.352175,298.76029836203713L268.7875305555555,298.3579315063809L268.886475,300.3467534756254L269.7126611111111,300.074326010465L270.69715833333333,302.80082410530696L272.9036194444445,304.370123410273L273.1212972222222,302.71237436238556L273.5467583333333,300.0869925231012L273.6308611111111,299.638496410867L273.84359166666667,303.7406842891279L273.9178,303.8929758246171L274.15031944444445,310.96584696884656L275.2139722222222,294.7008023956098L275.33270555555555,302.37176182483717L275.4069138888889,303.21777707424076L276.6832972222222,300.2580887011164L277.7964222222222,307.99003925502103L277.8310527777778,309.646921145393L278.8106027777778,312.3082131370705L278.8353388888889,303.8977919351162L279.0134388888889,303.4401803375111L279.75057499999997,305.8537875552346L280.74496666666664,303.4170530355997L280.98738055555555,305.8214158409854L281.67504444444444,304.14711251065285L282.0460861111111,309.2918441608932L282.87721944444445,310.02636588852005L283.0701611111111,307.58997069850864L285.8554472222222,307.27386321913673L286.15228055555554,310.5968192912003L287.3000361111111,297.55652520782206L287.5572916666667,303.82111544144493L288.51705277777774,308.17697749646265L289.71922777777775,305.93934537181076L289.85280277777775,306.18243201977623L291.0846611111111,309.07805547979933L293.3208055555556,301.215656894203L293.48901111111115,304.7895705999851L293.731425,302.89486615746614L294.1420444444444,304.2004064704433L294.2310944444444,309.57854299138893L294.58234722222227,305.2020451530137L294.98307222222223,300.57083663749086L295.7993638888889,305.8101563279136L295.81420555555553,309.5222056973207L296.27924444444443,312.360154119747L296.2841916666667,316.49965675649577L297.72878055555555,318.6081770619566L298.4263388888889,322.6058640739556L298.47086388888886,311.31201065787945L300.0193444444444,303.93799264139886L300.85542499999997,300.85290222918206L301.0038416666667,303.34932873066674L301.7657138888889,307.66186562304506L301.79044999999996,309.93613687436886L301.99823333333336,315.4952914242156L303.3092472222222,305.614607186929L303.76439166666665,309.20284009115073L304.3531111111111,308.8377214158786L304.773625,312.34752077499127L306.97513888888886,312.7748740400307L308.34551944444445,319.15634713259954L309.03318333333334,321.5563571150423L309.3597,321.98111356201184L309.9236833333333,324.3156839266599L311.6947888888889,322.70306962767097L312.2785611111111,325.058918556488L312.52097499999996,322.70848759704563L312.6397083333334,325.75651449016283L314.05461388888887,325.2265868898597L314.1040861111111,324.46919326606144L314.3662888888889,324.38783973546884L314.6185972222222,320.39004357041466L314.73733055555556,322.64412022200634L314.80164444444443,322.85774316316406L315.61298888888894,321.42188406680197L315.6575138888889,325.3288394678881L315.7020388888889,326.7462402410247L316.20170833333333,327.00295156813695L316.5084361111111,329.811104949672L316.71621944444445,327.40390008975487L316.80032222222223,329.67851899034844L317.2802027777778,329.78805365016365L317.5028277777778,328.33636372238624L318.5565861111111,325.2652406372147L318.6209,326.47076541390396L319.45698055555556,323.1230956573514L320.0457,322.10189411857937L320.47116111111114,322.0779781439842L321.7030194444444,324.9226318773956L322.94971944444444,326.27039515616974L323.18718611111115,321.11861483486354L323.68685555555555,310.6302083040167L323.9391638888889,299.24786115474177L324.8939777777778,301.73462520567085L324.898925,305.47264573929834L328.47081944444443,304.2629862834374L328.906175,310.39438880490957L329.6383638888889,316.34422984445615L331.23631666666665,317.36014466527496L332.0723972222222,320.1431986571729L332.16639444444445,324.24247335131315L332.646275,324.57440393034625L334.56084999999996,325.1483483835236L338.4988388888889,321.35465932258785L339.4586,319.2452023392083L339.66638333333333,320.60769129657456L339.7801694444445,323.8324502435603L339.86427222222227,325.8263800853698L340.45299166666666,328.9558186164468L341.7145333333333,329.42489516593287L341.98663055555556,325.99805907239966L342.1449416666666,323.6126972275261L342.75839722222224,326.5124663775626L343.12449166666664,328.6396226326349L343.5796361111111,327.95011541543323L343.88141666666667,328.0280515964919L344.1436194444444,328.65877662067066L345.05885555555557,325.96264865781706L345.37053055555555,321.08903098691883L345.78114999999997,321.5860577511741L346.05819444444444,318.66397813059046L346.4539722222222,322.04943004974837L346.77059444444444,320.81121000818246L346.9882722222222,310.4241484490919L346.99321944444443,310.3734889356708L347.09711111111113,307.5500980227005L347.2306861111111,313.8564063335815L349.06115833333337,316.44495207073976L349.60040555555554,315.85150428863386L349.84281944444444,320.8686858974548L350.1050222222222,324.47898068838947L351.5199277777778,324.5992725198242L351.57434722222223,326.28812174534596L352.71715555555556,328.24116729971615L352.91009722222225,324.1233655719224L353.03377777777774,324.57723891051586L354.3546861111111,325.9423277215062L354.8048833333333,315.2935820807441L355.7596972222222,320.90964902020426L358.54993055555553,313.4562126850853L358.7725555555556,317.6837675911016L360.4744,319.6476702162495L361.2115361111111,317.6802147696816L361.4935277777778,320.66919684468974L362.6363361111111,322.8292293329483L362.9678,316.83225250091L363.25968611111114,321.1666731543529L363.7643027777778,323.9570611897624L364.3678638888889,327.04617744654536L364.61027777777775,326.476279265956L365.06542222222225,321.56766187196666L365.09510555555556,324.5672866072185L365.14952500000004,327.68585012832114L366.0251833333333,328.13692327666155L366.307175,330.1713122377386L366.9107361111111,332.57112024814563L367.67755555555556,330.47268523157146L368.3157472222222,323.09287264109037L370.0522222222222,326.5834133697516L370.64588888888886,328.8221964042981L370.72999166666665,329.4891703390777L371.204925,329.3307836540937L373.4757,330.4616095489561L373.9258972222222,331.5917763237878L374.89555277777777,331.9269474353436L376.3450888888889,330.5762853235784L376.5875027777778,330.9177632628592L376.8398111111111,332.5810527791241L377.58684166666666,329.7924428090199L379.32331666666664,332.7026847995627L379.3826833333333,329.07507744970235L379.4222611111111,330.68565447753156L379.9466666666667,328.20552567113555L380.32760277777777,327.79136151052353L380.96579444444444,329.08231179585187L381.67819444444444,331.16971182344577L382.1877583333333,333.63507283306285L382.9001583333333,332.55236868710193L383.54824444444444,326.6975231386786L384.47337500000003,329.8862241463785L384.63663333333335,330.46718740328583L384.90378333333337,333.5960464318427L385.55186944444443,332.3287476135293L386.0020666666667,328.9980696110427L386.2246916666666,328.97036463160066L386.81341111111107,329.5285880287271L387.21908333333334,328.8228872619406L387.22897777777774,331.05159285495694L388.8120888888889,333.4099122082257L389.7223777777778,334.36162996534733L390.261625,336.05675057270923L390.3605694444444,335.8094794997856L391.1076,336.11384062323975L391.1620194444444,334.167016163312L393.2448,330.21194710011974L393.45753055555554,326.96193925422205L393.82857222222225,326.74157734872233L394.9862222222222,323.14792513222494L395.3077916666667,322.17984375447776L396.42091666666664,324.7373510019164L397.1679472222222,321.3441443660245L397.60825,321.7108666258593L398.3453861111111,322.6570378361299L398.50369722222223,321.90557085299156L400.90804722222225,324.6790970783581L401.06635833333337,316.88757410058L402.28832222222223,319.81812793041485L404.78666944444444,319.71835229378354L404.9301388888889,323.310354722339L405.1824472222222,327.7241079949201L405.3902305555556,327.81809752288166L405.5633833333334,330.1996115500309L406.91892222222225,331.1697765918134L407.02776111111115,331.6027854872166L407.18607222222226,330.92440026196977L407.91826111111106,331.43319538472696L408.0468888888889,332.03730883440824L408.51687499999997,334.60055663197454L409.25895833333334,327.25653912506414L409.41726944444446,329.6556518096992L410.30776944444443,331.46512918038434L410.87669999999997,332.34241000647296L411.0548,331.5303615840893L411.7078333333333,330.78222079482833L412.1877138888889,327.1213554788914L412.4301277777778,324.8319625667696L413.2117888888889,327.11469497900197L415.01752500000003,318.20678936035176L415.3588833333333,318.1963397904541L415.62603333333334,323.446727859829L415.7942388888889,324.89450041976136L417.79291666666666,324.7752701586229L418.85162222222226,327.2315010257618L419.1632972222222,328.87764983367595L420.15768888888886,331.4404299253909L420.1923194444445,333.56101843116346L421.1322916666667,327.1642739541654L421.2262888888889,330.91098535818605L421.2361833333333,332.845789917374L422.1662611111111,332.3179637793931L423.6603222222222,334.57669236356264L423.83347499999996,330.3243202238846L425.4907944444445,332.93897256074985L425.7084722222222,334.78032544259827L426.8859111111111,335.5577826002025L427.72199166666667,337.468320952172L428.0979805555555,337.3259407724738L428.29586944444446,331.0976894569248L428.4492333333334,331.79029287188126L429.29520833333333,333.472292038436L429.6019361111111,330.1591077298934L430.1312888888889,332.788690412027L430.8140055555555,334.2412242374252L431.4967222222222,335.34490129259825L431.81334444444445,336.64301538491696L433.3123527777778,337.77850749315286L434.26221944444444,336.05798567344596L435.33081944444444,332.2737454754103L435.34566111111116,330.1308940672866L436.16195277777774,330.1348979490989L437.5125444444444,330.4453144515301L437.58180555555555,331.6074459511597L437.7549583333333,334.23401329520595L437.98747777777777,334.4902831435446L439.3430166666667,329.70576270820527L440.2236222222222,333.0915143380078L440.3571972222222,330.82024491127675L440.3621444444445,330.76946572342024L440.8222361111111,321.5483583612629L443.45910555555554,322.1792430917463L443.6273111111111,323.0066984549195L443.83509444444445,326.62963042399144L444.8542222222222,327.96060688973114L445.27473611111105,320.35805658013106L446.17018333333334,324.82973458299773L446.3779666666666,328.5154535406622L448.77242222222225,329.16031729122943L449.0890444444445,331.9240941610444L450.2714305555555,332.5065192575759L450.4198472222222,329.65944533575373L451.10751111111114,331.98081759198607L451.34003055555553,331.3642271372236L451.8248583333333,329.3297658162234L453.2842888888889,332.02506608586145L453.39312777777775,334.8202575869533L454.0412138888888,335.1732121679688L454.3083638888889,336.54440046835725L454.4963583333333,334.6212759855299L454.98118611111107,332.84692610933695L454.9910805555556,335.0922235546862L456.0102083333333,331.00009842763507L456.2823055555556,330.24209921844425L456.3416722222222,332.9042806930849L457.1975416666666,331.8257879890508L457.6328972222222,333.56575901219674L459.1170638888889,335.7761261945361L460.91290555555554,336.7430801254991L460.9178527777778,337.6370994551095L460.94258888888885,338.3639212728003L463.96039444444443,336.8660657074645L464.56395555555554,336.09093569808414L465.0735194444444,337.15720753999955L465.3703527777778,338.2910927355376L465.9887555555556,336.8644368756627L466.11243611111115,337.9712830276277L468.358475,339.41332509254937L469.1055055555555,339.71008086119235L469.55075555555555,340.2659285863052L470.21368333333334,332.71414054370007L471.4307,333.88180530163334L471.51975,331.1881381112537L474.40398055555556,332.89891782315084L475.81888611111106,330.64185911537345L475.8337277777777,331.92201093022624L475.86835833333333,333.5442922501609L476.64507222222227,335.23020396997L477.1694777777778,322.2873297584762L477.6938833333333,326.2360570176661L478.35186388888894,327.2878528586939L478.5645944444444,328.90283038388304L479.65793055555554,330.89458622538007L480.4494861111111,329.5168151315522L481.0629416666667,332.63287794545084L481.73576388888887,335.2015784798547L481.9089166666667,333.7373059964541L483.4672916666667,335.5738901645961L484.47652500000004,336.1153497692028L485.33239444444445,337.32378968567247L485.58470277777775,336.2264934375554L486.4158361111111,336.0603602925069L486.58898888888893,333.5667825117057L487.2420222222222,333.0509355235357L488.37988333333334,334.8459191266081L488.64208611111115,333.039097232251L489.08238888888883,333.72137672091173L489.63153055555557,335.09542824940496L489.7255277777778,334.745029970941L490.4824527777778,336.4492450011426L490.9128611111111,337.06153491485145L491.7934666666667,334.73817136491107L493.8366694444444,336.08251452384343L494.4204416666667,337.0283434782211L494.7321166666666,338.169738820058L495.42967500000003,332.33986161713443L496.1915472222222,330.9155505285758L496.6071138888889,333.73998403189506L498.52663611111115,335.95173469032477L498.6107388888889,338.27264055448126L498.813575,338.27962405299655L499.16482777777776,338.7046028496922L499.8920694444444,338.55057812041423L501.4553916666667,338.9290257258816L501.94516666666664,339.62195258805366L502.18758055555554,339.1154869000928L502.8505083333333,339.137385019162L503.87953055555556,338.565092814899L504.15657500000003,338.8213175608304L506.94680833333337,339.15775839228826L507.0408055555556,340.0211394696172L507.72846944444444,338.72074202960255L508.074775,339.85168955556503L508.87622500000003,338.13704999969866L508.89601388888894,336.45393115048455L509.56388888888887,338.62824595940185L511.2954166666667,333.2708008305883L512.2254944444444,333.22130011518715L512.4332777777778,332.88866639137206L512.4728555555556,335.0082175726998L512.5025388888889,336.7683120713333L512.6806388888889,337.7515556110591L512.7004277777777,337.97731949201966L513.0863111111112,338.878008077614L513.4375638888889,338.2831779299844L513.4969305555555,338.75095494631074L513.6008222222223,338.95555149376867L514.7931027777778,340.2354347201845L514.8029972222222,334.751185461332L519.7551666666667,336.89478334766784L520.0272638888889,337.69072454176586L524.6578638888889,339.3509324559876L524.9200666666667,339.50224028904427L525.0833250000001,340.2322696745708L525.3356333333334,339.69418636944624L526.2904472222223,338.78386842077026L526.3844444444445,339.6750496748559L527.5124111111111,338.7764331911484L527.6608277777777,339.5093250064257L528.2742833333333,339.0843869345787L528.3138611111111,339.78744951010884L528.6403777777778,339.67198137051344L529.9118138888889,333.85825777691963L530.2333833333333,335.98653513112936L530.3818,335.8381860818287L532.4250027777778,337.23058718095126L532.5684722222222,338.8009916631963L533.8003305555555,330.86549950306016L533.9289583333333,334.5294842668252L533.9388527777778,336.1087520772872L534.077375,337.07372847932635L536.7389805555556,337.7438120952849L538.3369333333334,339.2704211286533L538.8563916666667,339.5571041064768L539.8112055555556,336.1852643364898L540.2465611111111,333.97781691694496L541.1865333333334,336.7078079112842L541.315161111111,336.25277622628766L541.5823111111112,337.45545162512775L541.6515722222222,336.01045663843985L541.6614666666667,337.61250189111894L543.2544722222223,333.51829126787385L544.3626499999999,334.48184136906417L546.4157472222222,335.7803485718306L546.5790055555556,337.36386232022653L547.4101388888888,339.2285627602168L547.6426583333333,329.3689042723647L549.0476694444444,333.1522889500183L551.5262277777778,335.29447605528475L552.0357916666667,334.5759174148965L552.3722027777778,336.63102976526903L552.9609222222223,338.1033980116422L553.0499722222222,336.46929879227093L554.0690999999999,337.55696997783195L554.202675,338.80491978599025L555.4147444444444,338.73563438643436L555.5977916666667,330.55199629060496L555.6670527777777,333.119413495936L557.0126972222222,335.4578302048169L557.8190944444444,337.76920904664024L558.5265472222222,336.35693718081586L559.6891444444444,336.66497057228065L560.3273361111112,337.37066909986567L560.3965972222222,338.9692590120646L561.5146694444445,340.32901625803856L561.5591944444444,341.45316108004096L561.6482444444445,339.29471484896425L561.8016083333333,337.96235736516775L561.880763888889,339.304031740838L562.2320166666666,340.2786205038158L562.4249583333334,340.96070040015337L563.6370277777778,341.0441162497584L563.7409194444444,339.18470717394985L563.8250222222223,337.86946408394454L564.1169083333333,337.837557828564L564.6264722222222,338.38051012056957L565.0074083333333,338.4587202860817L565.8682249999999,339.59112398257696L566.333263888889,336.2484275674883L567.1643972222222,337.5435427334952L568.1637361111111,337.94260475278253L568.6782472222222,339.66226424432625L569.0443416666667,340.68282284820884L569.6726388888889,341.8824854973387L572.6854972222222,340.0969185006567L573.7194666666667,339.8165023254751L574.5011277777777,341.08963029290726L574.6742805555556,340.2446071292683L575.0255333333333,338.6671971556339L575.9160333333334,339.48064350629545L576.9351611111111,340.25016517481544L577.3804111111111,340.5099419130298L578.4688,341.51058254251075L578.4836416666666,341.9983893352314L579.4285611111111,342.17328476850423L580.1360138888889,333.1573528866785L580.8780972222222,334.5438662191531L580.9572527777779,335.39188740134614L581.0215666666667,337.4852730695559L581.05125,338.25455246086443L581.5707083333333,338.96224423379095L581.7141777777778,340.52034120382103L581.8873305555555,341.0397825112751L582.9757194444445,341.61787537547286L585.2316527777778,340.29825975326696L585.6472194444444,340.6704050571416L586.9334972222222,341.4957934682309L590.1541388888888,339.53426831325436L590.1986638888889,340.631945537994L591.1089527777777,340.5357030941879L592.0835555555556,341.35548469341063L592.5288055555556,338.91057226744493L592.8553222222222,337.9835157501489L592.8998472222222,338.03995110012886L593.2362583333334,338.93853026055024L597.0753027777778,339.82518520055504L598.4456833333334,340.8802743858298L598.50505,341.6385219269395L600.3355222222222,341.2446802396998L600.3948888888889,340.37758920309506L600.528463888889,341.4982583053554L600.8055083333333,342.0116467896957L601.2458111111112,342.8173083254683L601.933475,341.96247312158255L602.8536583333333,342.3807500240759L602.9080777777777,342.2875480903354L603.110913888889,342.6812583692403L604.2586694444444,341.1609724983596L604.5950805555556,341.4541102456878L605.0403305555556,342.24178266269286L605.2134833333333,341.85827045742286L605.8962,337.84033682833325L606.4453416666668,339.29410401300686L606.8213305555556,340.4462845046341L606.8361722222222,340.5007893406056L607.1428999999999,340.8839786171598L607.2517388888889,341.5310890854566L608.1966583333334,342.17016811668265L608.4539138888888,337.82718729972385L609.8094527777778,338.6470324988443L610.5663777777777,339.7158449023238L610.7444777777778,340.7164883421191L610.8137388888889,341.1399991656712L611.4964555555556,340.4075046434344L611.8081305555555,335.84487073900857L612.0357027777777,335.6786767861438L613.1488277777778,337.5463628924408L614.5884694444444,338.8746272681947L614.8605666666667,339.99705438195133L615.6224388888888,340.54487245416055L616.3298916666668,340.33062185261707L617.3589138888889,340.3538615650614L617.8091111111112,341.4469332668086L617.9031083333333,341.1639167627618L618.3038333333334,340.51134791911954L622.5633916666667,339.6526139411428L625.6257222222223,338.391705591835L626.6250611111111,340.062076968477L627.4067222222222,340.18831168955256L627.5650333333333,339.1234004607103L628.9848861111111,340.61475330644674L629.5933944444445,341.54252603084836L630.7263083333333,342.1842475864784L631.1171388888889,342.45907418982097L631.8740638888889,342.5910243889757L632.2401583333333,342.7585408746595L632.9674,343.2122994789403L633.0613972222222,343.2244889045262L633.6204333333334,343.30194930998636L635.7873166666667,342.7812828963112L635.9159444444444,341.92153761778854L636.3958250000001,342.4214263262289L637.2962194444444,342.621285133441L637.7216805555555,341.6274955932086L638.7902805555556,341.5497905706082L639.5373111111111,342.08423681867043L639.6412027777778,341.1615789160089L639.6857277777777,341.4060554229622L640.53665,341.83236524217983L642.7975305555556,341.63169325518356L644.0392833333333,342.1657824742347L644.5933722222222,341.96291414527593L644.9644138888889,342.22361420982327L647.6062305555555,342.76961378720216L647.8189611111111,343.3986452975515L648.2196861111111,343.62961589679264L649.7285888888888,343.9540730873878L649.9561611111111,343.0571241661076L651.8212638888889,343.6091749511968L652.0438888888889,343.42975629533163L652.4446138888889,343.4712487941781L652.7859722222222,342.2483505870812L653.2114333333334,341.43751528744866L654.8390694444445,341.44645540889326L655.1556916666667,341.0114803452136L655.8878805555555,341.4598624614136L656.1946083333333,338.1085533374739L657.1988944444444,339.56641630566253L658.2773888888889,339.837405342971L658.4010694444445,340.58044813926494L660.9934138888889,341.0000260028465L661.6711833333334,341.3417330125886L662.556736111111,341.8847174518215L662.6408388888889,342.4733891685797L662.9228305555555,342.9180140101811L663.2444,343.4290775099649L664.0953222222222,336.13085392782494L666.2176805555556,338.14368828977945L666.4947249999999,339.4461128176343L667.0982861111111,340.57801257831727L667.4544861111111,341.5902496772846L668.0679416666667,342.4238246873275L668.6616083333333,342.5158716827821L669.789575,343.1708670570192L670.234825,342.9179976865174L670.9818555555555,343.4008936015998L671.4716305555556,342.99399418594203L671.8674083333333,342.4462086639312L672.7133833333332,342.66520834739373L673.3565222222222,342.37609617011896L673.8265083333333,342.86021358871574L673.8759805555555,343.13452048188344L673.9897666666667,343.6119174846096L674.6823777777778,343.8820390828621L675.2612027777778,344.09953506559015L675.8796055555556,344.05410789946006L676.9432583333333,344.37555863795035L677.6358694444444,343.7858352914442L678.2839555555555,343.4947518537744L678.3829000000001,343.6301175145659L680.2282138888888,343.81186652702115L680.3271583333334,343.71219895167854L680.43105,343.7895661188007L680.500311111111,334.3534756744534L681.277025,337.0723123138961L683.0233944444444,338.4608792379641L683.8743166666667,335.43641562872705L683.9386305555556,337.59748203345447L684.7648166666667,338.9249574707881L686.6793916666667,340.40231650576914L686.8080194444444,340.6735900701465L687.0999055555556,341.3685210800362L687.8914611111112,341.6497876211027L688.4702861111111,340.9039941999331L688.4851277777777,341.4746388663456L688.7918555555556,342.1456396391786L689.0144805555556,339.4657041447831L690.3551777777777,340.2219126798658L691.0082111111111,339.4640024339183L691.7156638888889,340.4609255802835L692.1262833333333,341.3917762863929L692.1658611111111,341.816901150405L692.4775361111111,342.4196743189336L693.5016111111112,343.0971723320179L696.2126888888889,343.22641931778514L696.860775,343.46614738130063L697.2367638888888,343.9057354047782L698.285575,343.132103495012L698.3202055555556,343.1973859248852L698.5378833333333,343.37497477793477L699.2107055555556,343.43461361435266L699.7301638888889,343.5613178070706L701.4320083333333,342.9465742595547L701.5408472222222,342.60305935889886L701.7189472222221,343.22441937122795L701.9663083333334,343.3321430375822L704.1232972222222,342.9018212563841L704.3459222222222,343.02236427721925L704.3805527777778,341.449423563071L704.4696027777778,341.1525584913514L704.583388888889,339.91362922040537L704.9742194444444,341.2880652885612L705.2364222222222,341.8510326436051L707.4230944444444,341.8256349109775L707.6259305555556,342.31917090919177L707.68035,342.2710474679735L707.9079222222222,342.7292767831724L708.0711805555555,342.4919800914575L708.0959166666667,342.0393925887346L708.6648472222222,342.6637128746928L708.9369444444444,343.1381428312871L709.7334472222221,342.69919851536775L710.6437361111111,342.59720653241664L711.2522444444445,342.2495332509897L711.8558055555555,340.31587088578357L712.6720972222223,338.941612811561L712.6918861111111,340.67760011917255L713.3102888888889,341.4661723525983L713.6565944444444,342.291005946936L713.9435333333333,342.6950899764835L714.5174111111111,343.20731378453326L715.0813944444444,342.1950161609415L715.1358138888888,341.47722980358554L718.18825,342.2427285648434L718.4158222222222,342.3691445672548L719.25685,342.3162836646409L720.8053305555555,343.0791883189624L723.0958944444444,343.53821686634944L723.2789416666667,343.9995276014309L723.5559861111111,344.33171296095156L724.9016305555556,344.4911547175631L725.0599416666666,344.32010499432386L725.1984638888889,344.45924344366193L726.0840166666667,344.0921384346608L727.4346083333332,344.4768450398533L728.028275,344.6679627389117L728.137113888889,341.52790831237314L728.2212166666667,341.53882887230645L729.7499083333333,342.09981329774547L730.2099999999999,342.21265360413634L731.5952222222222,342.66810788455336L732.2482555555555,343.3897469718399L732.7281361111111,338.39986405925026L733.7274749999999,339.4966668717084L736.0130916666667,341.06795150024016L736.4682361111111,341.66698584482873L736.9134861111111,342.58298615391266L738.1552388888889,343.3303530383405L738.6054361111111,343.88536881337757L739.0952111111111,344.0862231668472L739.3673083333333,344.34382609506713L739.7334027777778,344.10556950591706L739.7680333333333,343.45322522929087L740.940525,341.5688911464868L742.4692166666666,342.50722384659076L742.8056277777778,343.1910132208476L743.5625527777778,343.1655473225943L743.7307583333334,343.4471968606492L743.8692805555555,343.9882222182983L744.2007444444444,343.9558853322125L745.5909138888888,344.31285278753705L746.0559527777777,344.29421369561476L746.4814138888888,344.4016818829173L747.3273888888889,344.56492575453456L747.5450666666667,344.58197649435505L747.6291694444444,344.47792498900594L748.9847083333333,344.12991984335036L749.5190083333333,344.45441402267164L751.1763277777777,343.94279992642436L751.4137944444444,344.28435359033705L751.7848361111111,344.15608778415447L751.84915,344.4885482039969L752.0470388888889,344.4414751250331L753.1057444444444,344.1398012072339L754.1050833333334,343.7741678053882L754.2782361111111,343.3988000676778L754.9362166666667,343.83538266544673L756.1284972222222,343.9491403953415L757.3108833333333,344.20337335671724L758.216225,344.09239283320113L759.0671472222222,344.3478841769364L760.1308,344.6766479999766L760.5711027777778,344.35373068952526L761.7238055555555,342.9147706323599L762.0800055555555,343.38067556545025L763.113975,343.75631103466645L763.6136444444444,344.19351816331556L765.1126527777778,344.49712936235983L766.7551305555555,344.7602125493373L767.5565805555556,344.7671353996404L767.6901555555555,344.74781290658154L767.8682555555556,344.64704485015733L767.87815,342.5272891989102L768.6647583333333,343.31361215821L769.1743222222223,343.2305913603294L769.6344138888888,343.2066587301707L769.7580944444445,343.09638517155247L770.1439777777778,343.76387433160045L770.1736611111111,344.05633510471284L770.1983972222223,344.33882179687936L770.8365888888889,343.2448231770137L773.0677861111111,343.6340062875376L774.1165972222223,343.9007344265292L774.2155416666666,344.0656681045059L776.9711444444445,343.5427934862516L778.2574222222222,342.85750171773816L778.3167888888889,343.19759031361014L779.3062333333334,342.7917002824185L779.6376972222222,342.862293517896L779.677275,342.94326397687826L780.231363888889,343.44307260102136L781.2653333333333,343.8439415198181L781.4285916666666,344.22041456128153L783.3134833333334,344.55771371825824L784.2435611111111,344.84175366654233L784.4266083333333,343.29639496882805L784.6987055555555,343.8291455576223L785.7425694444445,343.58604627130757L786.3263416666666,343.67152430440916L787.1178972222223,343.5768076664372L788.3843861111111,342.2606089780043L788.7059555555555,342.87463644244224L788.7801638888889,343.66440107731836L788.7999527777778,343.0259471726329L789.4975111111112,343.26998935672725L791.1894611111111,343.97157212182265L791.5506083333333,344.4707308897225" style="fill: none;" fill="none"></path></g><g><path stroke="rgb(255, 112, 67)" stroke-width="2px" d="M128.62777777777777,-36.40046872593541L133.575,11.451600730737539L138.5222222222222,41.130631504544056L143.46944444444446,66.26058145525059L148.41666666666666,96.07814454526158L153.36388888888888,114.48366098084136L158.31111111111113,130.1544809176498L163.25833333333333,148.25224423253502L168.20555555555555,163.34148783979248L173.15277777777777,174.27728117549643L178.10000000000002,187.71362819252326L183.04722222222222,197.5427215221115L187.99444444444444,203.28935194931267L192.94166666666666,211.42174236121244L197.88888888888889,219.87671920756938L202.8361111111111,227.24261368359151L207.78333333333333,225.06324176940527L212.73055555555555,232.41587652698732L217.67777777777778,233.05468010963997L222.625,240.04710302953276L227.5722222222222,242.64055055573007L232.51944444444445,248.22877583651365L237.46666666666667,252.3867824259643L242.41388888888886,257.261030294794L247.36111111111111,261.12583887716113L252.30833333333334,262.0689545623493L257.25555555555553,263.28677440404147L262.2027777777778,266.8899441794577L267.15,269.8459219876648L272.09722222222223,272.4862882390421L277.0444444444444,274.08022945149617L281.9916666666667,276.56859253784063L286.9388888888889,278.7644941351965L291.8861111111111,279.7306926702655L296.8333333333333,279.0609588217807L301.78055555555557,276.4953276699304L306.72777777777776,278.6178022136288L311.67499999999995,280.77054124313435L316.62222222222226,283.2451222603323L321.56944444444446,282.93198215158463L326.51666666666665,284.9434971445203L331.4638888888889,287.06409440107257L336.4111111111111,288.5289604561567L341.35833333333335,290.1069590927267L346.30555555555554,291.0819760217861L351.25277777777774,291.7896894052986L356.20000000000005,292.85412945961144L361.14722222222224,293.2643352931791L366.09444444444443,294.28289917284997L371.0416666666667,295.2076972476067L375.9888888888889,295.68683067243984L380.9361111111111,296.6440314022126L385.8833333333333,296.63618983797335L390.8305555555556,296.7274200570777L395.77777777777777,297.2389729966536L400.725,297.7719401812657L405.6722222222222,298.3597018310608L410.61944444444447,299.4585126964747L415.56666666666666,299.62042198665034L420.51388888888886,300.5056961235517L425.4611111111111,299.4636110475341L430.40833333333336,299.80586667175186L435.35555555555555,298.2156278141141L440.3027777777778,299.6562848264371L445.25,300.5493444830581L450.1972222222222,300.85801196728573L455.1444444444444,300.3979101820859L460.0916666666667,300.3580876695938L465.0388888888889,298.0596954036265L469.98611111111114,299.7251152035337L474.93333333333334,301.1343148046192L479.88055555555553,302.18372544243846L484.8277777777777,303.44009900367L489.77500000000003,304.4401436469653L494.72222222222223,305.26865504477485L499.6694444444444,305.91756752914955L504.6166666666667,305.09815146984215L509.56388888888887,305.5357945409673L514.5111111111111,306.3396046308813L519.4583333333334,304.88662291674217L524.4055555555556,305.6032117427118L529.3527777777778,305.8598616175922L534.3,306.0764226878504L539.2472222222221,306.8470388270825L544.1944444444445,307.1217296769787L549.1416666666667,307.2574565876704L554.0888888888888,307.01016486578976L559.0361111111112,307.506210767805L563.9833333333333,306.7285420325234L568.9305555555555,307.6968507470077L573.8777777777779,308.3024968710834L578.825,308.4150620406341L583.7722222222222,308.6119304061288L588.7194444444444,308.06801859366533L593.6666666666666,308.7671230031376L598.6138888888889,309.0305198984836L603.5611111111111,309.79522443804854L608.5083333333333,308.5142105817325L613.4555555555555,307.57842507582353L618.4027777777777,307.1795914107669L623.3499999999999,307.70162218876993L628.2972222222222,308.4569926248366L633.2444444444445,308.9385163028817L638.1916666666667,309.54916971100727L643.1388888888889,309.9407022552442L648.0861111111111,309.798434695732L653.0333333333333,310.1663126059855L657.9805555555556,310.514744198582L662.9277777777778,310.8183707716029L667.875,310.33697431698147L672.8222222222222,310.5237016988151L677.7694444444444,310.95638218986636L682.7166666666667,311.4840506964747L687.6638888888889,311.38742611772L692.6111111111111,311.07718991276755L697.5583333333333,311.12205517505953L702.5055555555555,310.746214205141L707.4527777777778,310.71414981530245L712.4000000000001,311.2285853251527L717.3472222222223,311.5355966705613L722.2944444444445,311.49432032507156L727.2416666666667,311.5960287280492L732.1888888888889,311.87419437077733L737.1361111111111,311.3569938164733L742.0833333333334,310.2632961661951L747.0305555555556,309.8543193967146L751.9777777777778,310.2160402447732L756.925,310.519314295482L761.8722222222221,311.111565933698L766.8194444444445,311.78939652522917L771.7666666666667,311.9889078202137L776.7138888888888,312.3841918231762L781.6611111111112,312.50075127159926L786.6083333333333,312.0524464620305" style="fill: none;" fill="none"></path></g></g></g></g><g opacity="0.2"><g><g><g><path stroke="rgb(0, 119, 187)" stroke-width="2px" d="M113.17265555555555,-36.141009092330876L114.63703333333333,16.431564331054688L115.14165,-47.89959347248072L115.35932777777776,23.762519001960754L115.36427499999999,-41.221123695373535L116.84844166666667,8.342681765556392L117.46189722222222,53.49271380901337L117.46684444444445,15.694214344024658L117.50642222222221,-193.0729386806487L117.97640833333334,-51.80808162689203L118.7283861111111,41.27953791618353L118.83227777777778,-161.43140172958374L121.89955555555557,2.476588726043701L123.94275833333333,62.069176375865936L125.93154166666666,-88.15936839580536L126.6291,36.4811115860939L127.50475833333333,114.01168280839926L129.64195833333335,14.543729066848755L130.2752027777778,95.0403728485108L131.23496388888887,2.6310356855392456L132.95659722222223,103.07120168209076L133.61952499999998,161.32059270143512L134.48034166666667,65.01816326379782L134.7079138888889,133.07863497734073L135.30158055555557,12.86309981346136L137.13205277777777,69.5982872843743L137.63172222222224,66.4876812100411L139.60071666666667,126.69120365381247L140.29332777777776,151.5075405836106L140.4516388888889,24.880372524261475L140.48626944444445,106.75034755468374L140.921625,95.25546455383301L143.02419444444445,137.02722752094272L144.2857361111111,156.65682399272922L145.36917777777776,150.4367571473122L145.38896666666668,112.96433115005499L146.05684166666668,183.39758956432345L146.1508388888889,165.03991806507113L146.6010361111111,143.17741209268573L146.67029722222222,108.3655818700791L147.600375,100.3934451341629L147.61521666666667,175.6338229179383L148.17425277777778,136.78984934091574L148.77286666666666,188.4266536831856L149.47537222222223,53.25680011510849L150.03440833333335,156.4355927109719L150.09872222222222,211.72499442100528L150.29166388888888,140.29259973764422L151.19700555555553,216.75313854217532L151.35036944444445,199.48987939953807L151.7906722222222,121.96449959278112L152.409075,157.9685341715813L152.57233333333335,147.44015568494802L152.63664722222222,73.34280931949621L153.03737222222225,91.70284652709967L153.2797861111111,151.94940233230594L153.37378333333334,214.24770319461825L153.4578861111111,206.5280494987965L153.71514166666668,183.90918338298803L154.43248888888888,238.7995971143246L154.5512222222222,205.60537630319598L154.60069444444443,196.13617801666263L155.45161666666667,187.86327713727954L156.93083611111112,128.1123935580254L158.76625555555555,207.91158521175387L158.81078055555554,197.7229581177235L159.70622777777777,154.92634588479999L159.711175,206.5908346474171L159.8200138888889,193.75580602884295L160.3394722222222,197.610662072897L160.779775,233.30654436349872L160.84408888888888,180.54955834150317L161.26460277777778,225.32025092840198L161.3338638888889,132.85353595018393L163.24349166666667,228.65533643960956L163.79263333333333,192.25451999902728L164.1389388888889,223.96821105480197L164.7820777777778,256.38360688090324L164.83155,212.13775420188907L166.51855277777776,206.24711224436763L167.00338055555557,228.45715203881267L167.77020000000002,215.6975444555283L168.95258611111112,205.71298786997798L169.49183333333332,263.8721346259117L169.84803333333335,285.76334358751774L170.6198,252.82821947336197L170.65443055555556,187.63235771656042L170.70390277777778,184.135033428669L170.9067388888889,230.04332193732264L171.34704166666668,232.6224509775639L172.01491666666666,261.5520318746567L172.30680277777776,221.64382749795917L172.801525,204.78975141048434L172.8213138888889,194.55672973394397L173.29624722222223,274.04782542586327L173.6672888888889,176.03090518713L173.95422777777776,189.41566997766498L173.98885833333333,172.78029048442843L174.05317222222223,205.93684771656993L174.38958333333332,184.15564888715747L174.65673333333334,250.9727531075478L174.671575,214.53030207753184L175.6016527777778,252.40300217270854L175.63628333333335,211.94200122356418L176.2992111111111,261.97336265444756L176.42289166666666,219.21763399243358L177.25897222222224,244.77888742089274L177.51128055555557,245.41904622316363L178.57988055555555,194.90104356408122L179.17354722222223,200.14847570657733L180.80613055555554,243.90729287266734L181.25632777777778,281.5519884377718L182.0379888888889,202.49584043025973L182.35461111111113,161.80190169811252L185.21410555555556,225.92091554403308L185.33778611111111,219.29638767242434L185.802825,248.8564486205578L185.83250833333332,259.64462319016457L185.87208611111112,261.5277082622051L186.46080555555557,193.39660325646403L186.8961611111111,220.85790538787845L188.06865277777777,235.24206930398944L188.3605388888889,230.59332096576694L189.56271388888888,290.0970912873745L190.93804166666666,280.7381800711155L194.81171666666665,255.07923790812495L195.19265277777777,249.63709482550624L195.44990833333333,296.8980803489685L195.45980277777778,294.99789552390575L196.56798055555558,249.880011767149L196.79555277777777,278.82885628938675L197.03301944444445,270.6299354285002L197.3348,271.37707681953907L197.38921944444445,274.05330316722393L198.0224638888889,263.8015482723713L199.50168333333335,288.1156931966543L200.81764444444445,269.95062978565693L201.21342222222222,271.81260184943676L201.77245833333333,285.6705834120512L203.04884166666668,243.93658259510997L204.2807,232.6588002741337L206.0913833333333,255.81369647383693L208.16921666666667,271.63418331742287L209.77211666666668,273.73209254443645L209.84137777777778,289.4477137327194L209.89085,185.97332024574285L210.47462222222222,272.5464361310005L210.51914722222222,311.93668650090694L211.2463888888889,275.04613088071346L211.4244888888889,303.227739572525L211.6025888888889,304.7046550512314L212.45845833333334,250.03049710392955L215.48121111111112,279.64276322722435L216.0550888888889,288.57771979272366L217.52936111111111,243.38419908285144L218.5979611111111,245.2959918379784L218.98879166666669,305.29401214420795L220.32454166666668,275.391528993845L220.5125361111111,224.7829722762108L220.57685,320.3500724360347L221.81365555555556,264.8980916440487L222.45184722222223,274.67084223032L225.20250277777777,278.1260578483343L226.25131388888886,309.8690198510885L227.87895,297.29351507127285L229.3086972222222,290.91967248916626L229.82815555555553,288.2035201191902L232.1286138888889,284.7629258930683L232.7074388888889,321.60586224496365L232.82122500000003,295.10795728862286L233.3307888888889,266.45263427495956L235.68566666666666,283.7135652601719L236.08639166666666,256.3749701678753L239.1635638888889,257.31587433815L240.30637222222222,286.6063618808985L241.53328333333332,299.28012804687023L242.22094722222224,308.7291028127074L243.57648611111108,318.6595086157322L244.3482527777778,287.9554211497307L244.74897777777778,297.225055038929L245.10517777777778,227.68320867419246L246.59429166666663,318.104728884995L247.3413222222222,290.1021700501442L247.39079444444445,299.10670378804207L248.21203333333332,280.38817727565765L248.5484444444444,301.33534187078476L248.72654444444444,297.69778364896774L248.90464444444444,318.8197665810585L249.58241388888888,313.6358870342374L249.62693888888887,282.0115695297718L250.43828333333335,312.7011740729213L251.61572222222222,304.71331053972244L253.06031111111108,305.5805069357157L253.31756666666664,327.5663407109678L253.4115638888889,302.73005367815495L253.83207777777776,306.89667159318924L253.93102222222223,316.0399372279644L255.62297222222222,300.03524900972843L256.70146666666665,310.65553104132414L257.1269277777778,277.974666595459L258.83371944444445,316.8167250752449L259.0415027777778,261.2250759601593L260.7433472222222,325.5141861140728L262.4204555555556,295.8436221778393L262.70244722222225,291.2409722954035L262.831075,313.74326860159636L263.0289638888889,236.7490630745888L263.7858888888889,269.8338651806116L263.88978055555555,322.26421212404966L264.4735527777778,328.7464853525162L265.3442638888889,318.91774164140224L266.71464444444445,280.8215572088957L267.26378611111113,305.26754343509674L268.352175,292.55862490832806L268.7875305555555,297.1508309394121L268.886475,306.31321938335896L269.7126611111111,299.25704361498356L270.69715833333333,310.980318389833L272.9036194444445,309.078021325171L273.1212972222222,297.7391272187233L273.5467583333333,292.21084700524807L273.6308611111111,298.2930080741644L273.84359166666667,316.0472479239106L273.9178,304.34985043108463L274.15031944444445,332.18446040153503L275.2139722222222,245.90566867589953L275.33270555555555,325.38464011251926L275.4069138888889,305.7558228224516L276.6832972222222,291.37902358174324L277.7964222222222,331.18589091673493L277.8310527777778,314.61756681650877L278.8106027777778,320.292089112103L278.8353388888889,278.6665283292532L279.0134388888889,302.06734554469585L279.75057499999997,313.094609208405L280.74496666666664,296.10684947669506L280.98738055555555,313.03450425714254L281.67504444444444,299.1242025196552L282.0460861111111,324.7260391116142L282.87721944444445,312.22993107140064L283.0701611111111,300.28078512847424L285.8554472222222,306.3255407810211L286.15228055555554,320.565687507391L287.3000361111111,258.4356429576874L287.5572916666667,322.6148861423135L288.51705277777774,321.2445636615157L289.71922777777775,299.2264489978552L289.85280277777775,306.91169196367264L291.0846611111111,317.7649258598685L293.3208055555556,277.628461137414L293.48901111111115,315.5113117173314L293.731425,297.2107528299093L294.1420444444444,308.1170274093747L294.2310944444444,325.7129525542259L294.58234722222227,292.07255163788795L294.98307222222223,286.67721109092236L295.7993638888889,321.52811539918184L295.81420555555553,320.658353805542L296.27924444444443,320.87399938702583L296.2841916666667,328.9181646667421L297.72878055555555,324.9337379783392L298.4263388888889,334.5989251099527L298.47086388888886,277.4304504096508L300.0193444444444,281.8159385919571L300.85542499999997,291.5976309925318L301.0038416666667,310.8386082351208L301.7657138888889,320.59947630017996L301.79044999999996,316.75895062834024L301.99823333333336,332.172755073756L303.3092472222222,275.97255447506905L303.76439166666665,319.96753880381584L304.3531111111111,307.74236539006233L304.773625,322.87691885232925L306.97513888888886,314.0569338351488L308.34551944444445,338.3007664103061L309.03318333333334,328.7563870623708L309.3597,323.25538290292025L309.9236833333333,331.31939502060413L311.6947888888889,317.8652267307043L312.2785611111111,332.1264653429389L312.52097499999996,315.65719471871853L312.6397083333334,334.9005951695144L314.05461388888887,323.63680408895016L314.1040861111111,322.1970123946667L314.3662888888889,324.14377914369106L314.6185972222222,308.39665507525206L314.73733055555556,329.4063501767814L314.80164444444443,323.4986119866371L315.61298888888894,317.1143067777157L315.6575138888889,337.0497056711465L315.7020388888889,330.99844256043434L316.20170833333333,327.77308554947376L316.5084361111111,338.23556509427726L316.71621944444445,320.18228551000357L316.80032222222223,336.50237569212914L317.2802027777778,330.1166576296091L317.5028277777778,323.981293939054L318.5565861111111,316.05187138170004L318.6209,330.0873397439718L319.45698055555556,313.0800863876939L320.0457,319.03828950226307L320.47116111111114,322.00623022019863L321.7030194444444,333.4565930776298L322.94971944444444,330.3136849924922L323.18718611111115,305.663273870945L323.68685555555555,279.1649887114763L323.9391638888889,265.1008197069168L324.8939777777778,309.19491735845804L324.898925,316.6867073401809L328.47081944444443,300.63400791585445L328.906175,328.7885963693261L329.6383638888889,334.1937529630959L331.23631666666665,320.4078891277313L332.0723972222222,328.4923606328666L332.16639444444445,336.54029743373394L332.646275,325.57019566744566L334.56084999999996,326.8701817430556L338.4988388888889,309.9735921397805L339.4586,312.91683138906956L339.66638333333333,324.6951581686735L339.7801694444445,333.5067270845175L339.86427222222227,331.80816961079836L340.45299166666666,338.3441342096776L341.7145333333333,330.83212481439114L341.98663055555556,315.7175507918L342.1449416666666,316.4566116929054L342.75839722222224,335.211773827672L343.12449166666664,335.0210913978517L343.5796361111111,325.8815937638283L343.88141666666667,328.261860139668L344.1436194444444,330.550951693207L345.05885555555557,317.8742647692561L345.37053055555555,306.4681779742241L345.78114999999997,323.07713804394007L346.05819444444444,309.89773926883936L346.4539722222222,332.2057858072221L346.77059444444444,317.09654988348484L346.9882722222222,279.26296377182007L346.99321944444443,310.2215103954077L347.09711111111113,299.07992528378963L347.2306861111111,332.7753312662244L349.06115833333337,324.21058928221464L349.60040555555554,314.07116094231606L349.84281944444444,335.9202307239175L350.1050222222222,335.3098650611937L351.5199277777778,324.9601480141282L351.57434722222223,331.35466942191124L352.71715555555556,334.10030396282673L352.91009722222225,311.7699603885412L353.03377777777774,325.93885892629623L354.3546861111111,330.0375941544771L354.8048833333333,283.34734515845776L355.7596972222222,337.75784983858466L358.54993055555553,291.0959036797285L358.7725555555556,330.3664323091507L360.4744,325.5393780916929L361.2115361111111,311.7778484299779L361.4935277777778,329.6361430697143L362.6363361111111,329.30932679772377L362.9678,298.8413220047951L363.25968611111114,334.1699351146817L363.7643027777778,332.3282252959907L364.3678638888889,336.3135262168944L364.61027777777775,324.76658472418785L365.06542222222225,306.8418096899986L365.09510555555556,333.566160812974L365.14952500000004,337.04154069162905L366.0251833333333,329.4901427216828L366.307175,336.2744791209698L366.9107361111111,339.77054427936673L367.67755555555556,324.177380181849L368.3157472222222,300.953434869647L370.0522222222222,337.05503555573523L370.64588888888886,335.53854550793767L370.72999166666665,331.4900921434164L371.204925,328.85562359914184L373.4757,333.8540872335434L373.9258972222222,334.982276648283L374.89555277777777,332.93246077001095L376.3450888888889,326.5242989882827L376.5875027777778,331.9421970807016L376.8398111111111,337.57092132791877L377.58684166666666,321.4266128987074L379.32331666666664,341.4334107711911L379.3826833333333,318.1922554001212L379.4222611111111,335.5173855610192L379.9466666666667,320.7651392519474L380.32760277777777,326.5488690286875L380.96579444444444,332.9551626518369L381.67819444444444,337.43191190622747L382.1877583333333,341.03115586191416L382.9001583333333,329.3042562492192L383.54824444444444,309.1329864934087L384.47337500000003,339.45232716947794L384.63663333333335,332.2100771740079L384.90378333333337,342.9826235175133L385.55186944444443,328.5268511585891L386.0020666666667,319.00603560358286L386.2246916666666,328.8872496932745L386.81341111111107,331.20325822010636L387.21908333333334,326.70578496158123L387.22897777777774,337.737709634006L388.8120888888889,340.48487026803195L389.7223777777778,337.2167832367122L390.261625,341.1421123947948L390.3605694444444,335.0676662810147L391.1076,337.0269239936024L391.1620194444444,328.32654278352857L393.2448,318.34673991054296L393.45753055555554,317.2119157165289L393.82857222222225,326.08049163222313L394.9862222222222,312.3669684827328L395.3077916666667,319.2755996212363L396.42091666666664,332.4098727442324L397.1679472222222,311.16452445834875L397.60825,322.81103340536356L398.3453861111111,325.49555146694183L398.50369722222223,319.6511699035764L400.90804722222225,332.9996757544577L401.06635833333337,293.51300516724586L402.28832222222223,328.60978941991925L404.78666944444444,319.4190253838897L404.9301388888889,334.0863620080054L405.1824472222222,340.9653678126633L405.3902305555556,328.10006610676646L405.5633833333334,337.34415363147855L406.91892222222225,334.08027171716094L407.02776111111115,332.90181217342615L407.18607222222226,328.8892445862293L407.91826111111106,332.9595807529986L408.0468888888889,333.84964918345213L408.51687499999997,342.29030002467334L409.25895833333334,305.2244866043329L409.41726944444446,336.8529898636043L410.30776944444443,336.8935612924397L410.87669999999997,334.9742524847388L411.0548,329.0942163169384L411.7078333333333,328.53779842704535L412.1877138888889,316.1387595310807L412.4301277777778,317.9637838304043L413.2117888888889,333.96289221569896L415.01752500000003,291.4830725044012L415.3588833333333,318.16499108076096L415.62603333333334,339.19789206795394L415.7942388888889,329.23781809955835L417.79291666666666,324.4175793752074L418.85162222222226,334.60019362717867L419.1632972222222,333.8160962574184L420.15768888888886,339.12877020053566L420.1923194444445,339.9227839484811L421.1322916666667,307.9740405231714L421.2262888888889,342.15111957024783L421.2361833333333,338.6502035949379L422.1662611111111,330.7344853654504L423.6603222222222,341.3528781160712L423.83347499999996,317.5672038048506L425.4907944444445,340.78292957134545L425.7084722222222,340.3043840881437L426.8859111111111,337.89015407301486L427.72199166666667,343.19993600808084L428.0979805555555,336.898800233379L428.29586944444446,312.41293551027775L428.4492333333334,333.8681031167507L429.29520833333333,338.51828953810036L429.6019361111111,320.2195548042655L430.1312888888889,340.6774384584278L430.8140055555555,338.5988257136196L431.4967222222222,338.6559324581176L431.81334444444445,340.5373576618731L433.3123527777778,341.1849838178605L434.26221944444444,330.8964202143252L435.33081944444444,320.9210248813033L435.34566111111116,323.70233984291553L436.16195277777774,330.1469095945358L437.5125444444444,331.3765639588237L437.58180555555555,335.09384045004845L437.7549583333333,342.11371532734483L437.98747777777777,335.2590926885605L439.3430166666667,315.35220140218735L440.2236222222222,343.2487692274153L440.3571972222222,324.0064366310835L440.3621444444445,330.61712815985084L440.8222361111111,293.88503627479076L443.45910555555554,324.07189728319645L443.6273111111111,325.4890645444393L443.83509444444445,337.49842633120716L444.8542222222222,331.9535362869501L445.27473611111105,297.55040565133095L446.17018333333334,338.2447685915977L446.3779666666666,339.57261041365564L448.77242222222225,331.0949085429311L449.0890444444445,340.21542477048934L450.2714305555555,334.2537945471704L450.4198472222222,321.1182235702872L451.10751111111114,338.94493436068296L451.34003055555553,329.51445577293634L451.8248583333333,323.22638185322285L453.2842888888889,340.11096689477563L453.39312777777775,343.2058320902288L454.0412138888888,336.2320759110153L454.3083638888889,340.65796536952257L454.4963583333333,328.85190253704786L454.98118611111107,327.5238764807582L454.9910805555556,341.8281158907339L456.0102083333333,318.7237230464816L456.2823055555556,327.9681015908718L456.3416722222222,340.8908251170069L457.1975416666666,328.5903098769486L457.6328972222222,338.7856720816344L459.1170638888889,342.4072277415544L460.91290555555554,339.643941918388L460.9178527777778,340.31915744394064L460.94258888888885,340.54438672587276L463.96039444444443,332.37249901145697L464.56395555555554,333.7655456699431L465.0735194444444,340.35602306574583L465.3703527777778,341.6927483221516L465.9887555555556,332.58446929603815L466.11243611111115,341.29182148352265L468.358475,343.7394512873143L469.1055055555555,340.6003481671214L469.55075555555555,341.9334717616439L470.21368333333334,310.0587764158845L471.4307,337.38479957543314L471.51975,323.1071365401149L474.40398055555556,338.0312569588423L475.81888611111106,323.8706829920411L475.8337277777777,335.7624663747847L475.86835833333333,338.41113620996475L476.64507222222227,340.2879391293973L477.1694777777778,283.4587071239948L477.6938833333333,338.08223879523575L478.35186388888894,330.4432403817773L478.5645944444444,333.7477629594505L479.65793055555554,336.86985374987125L480.4494861111111,325.38350185006857L481.0629416666667,341.9810663871467L481.73576388888887,342.9076800830662L481.9089166666667,329.34448854625225L483.4672916666667,341.0836426690221L484.47652500000004,337.73972858302295L485.33239444444445,340.9491094350815L485.58470277777775,332.93460469320416L486.4158361111111,335.56196085736156L486.58898888888893,326.086049169302L487.2420222222222,331.50339455902576L488.37988333333334,340.23086993582547L488.64208611111115,327.61863154917955L489.08238888888883,335.76821518689394L489.63153055555557,339.2175828348845L489.7255277777778,333.6938351355493L490.4824527777778,341.56189009174705L490.9128611111111,338.8984046559781L491.7934666666667,327.76808071509004L493.8366694444444,340.1155440006405L494.4204416666667,339.865830341354L494.7321166666666,341.59392484556884L495.42967500000003,314.8502300083637L496.1915472222222,326.6426172628999L496.6071138888889,342.2132845418528L498.52663611111115,342.58698666561395L498.6107388888889,345.2353581469506L498.813575,338.3005745485425L499.16482777777776,339.9795392397791L499.8920694444444,338.08850393258035L501.4553916666667,340.0643685422838L501.94516666666664,341.7007331745699L502.18758055555554,337.59608983621L502.8505083333333,339.2030793763697L503.87953055555556,336.84821620211005L504.15657500000003,339.5899917986244L506.94680833333337,340.167080886662L507.0408055555556,342.61128270160407L507.72846944444444,334.8195497095585L508.074775,343.2445321334526L508.87622500000003,332.99313133209944L508.89601388888894,331.40457460284233L509.56388888888887,345.15119038615376L511.2954166666667,317.1984654441476L512.2254944444444,333.07279796898365L512.4332777777778,331.89076521992683L512.4728555555556,341.3668711166829L512.5025388888889,342.04859556723386L512.6806388888889,340.7012862302363L512.7004277777777,338.65461113490164L513.0863111111112,341.5800738343969L513.4375638888889,336.4986874870956L513.4969305555555,340.1542859952897L513.6008222222223,339.5693411361426L514.7931027777778,344.07508439943194L514.8029972222222,318.2984376847744L519.7551666666667,343.3255770066753L520.0272638888889,340.07854812406003L524.6578638888889,344.33155619865283L524.9200666666667,339.9561637882143L525.0833250000001,342.4223578311503L525.3356333333334,338.0799364540726L526.2904472222223,336.0529145747423L526.3844444444445,342.34859343711287L527.5124111111111,336.08058374002576L527.6608277777777,341.7080004522577L528.2742833333333,337.80957271903753L528.3138611111111,341.89663723669946L528.6403777777778,339.32557695172727L529.9118138888889,316.4170869961381L530.2333833333333,342.3713671937585L530.3818,335.3931389339268L532.4250027777778,341.40779047831893L532.5684722222222,343.51220510993153L533.8003305555555,307.0590230226517L533.9289583333333,345.5214385581203L533.9388527777778,340.8465555086732L534.077375,339.96865768544376L536.7389805555556,339.75406294316053L538.3369333333334,343.8502482287586L538.8563916666667,340.41715303994715L539.8112055555556,326.06974502652884L540.2465611111111,327.3554746583104L541.1865333333334,344.89778089430183L541.315161111111,334.887681171298L541.5823111111112,341.0634778216481L541.6515722222222,331.6754716783762L541.6614666666667,342.41863764915615L543.2544722222223,321.2356593981385L544.3626499999999,337.3724916726351L546.4157472222222,339.67587018013L546.5790055555556,342.11440356541425L547.4101388888888,344.8226640801877L547.6426583333333,299.7899288088083L549.0476694444444,344.5024429829791L551.5262277777778,341.7210373710841L552.0357916666667,332.42024149373174L552.3722027777778,342.7963668163866L552.9609222222223,342.5205027507618L553.0499722222222,331.5670011341572L554.0690999999999,340.8199835345149L554.202675,342.54876921046525L555.4147444444444,338.52777818776667L555.5977916666667,306.0010820031166L555.6670527777777,340.8216651119292L557.0126972222222,342.47308033145964L557.8190944444444,344.70334557211027L558.5265472222222,332.12012158334255L559.6891444444444,337.58907074667513L560.3273361111112,339.48776468262076L560.3965972222222,343.7650287486613L561.5146694444445,344.40828799596056L561.5591944444444,344.82559554604813L561.6482444444445,332.81937615573406L561.8016083333333,333.9652849137783L561.880763888889,343.32905486784875L562.2320166666666,343.20238679274917L562.4249583333334,343.00694008916616L563.6370277777778,341.2943637985736L563.7409194444444,333.6064799465239L563.8250222222223,333.9237348139286L564.1169083333333,337.7418390624225L564.6264722222222,340.0093669965863L565.0074083333333,338.6933507826179L565.8682249999999,342.9883350720629L566.333263888889,326.22033832222223L567.1643972222222,341.4288882315159L568.1637361111111,339.1397908106446L568.6782472222222,344.82124271895736L569.0443416666667,343.7444986598566L569.6726388888889,345.4814734447282L572.6854972222222,334.7402175106108L573.7194666666667,338.9752537999302L574.5011277777777,344.9090141952038L574.6742805555556,337.7095376383513L575.0255333333333,333.9349672347307L575.9160333333334,341.92098255828023L576.9351611111111,342.5587301803753L577.3804111111111,341.28927212767303L578.4688,344.5125044309534L578.4836416666666,343.46180971339345L579.4285611111111,342.69797106832266L580.1360138888889,306.1095572412014L580.8780972222222,338.7034062165767L580.9572527777779,337.93595094792545L581.0215666666667,343.76543007418513L581.05125,340.56239063479006L581.5707083333333,341.0853195525706L581.7141777777778,345.1946321139112L581.8873305555555,342.59810643363744L582.9757194444445,343.352153968066L585.2316527777778,336.33941288664937L585.6472194444444,341.7868409687653L586.9334972222222,343.9719587014988L590.1541388888888,333.6496928483248L590.1986638888889,343.924977212213L591.1089527777777,340.2469757627696L592.0835555555556,343.81482949107885L592.5288055555556,331.57583498954773L592.8553222222222,335.2023461982608L592.8998472222222,338.2092571500689L593.2362583333334,341.63426774181426L597.0753027777778,342.48515002056956L598.4456833333334,344.04554194165394L598.50505,343.91326455026865L600.3355222222222,340.06315517798066L600.3948888888889,337.7763160932809L600.528463888889,344.8602656121366L600.8055083333333,343.55181224271655L601.2458111111112,345.23429293278605L601.933475,339.39796750992537L602.8536583333333,343.6355807315558L602.9080777777777,342.007942289114L603.110913888889,343.86238920595497L604.2586694444444,336.60011488571763L604.5950805555556,342.3335234876722L605.0403305555556,344.6047999137081L605.2134833333333,340.70773384161294L605.8962,325.78653594106436L606.4453416666668,343.65540556702763L606.8213305555556,343.9028259795159L606.8361722222222,340.6643038485199L607.1428999999999,342.0335464468226L607.2517388888889,343.47242049034685L608.1966583333334,344.0874052103609L608.4539138888888,324.7982448488474L609.8094527777778,341.1065680962056L610.5663777777777,342.92228211276233L610.7444777777778,343.718418661505L610.8137388888889,342.4105316363275L611.4964555555556,338.21002107672393L611.8081305555555,322.1569690257311L612.0357027777777,335.18009492754936L613.1488277777778,343.1494212113321L614.5884694444444,342.85942039545625L614.8605666666667,343.3643357232213L615.6224388888888,342.18832667078823L616.3298916666668,339.6878700479865L617.3589138888889,340.42358070239425L617.8091111111112,344.7261483720504L617.9031083333333,340.3148672506213L618.3038333333334,338.5536413881928L622.5633916666667,337.07641200721264L625.6257222222223,334.60898054391146L626.6250611111111,345.0731910984032L627.4067222222222,340.56701585277915L627.5650333333333,335.9286667741835L628.9848861111111,345.088811843656L629.5933944444445,344.3258442040533L630.7263083333333,344.10941225336865L631.1171388888889,343.28355399984866L631.8740638888889,342.98687498643994L632.2401583333333,343.2610903317109L632.9674,344.5735752917826L633.0613972222222,343.26105718128383L633.6204333333334,343.53433052636683L635.7873166666667,341.21928365528584L635.9159444444444,339.3423017822206L636.3958250000001,343.92109245155007L637.2962194444444,343.22086155507714L637.7216805555555,338.6461269725114L638.7902805555556,341.3166755028069L639.5373111111111,343.6875755628571L639.6412027777778,338.3936052080244L639.6857277777777,342.139484943822L640.53665,343.1112946998328L642.7975305555556,341.0296772941947L644.0392833333333,343.768050131388L644.5933722222222,341.3543091583997L644.9644138888889,343.0057144034654L647.6062305555555,344.4076125193387L647.8189611111111,345.2857398285996L648.2196861111111,344.3225276945159L649.7285888888888,344.9274446591735L649.9561611111111,340.36627740226686L651.8212638888889,345.2653273064643L652.0438888888889,342.89150032773614L652.4446138888889,343.5957262907177L652.7859722222222,338.57965596579015L653.2114333333334,339.0050093885511L654.8390694444445,341.4732757732272L655.1556916666667,339.70655515417457L655.8878805555555,342.80500881001353L656.1946083333333,328.05462596565485L657.1988944444444,343.94000521022826L658.2773888888889,340.65037245489657L658.4010694444445,342.80957652814686L660.9934138888889,342.2587595935911L661.6711833333334,342.3668540418148L662.556736111111,343.5136707695201L662.6408388888889,344.2394043188542L662.9228305555555,344.2518885349855L663.2444,344.9622680093162L664.0953222222222,314.23618318140507L666.2176805555556,344.182191375643L666.4947249999999,343.3533864011988L667.0982861111111,343.97371186036617L667.4544861111111,344.62696097418666L668.0679416666667,344.9245497174561L668.6616083333333,342.79201266914606L669.789575,345.1358531797305L670.234825,342.159389575012L670.9818555555555,344.8495813468471L671.4716305555556,341.77329593896866L671.8674083333333,340.8028520978987L672.7133833333332,343.3222073977813L673.3565222222222,341.5087596382946L673.8265083333333,344.312565844506L673.8759805555555,343.95744116138667L673.9897666666667,345.0441084927879L674.6823777777778,344.69240387761965L675.2612027777778,344.7520230137743L675.8796055555556,343.91782640106976L676.9432583333333,345.3399108534213L677.6358694444444,342.0166652519256L678.2839555555555,342.62150154076517L678.3829000000001,344.0362144969404L680.2282138888888,344.35711356438696L680.3271583333334,343.4131962256506L680.43105,344.02166762016714L680.500311111111,306.0452043414116L681.277025,345.22882223222405L683.0233944444444,342.62658001016825L683.8743166666667,326.36302480101585L683.9386305555556,344.0806812476367L684.7648166666667,342.9073837827891L686.6793916666667,344.83439361071214L686.8080194444444,341.4874107632786L687.0999055555556,343.4533141097054L687.8914611111112,342.49358724430203L688.4702861111111,338.66661393642426L688.4851277777777,343.186572865583L688.7918555555556,344.1586419576779L689.0144805555556,331.42589766159654L690.3551777777777,342.49053828511387L691.0082111111111,337.1902716960758L691.7156638888889,343.45169501937926L692.1262833333333,344.1843284047209L692.1658611111111,343.0922757424414L692.4775361111111,344.2279938245192L693.5016111111112,345.129666371271L696.2126888888889,343.61416027508676L696.860775,344.1853315718472L697.2367638888888,345.2244994752109L698.285575,340.81120776571333L698.3202055555556,343.393233214505L698.5378833333333,343.9077413370833L699.2107055555556,343.6135301236063L699.7301638888889,343.9414303852245L701.4320083333333,341.10234361700714L701.5408472222222,341.57251465693116L701.7189472222221,345.0884994082153L701.9663083333334,343.655314036645L704.1232972222222,341.6108559127897L704.3459222222222,343.38399333972484L704.3805527777778,336.73060142062604L704.4696027777778,340.26196327619255L704.583388888889,336.19684140756726L704.9742194444444,345.4113734930288L705.2364222222222,343.53993470873684L707.4230944444444,341.7494417130947L707.6259305555556,343.7997789038345L707.68035,342.1266771443188L707.9079222222222,344.1039647287689L708.0711805555555,341.7800900163129L708.0959166666667,340.6816300805658L708.6648472222222,344.5366737325676L708.9369444444444,344.56143270106986L709.7334472222221,341.38236556760967L710.6437361111111,342.29123058356345L711.2522444444445,341.20651340670884L711.8558055555555,334.5148837901652L712.6720972222223,334.8188385888934L712.6918861111111,345.8855620420072L713.3102888888889,343.83188905287534L713.6565944444444,344.76550672994927L713.9435333333333,343.9073420651257L714.5174111111111,344.7439852086827L715.0813944444444,339.15812329016626L715.1358138888888,339.3238707315177L718.18825,344.53922484861687L718.4158222222222,342.7483925744891L719.25685,342.1577009567991L720.8053305555555,345.36790228192694L723.0958944444444,344.91530250851065L723.2789416666667,345.3834598066751L723.5559861111111,345.32826903951354L724.9016305555556,344.9694799873978L725.0599416666666,343.8069558246061L725.1984638888889,344.87665879167616L726.0840166666667,342.99082340765744L727.4346083333332,345.63096485543065L728.028275,345.24131583608687L728.137113888889,332.1077450327575L728.2212166666667,341.5715905521065L729.7499083333333,343.7827665740624L730.2099999999999,342.5511745233089L731.5952222222222,344.03447072580457L732.2482555555555,345.55466423369944L732.7281361111111,323.4302153214812L733.7274749999999,342.78707530908287L736.0130916666667,345.78180538583547L736.4682361111111,343.46408887859434L736.9134861111111,345.3309870811645L738.1552388888889,345.5724536916241L738.6054361111111,345.5504161384888L739.0952111111111,344.68878622725606L739.3673083333333,345.1166348797269L739.7334027777778,343.39079973846674L739.7680333333333,341.4961923994124L740.940525,335.9158888980746L742.4692166666666,345.3222219469026L742.8056277777778,345.24238134361804L743.5625527777778,343.08914962783456L743.7307583333334,344.2921454748139L743.8692805555555,345.6112982912455L744.2007444444444,343.85887467395514L745.5909138888888,345.3837551535107L746.0559527777777,344.23829641984776L746.4814138888888,344.72408644482493L747.3273888888889,345.0546573693864L747.5450666666667,344.6331287138164L747.6291694444444,344.1657704729587L748.9847083333333,343.08590440638363L749.5190083333333,345.4278965606354L751.1763277777777,342.40795763768256L751.4137944444444,345.3090145820752L751.7848361111111,343.77129036560655L751.84915,345.48592946352437L752.0470388888889,344.3002558881417L753.1057444444444,343.2347794538364L754.1050833333334,342.6772675998509L754.2782361111111,342.27269685454667L754.9362166666667,345.14513045875356L756.1284972222222,344.2904135850258L757.3108833333333,344.96607224084437L758.216225,343.7594512626529L759.0671472222222,345.1143582081422L760.1308,345.6629394690972L760.5711027777778,343.3849787581712L761.7238055555555,338.5978904608637L762.0800055555555,344.7783903647214L763.113975,344.8832174423151L763.6136444444444,345.5051395492628L765.1126527777778,345.4079629594926L766.7551305555555,345.5494621102698L767.5565805555556,344.78790395054966L767.6901555555555,344.6898454274051L767.8682555555556,344.34474068088457L767.87815,336.1680222451687L768.6647583333333,345.6725810361095L769.1743222222223,342.9815289666876L769.6344138888888,343.13486083969474L769.7580944444445,342.7655644956976L770.1439777777778,345.7663418117445L770.1736611111111,344.93371742405L770.1983972222223,345.1862818733789L770.8365888888889,339.96282731741667L773.0677861111111,344.8015556191094L774.1165972222223,344.70091884350404L774.2155416666666,344.560469138436L776.9711444444445,341.9741696314886L778.2574222222222,340.80162641219795L778.3167888888889,344.21785610122606L779.3062333333334,341.5740301888436L779.6376972222222,343.07407322432846L779.677275,343.1861753538251L780.231363888889,344.94249847345054L781.2653333333333,345.04654827620834L781.4285916666666,345.3498336856719L783.3134833333334,345.56961118918844L784.2435611111111,345.6938735113945L784.4266083333333,338.66031887568533L784.6987055555555,345.42739732400514L785.7425694444445,342.85674841236323L786.3263416666666,343.927958403714L787.1178972222223,343.29265775252134L788.3843861111111,338.31201291270554L788.7059555555555,344.7167188357562L788.7801638888889,346.0336949819466L788.7999527777778,341.1105854585767L789.4975111111112,344.0021159090102L791.1894611111111,346.07632041710895L791.5506083333333,345.96820719342213" style="fill: none;" fill="none"></path></g><g><path stroke="rgb(255, 112, 67)" stroke-width="2px" d="M113.7861111111111,-17.460662484169006L118.73333333333333,13.14326727390295L123.68055555555556,71.09713250398642L128.62777777777777,93.23013657331472L133.575,135.84536844491964L138.5222222222222,121.25396096706396L143.46944444444446,135.9898080825806L148.41666666666666,180.4934384822846L153.36388888888888,167.3681318163872L158.31111111111113,175.67775750160223L163.25833333333333,201.2556741535664L168.20555555555555,207.80264058709147L173.15277777777777,206.64624103903773L178.10000000000002,227.6186680197716L183.04722222222222,226.80834719538692L187.99444444444444,220.43204972147944L192.94166666666666,235.7157554626465L197.88888888888889,245.16121217608455L202.8361111111111,249.2877397835255L207.78333333333333,218.53678876161578L212.73055555555555,254.4442705214024L217.67777777777778,234.9691679477692L222.625,261.00858548283577L227.5722222222222,250.41650184988978L232.51944444444445,264.98635509610176L237.46666666666667,264.85684195160866L242.41388888888886,271.88029208779335L247.36111111111111,272.7181940674782L252.30833333333334,264.89792266488075L257.25555555555553,266.93986693024635L262.2027777777778,277.6986391246319L267.15,278.7133543342352L272.09722222222223,280.4070513099432L277.0444444444444,278.8619011044502L281.9916666666667,284.03350384533405L286.9388888888889,285.3520811498165L291.8861111111111,282.62924940884113L296.8333333333333,277.0517774820328L301.78055555555557,268.79849226772785L306.72777777777776,284.9851898252964L311.67499999999995,287.2287309318781L316.62222222222226,290.66884168982506L321.56944444444446,281.99256406724453L326.51666666666665,290.97803132236004L331.4638888888889,293.4258776307106L336.4111111111111,292.9235541969538L341.35833333333335,294.84095142781734L346.30555555555554,294.00702515244484L351.25277777777774,293.9128286540508L356.20000000000005,296.047448605299L361.14722222222224,294.4949524998665L366.09444444444443,297.3385902643204L371.0416666666667,297.9820910990238L375.9888888888889,297.1242308020592L380.9361111111111,299.5156333744526L385.8833333333333,296.6126651465893L390.8305555555556,297.00111070275307L395.77777777777777,298.7736317664385L400.725,299.3708416968584L405.6722222222222,300.1229867488146L410.61944444444447,302.7549452483654L415.56666666666666,300.10614985227585L420.51388888888886,303.16151851415634L425.4611111111111,296.3373558372259L430.40833333333336,300.8326335400343L435.35555555555555,293.44491125643253L440.3027777777778,303.9782558530569L445.25,303.2285234481096L450.1972222222222,301.7840144187212L455.1444444444444,299.01760482788086L460.0916666666667,300.23862013220787L465.0388888888889,291.164518609643L469.98611111111114,304.7213746011257L474.93333333333334,305.36191360652447L479.88055555555553,305.33195735514164L484.8277777777777,307.209219686687L489.77500000000003,307.44027757644653L494.72222222222223,307.75418923795223L499.6694444444444,307.86430498212576L504.6166666666667,302.6399032920599L509.56388888888887,306.84872375428677L514.5111111111111,308.7510349005461L519.4583333333334,300.5276777744293L524.4055555555556,307.752978220582L529.3527777777778,306.6298112422228L534.3,306.7261058986187L539.2472222222221,309.158887244761L544.1944444444445,307.94580222666264L549.1416666666667,307.66463731974363L554.0888888888888,306.2682897001505L559.0361111111112,308.9943484738469L563.9833333333333,304.39553582668304L568.9305555555555,310.6017768904567L573.8777777777779,310.11943524330854L578.825,308.7527575492859L583.7722222222222,309.2025355026126L588.7194444444444,306.43628315627575L593.6666666666666,310.86443623155355L598.6138888888889,309.8207105845213L603.5611111111111,312.08933805674314L608.5083333333333,304.67116901278496L613.4555555555555,304.7710685580969L618.4027777777777,305.98309041559696L623.3499999999999,309.267714522779L628.2972222222222,310.7231039330363L633.2444444444445,310.38308733701706L638.1916666666667,311.3811299353838L643.1388888888889,311.1152998879552L648.0861111111111,309.3716320171952L653.0333333333333,311.2699463367462L657.9805555555556,311.5600389763713L662.9277777777778,311.72925049066544L667.875,308.89278495311737L672.8222222222222,311.083883844316L677.7694444444444,312.25442366302013L682.7166666666667,313.06705621629953L687.6638888888889,311.0975523814559L692.6111111111111,310.1464812979102L697.5583333333333,311.2566509619355L702.5055555555555,309.61869129538536L707.4527777777778,310.61795664578676L712.4000000000001,312.7718918547034L717.3472222222223,312.4566307067871L722.2944444444445,311.37049128860235L727.2416666666667,311.90115393698215L732.1888888888889,312.70869129896164L737.1361111111111,309.8053921535611L742.0833333333334,306.98220321536064L747.0305555555556,308.62738908827305L751.9777777777778,311.301202788949L756.925,311.42913644760847L761.8722222222221,312.88832084834576L766.8194444444445,313.8228882998228L771.7666666666667,312.5874417051673L776.7138888888888,313.5700438320637L781.6611111111112,312.8504296168685L786.6083333333333,310.70753203332424" style="fill: none;" fill="none"></path></g></g></g></g></g></g><g transform="translate(60, 378)" clip-path="url(#clip_1)"><clipPath id="clip_1"><rect width="890" height="22"></rect></clipPath><g><g><line x1="0" y1="0" x2="0" y2="5" style="visibility: inherit;" fill="rgb(0, 0, 0)" stroke="rgb(204, 204, 204)" stroke-width="1px"></line><line x1="98.94444444444444" y1="0" x2="98.94444444444444" y2="5" style="visibility: inherit;" fill="rgb(0, 0, 0)" stroke="rgb(204, 204, 204)" stroke-width="1px"></line><line x1="197.88888888888889" y1="0" x2="197.88888888888889" y2="5" style="visibility: inherit;" fill="rgb(0, 0, 0)" stroke="rgb(204, 204, 204)" stroke-width="1px"></line><line x1="296.8333333333333" y1="0" x2="296.8333333333333" y2="5" style="visibility: inherit;" fill="rgb(0, 0, 0)" stroke="rgb(204, 204, 204)" stroke-width="1px"></line><line x1="395.77777777777777" y1="0" x2="395.77777777777777" y2="5" style="visibility: inherit;" fill="rgb(0, 0, 0)" stroke="rgb(204, 204, 204)" stroke-width="1px"></line><line x1="494.72222222222223" y1="0" x2="494.72222222222223" y2="5" style="visibility: inherit;" fill="rgb(0, 0, 0)" stroke="rgb(204, 204, 204)" stroke-width="1px"></line><line x1="593.6666666666666" y1="0" x2="593.6666666666666" y2="5" style="visibility: inherit;" fill="rgb(0, 0, 0)" stroke="rgb(204, 204, 204)" stroke-width="1px"></line><line x1="692.6111111111111" y1="0" x2="692.6111111111111" y2="5" style="visibility: inherit;" fill="rgb(0, 0, 0)" stroke="rgb(204, 204, 204)" stroke-width="1px"></line><line x1="791.5555555555555" y1="0" x2="791.5555555555555" y2="5" style="visibility: inherit;" fill="rgb(0, 0, 0)" stroke="rgb(204, 204, 204)" stroke-width="1px"></line><line x1="890.5" y1="0" x2="890.5" y2="5" style="visibility: inherit;" fill="rgb(0, 0, 0)" stroke="rgb(204, 204, 204)" stroke-width="1px"></line></g><g transform="translate(0, 8)"><text x="0" y="0" dx="0em" dy="0.95em" style="text-anchor: middle; visibility: hidden; font-family: &quot;Helvetica Neue&quot;, sans-serif; font-size: 12px; font-weight: 200;" fill="rgb(50, 49, 63)" stroke="none" stroke-width="1px">-20k</text><text x="98.94444444444444" y="0" dx="0em" dy="0.95em" style="text-anchor: middle; visibility: inherit; font-family: &quot;Helvetica Neue&quot;, sans-serif; font-size: 12px; font-weight: 200;" fill="rgb(50, 49, 63)" stroke="none" stroke-width="1px">0</text><text x="197.88888888888889" y="0" dx="0em" dy="0.95em" style="text-anchor: middle; visibility: inherit; font-family: &quot;Helvetica Neue&quot;, sans-serif; font-size: 12px; font-weight: 200;" fill="rgb(50, 49, 63)" stroke="none" stroke-width="1px">20k</text><text x="296.8333333333333" y="0" dx="0em" dy="0.95em" style="text-anchor: middle; visibility: inherit; font-family: &quot;Helvetica Neue&quot;, sans-serif; font-size: 12px; font-weight: 200;" fill="rgb(50, 49, 63)" stroke="none" stroke-width="1px">40k</text><text x="395.77777777777777" y="0" dx="0em" dy="0.95em" style="text-anchor: middle; visibility: inherit; font-family: &quot;Helvetica Neue&quot;, sans-serif; font-size: 12px; font-weight: 200;" fill="rgb(50, 49, 63)" stroke="none" stroke-width="1px">60k</text><text x="494.72222222222223" y="0" dx="0em" dy="0.95em" style="text-anchor: middle; visibility: inherit; font-family: &quot;Helvetica Neue&quot;, sans-serif; font-size: 12px; font-weight: 200;" fill="rgb(50, 49, 63)" stroke="none" stroke-width="1px">80k</text><text x="593.6666666666666" y="0" dx="0em" dy="0.95em" style="text-anchor: middle; visibility: inherit; font-family: &quot;Helvetica Neue&quot;, sans-serif; font-size: 12px; font-weight: 200;" fill="rgb(50, 49, 63)" stroke="none" stroke-width="1px">100k</text><text x="692.6111111111111" y="0" dx="0em" dy="0.95em" style="text-anchor: middle; visibility: inherit; font-family: &quot;Helvetica Neue&quot;, sans-serif; font-size: 12px; font-weight: 200;" fill="rgb(50, 49, 63)" stroke="none" stroke-width="1px">120k</text><text x="791.5555555555555" y="0" dx="0em" dy="0.95em" style="text-anchor: middle; visibility: inherit; font-family: &quot;Helvetica Neue&quot;, sans-serif; font-size: 12px; font-weight: 200;" fill="rgb(50, 49, 63)" stroke="none" stroke-width="1px">140k</text><text x="890.5" y="0" dx="0em" dy="0.95em" style="text-anchor: middle; visibility: hidden; font-family: &quot;Helvetica Neue&quot;, sans-serif; font-size: 12px; font-weight: 200;" fill="rgb(50, 49, 63)" stroke="none" stroke-width="1px">160k</text></g><line x1="0" y1="0" x2="890.5" y2="0" fill="rgb(0, 0, 0)" stroke="rgb(204, 204, 204)" stroke-width="1px"></line></g></g></g></g></svg>